<svg xmlns="http://www.w3.org/2000/svg" width="76.25" height="76.25" viewBox="0 0 76.25 76.25">
  <path id="Контур_1186" data-name="Контур 1186" d="M66.151,361.6a2.941,2.941,0,1,1,2.942-2.941A2.941,2.941,0,0,1,66.151,361.6Zm2.942,14.651a2.942,2.942,0,1,0-2.942,2.941A2.942,2.942,0,0,0,69.093,376.246Zm0,17.591a2.942,2.942,0,1,0-2.942,2.942A2.942,2.942,0,0,0,69.093,393.837Zm0,17.592a2.942,2.942,0,1,0-2.942,2.942A2.942,2.942,0,0,0,69.093,411.429Zm0,17.592a2.942,2.942,0,1,0-2.942,2.941A2.942,2.942,0,0,0,69.093,429.021ZM51.5,358.654A2.941,2.941,0,1,0,48.56,361.6,2.942,2.942,0,0,0,51.5,358.654Zm0,17.592a2.941,2.941,0,1,0-2.941,2.941A2.942,2.942,0,0,0,51.5,376.246Zm0,17.591a2.941,2.941,0,1,0-2.941,2.942A2.941,2.941,0,0,0,51.5,393.837Zm0,17.592a2.941,2.941,0,1,0-2.941,2.942A2.942,2.942,0,0,0,51.5,411.429Zm0,17.592a2.941,2.941,0,1,0-2.941,2.941A2.942,2.942,0,0,0,51.5,429.021ZM33.91,358.654a2.942,2.942,0,1,0-2.942,2.941A2.942,2.942,0,0,0,33.91,358.654Zm0,17.592a2.942,2.942,0,1,0-2.942,2.941A2.942,2.942,0,0,0,33.91,376.246Zm0,17.591a2.942,2.942,0,1,0-2.942,2.942A2.942,2.942,0,0,0,33.91,393.837Zm0,17.592a2.942,2.942,0,1,0-2.942,2.942A2.942,2.942,0,0,0,33.91,411.429Zm0,17.592a2.942,2.942,0,1,0-2.942,2.941A2.942,2.942,0,0,0,33.91,429.021ZM16.318,358.654a2.942,2.942,0,1,0-2.942,2.941A2.942,2.942,0,0,0,16.318,358.654Zm0,17.592a2.942,2.942,0,1,0-2.942,2.941A2.942,2.942,0,0,0,16.318,376.246Zm0,17.591a2.942,2.942,0,1,0-2.942,2.942A2.942,2.942,0,0,0,16.318,393.837Zm0,17.592a2.942,2.942,0,1,0-2.942,2.942A2.942,2.942,0,0,0,16.318,411.429Zm0,17.592a2.942,2.942,0,1,0-2.942,2.941A2.942,2.942,0,0,0,16.318,429.021ZM-1.274,358.654a2.942,2.942,0,0,0-2.941-2.942,2.942,2.942,0,0,0-2.942,2.942A2.942,2.942,0,0,0-4.215,361.6,2.941,2.941,0,0,0-1.274,358.654Zm0,17.592A2.942,2.942,0,0,0-4.215,373.3a2.942,2.942,0,0,0-2.942,2.942,2.942,2.942,0,0,0,2.942,2.941A2.941,2.941,0,0,0-1.274,376.246Zm0,17.591A2.941,2.941,0,0,0-4.215,390.9a2.942,2.942,0,0,0-2.942,2.941,2.942,2.942,0,0,0,2.942,2.942A2.942,2.942,0,0,0-1.274,393.837Zm0,17.592a2.942,2.942,0,0,0-2.941-2.942,2.942,2.942,0,0,0-2.942,2.942,2.942,2.942,0,0,0,2.942,2.942A2.942,2.942,0,0,0-1.274,411.429Zm0,17.592a2.942,2.942,0,0,0-2.941-2.942,2.942,2.942,0,0,0-2.942,2.942,2.942,2.942,0,0,0,2.942,2.941A2.941,2.941,0,0,0-1.274,429.021Z" transform="translate(7.157 -355.712)" fill="#ffc263"/>
</svg>
