<svg xmlns="http://www.w3.org/2000/svg" width="151.999" height="151.999" viewBox="0 0 151.999 151.999">
  <path id="Пересечение_4" data-name="Пересечение 4" d="M182.4,191.416a10,10,0,0,1,9.013-9.012v5.076h-4.669v2.605h4.669v.868h-4.669v.463Zm-17.758,0a39.165,39.165,0,0,0,26.771-26.771v3.223q-.3.814-.643,1.618a40.133,40.133,0,0,1-21.286,21.286q-.8.34-1.619.643Zm-24.681,0A40.073,40.073,0,0,1,115.415,164.8a40.091,40.091,0,0,1-24.548,26.611h-3.14a38.776,38.776,0,0,0,27.688-31.232h0A38.775,38.775,0,0,0,143.1,191.416Zm-18.869,0v-2.2H110.671v-.869h10.423v-.868H109.8v2.605h10.423v.869H109.8v.462h-4.345a10,10,0,0,1,19.912,0Zm-58.131,0q-.815-.3-1.618-.643a40.133,40.133,0,0,1-21.286-21.286q-.34-.8-.644-1.619v-3.223a39.165,39.165,0,0,0,26.771,26.771Zm-18.812,0v-2.2H39.416v-.869h4.736v-.868H39.416V182.4a10,10,0,0,1,9.013,9.012Zm-4.736-.462v-.869h3.867v.869Zm100.1-2.946a37,37,0,0,1,14.374-71.092h.029a37,37,0,1,1-14.4,71.092Zm-21.6-34.092v.023a38.466,38.466,0,0,1,35.924,35.977h.094a38.468,38.468,0,0,1,35.981-35.981v-.1a38.465,38.465,0,0,1-35.977-35.924h-.1a38.466,38.466,0,0,1-35.92,35.921h0ZM154.938,189.9A36.044,36.044,0,0,0,189.9,154.939,37.7,37.7,0,0,0,154.938,189.9Zm-2.1,0a37.413,37.413,0,0,0-34.9-34.957c-.01-.339-.014-.671-.015-.986A36.041,36.041,0,0,0,152.834,189.9Zm-34.917-36.32q0-.014,0-.029C117.917,153.561,117.917,153.571,117.917,153.581Zm0-.033v0Zm0-.053v0Zm71.981-.659a36.043,36.043,0,0,0-34.958-34.9A37.7,37.7,0,0,0,189.9,152.835Zm-71.968,0a37.411,37.411,0,0,0,34.9-34.9A36.042,36.042,0,0,0,117.932,152.832ZM62.513,188.008a37,37,0,0,1,14.4-71.092h.028c.184,0,.363,0,.538,0A36.965,36.965,0,0,1,113.9,152.885h0c.009.346.013.682.014,1h0c0,.135,0,.269,0,.4a37.02,37.02,0,0,1-51.4,33.719Zm-9.055-31.123A38.465,38.465,0,0,1,76.9,189.916h.094a38.47,38.47,0,0,1,35.924-35.977v-.1a38.468,38.468,0,0,1-35.921-35.92h-.1a38.465,38.465,0,0,1-35.919,35.921h0c0-.334.005-.672.015-1a37.412,37.412,0,0,0,34.9-34.9,36,36,0,0,0,0,71.971,37.413,37.413,0,0,0-34.9-34.959c-.01-.346-.015-.683-.015-1A38.2,38.2,0,0,1,53.458,156.885ZM77.994,189.9A36.045,36.045,0,0,0,112.9,154.942,37.7,37.7,0,0,0,77.994,189.9Zm34.9-37.069a36.046,36.046,0,0,0-34.9-34.9A37.694,37.694,0,0,0,112.9,152.831Zm74.715,36.385v-.868h3.8v.868Zm-72.2-41.567a38.879,38.879,0,0,0-32.239-32.232,38.879,38.879,0,0,0,32.24-32.24,38.876,38.876,0,0,0,32.238,32.24,38.875,38.875,0,0,0-32.237,32.232ZM105.2,105.2a40.056,40.056,0,0,1-17.4,10.215,40.076,40.076,0,0,1,27.612,27.612,40.08,40.08,0,0,1,27.612-27.612A40.076,40.076,0,0,1,115.415,87.8,40.056,40.056,0,0,1,105.2,105.2Zm54.977,10.216a38.77,38.77,0,0,0,31.238-27.688v3.139A40.067,40.067,0,0,1,164.8,115.416a40.1,40.1,0,0,1,26.611,24.548v3.14A38.77,38.77,0,0,0,160.177,115.417ZM39.416,139.964a40.073,40.073,0,0,1,26.611-24.548A40.092,40.092,0,0,1,39.416,90.868V87.729a38.771,38.771,0,0,0,31.238,27.688A38.769,38.769,0,0,0,39.416,143.1Zm68.928-17.477a10,10,0,1,1,7.071,2.929A9.937,9.937,0,0,1,108.344,122.487Zm8.408-7.61v6.08h.868v-6.08h3.474v-2.6H110.671V111.4h10.423v-.869H109.8v2.605h10.423v.869H109.8v.868h3.474v6.08h.868v-6.08h.868v6.08h.868v-6.08h.868Zm68.535,7.61a10,10,0,0,1,6.128-17.028v5.076h-4.669v2.605h4.669v.869h-4.669v.868h3.475v6.08h.868v-6.08h.326v10.495A9.924,9.924,0,0,1,185.287,122.487Zm-145.871-7.61h.393v6.08h.868v-6.08h3.474v-2.6H39.416V111.4h4.736v-.869H39.416V105.46a10,10,0,0,1,0,19.912Zm0-.868v-.869h3.867v.869Zm114.471-.094h0a36.937,36.937,0,1,1,.436,0l-.435,0Zm-35.971-37V77a38.466,38.466,0,0,1,35.921,35.921h.1a38.468,38.468,0,0,1,35.977-35.924v-.1a38.465,38.465,0,0,1-35.981-35.98h-.094a38.466,38.466,0,0,1-35.924,35.978h0ZM154.941,112.9A36.045,36.045,0,0,0,189.9,77.995,37.7,37.7,0,0,0,154.941,112.9Zm-2.11,0a37.41,37.41,0,0,0-34.9-34.9A36.043,36.043,0,0,0,152.831,112.9ZM117.915,76.878c0-.328.006-.662.015-.99a37.41,37.41,0,0,0,34.9-34.956A36.04,36.04,0,0,0,117.915,76.878Zm71.986-.986A36.046,36.046,0,0,0,154.938,40.93,37.693,37.693,0,0,0,189.9,75.892ZM76.943,113.917h-.028a37.02,37.02,0,1,1,37-37.286c0,.106,0,.211,0,.313h0c0,.349-.005.686-.014,1A36.97,36.97,0,0,1,77.945,113.9c-.344.01-.68.013-1,.014ZM53.458,79.942a38.465,38.465,0,0,1,23.434,32.974h.1A38.47,38.47,0,0,1,112.915,77v-.1A38.468,38.468,0,0,1,76.991,40.916H76.9A38.467,38.467,0,0,1,40.973,76.893h0v0c0-.333.005-.671.015-1a37.413,37.413,0,0,0,34.9-34.958,36,36,0,0,0,0,71.971A37.411,37.411,0,0,0,40.988,78c-.01-.346-.015-.683-.015-1A38.2,38.2,0,0,1,53.458,79.942ZM78,112.9A36.047,36.047,0,0,0,112.9,78,37.693,37.693,0,0,0,78,112.9Zm34.9-37.012A36.047,36.047,0,0,0,77.994,40.932,37.7,37.7,0,0,0,112.9,75.888Zm74.713,36.385V111.4h3.8v.868ZM87.728,39.416h3.139a40.067,40.067,0,0,1,24.548,26.611,40.1,40.1,0,0,1,24.548-26.611h3.14a38.77,38.77,0,0,0-27.687,31.238A38.77,38.77,0,0,0,87.728,39.416Zm76.916,0h3.223q.815.3,1.619.644a40.133,40.133,0,0,1,21.286,21.286q.34.8.643,1.618v3.223A39.165,39.165,0,0,0,164.644,39.416ZM39.416,62.964q.3-.815.644-1.618A40.133,40.133,0,0,1,61.345,40.06q.8-.34,1.618-.644h3.223A39.165,39.165,0,0,0,39.416,66.187Zm68.928-17.42a9.928,9.928,0,0,1-2.885-6.127h7.819v4.6h.868v-4.6h.868v4.6h.868v-4.6h.868v4.6h.868v-4.6h7.751a10,10,0,0,1-17.027,6.127Zm76.943,0a9.923,9.923,0,0,1-2.885-6.127h7.819v4.6h.868v-4.6h.326v9.012A9.924,9.924,0,0,1,185.287,45.544ZM39.416,39.416h.393v4.6h.868v-4.6h7.751a10,10,0,0,1-9.013,9.012Z" transform="translate(-39.416 -39.416)" fill="#969ea7" opacity="0.18"/>
</svg>
