<svg xmlns="http://www.w3.org/2000/svg" width="21.999" height="18.001" viewBox="0 0 21.999 18.001">
  <path id="Объединение_436" data-name="Объединение 436" d="M9924.1,17.917c0-.359-.018-.719,0-1.078a7.409,7.409,0,0,1,1.994-4.6c.137-.145.284-.274.427-.414.024-.025.047-.047.084-.082-.062-.032-.109-.052-.159-.075a11,11,0,0,1-3.676-2.859,11.617,11.617,0,0,1-1.956-3.3,11.756,11.756,0,0,1-.688-2.61,13.3,13.3,0,0,1-.114-2.355c.007-.16.029-.317.039-.477.006-.047.03-.062.073-.062.3.015.6.012.893.035.374.032.751.082,1.123.142a9.828,9.828,0,0,1,2.271.679,10.772,10.772,0,0,1,3.154,2.051,11.489,11.489,0,0,1,2.8,4.007,11.841,11.841,0,0,1,.613,1.886c.008.02.013.045.027.09.013-.042.022-.057.027-.08a11.8,11.8,0,0,1,1.647-3.825,11.439,11.439,0,0,1,2.68-2.844,10.8,10.8,0,0,1,3.463-1.722,10.907,10.907,0,0,1,1.619-.332A13.154,13.154,0,0,1,9941.876,0c.058,0,.085.015.087.082.013.409.043.823.038,1.235a11.491,11.491,0,0,1-.342,2.69,11.76,11.76,0,0,1-2.071,4.351,11.231,11.231,0,0,1-2.58,2.463,10.412,10.412,0,0,1-1.549.883c-.025.015-.051.027-.083.045a.232.232,0,0,0,.053.055,7.838,7.838,0,0,1,.963,1.05,7.544,7.544,0,0,1,1.425,3.526,8.692,8.692,0,0,1,.058,1.292c0,.07-.008.14-.013.215,0,.1-.013.1-.107.1a6.605,6.605,0,0,1-2.567-.529,6.9,6.9,0,0,1-2.148-1.445,7.331,7.331,0,0,1-1.876-3.134c-.06-.2-.013-.167-.225-.175-.072,0-.1.02-.122.1a7.257,7.257,0,0,1-1.837,3.154,6.807,6.807,0,0,1-2.962,1.777,6.355,6.355,0,0,1-1.364.242c-.157.007-.312.012-.467.022h-.021C9924.119,18,9924.1,17.977,9924.1,17.917Zm2.63-6.046c-.24.242-.489.469-.714.726a7.174,7.174,0,0,0-1.645,3.466c-.05.317-.082.636-.107.961-.015.23,0,.464,0,.7,0,.057.015.092.082.09.267-.027.534-.032.8-.072a6.394,6.394,0,0,0,1.9-.6,6.712,6.712,0,0,0,2.046-1.559,7.013,7.013,0,0,0,1.1-1.632c.013-.027.022-.052.033-.08l-.018-.007c-.013.02-.03.045-.045.072a6.038,6.038,0,0,1-.94,1.2,5.668,5.668,0,0,1-2.835,1.534,5.231,5.231,0,0,1-1,.11c-.045,0-.077,0-.08-.062a7.108,7.108,0,0,1,.013-.946,6.172,6.172,0,0,1,.215-1.155,6.083,6.083,0,0,1,1.5-2.607.835.835,0,0,0,.061-.065c-.088-.035-.162-.062-.232-.1a.13.13,0,0,0-.056-.014A.106.106,0,0,0,9926.729,11.872Zm4.745,1.39c.075.185.147.372.232.556a6.944,6.944,0,0,0,1.52,2.131,6.57,6.57,0,0,0,2.657,1.574,6.194,6.194,0,0,0,1.694.282c.119,0,.119,0,.122-.13a8.58,8.58,0,0,0-.05-1.205,7.285,7.285,0,0,0-1.59-3.748,6.892,6.892,0,0,0-.82-.838c-.022-.02-.058-.045-.08-.035a1.976,1.976,0,0,0-.242.1.6.6,0,0,0,.07.072,6.126,6.126,0,0,1,1.314,2.058,6.448,6.448,0,0,1,.412,2.617c0,.067-.027.095-.088.087-.271-.027-.549-.035-.818-.082a5.476,5.476,0,0,1-2.317-.966,5.952,5.952,0,0,1-2-2.5.263.263,0,0,0-.027-.05A.128.128,0,0,0,9931.474,13.262ZM9920.516.641a13.734,13.734,0,0,0,.052,1.664,11.3,11.3,0,0,0,.359,1.914,11.255,11.255,0,0,0,1.457,3.211,11.039,11.039,0,0,0,1.937,2.211,9.978,9.978,0,0,0,2.408,1.569,2,2,0,0,1,.189.1c.227.137.449.279.681.4a6.391,6.391,0,0,0,2.081.689c.377.05.761.072,1.143.092a7.478,7.478,0,0,0,1.779-.132,7.035,7.035,0,0,0,2.415-1.011,1.419,1.419,0,0,1,.213-.115,10.382,10.382,0,0,0,2.789-1.9,10.948,10.948,0,0,0,2.5-3.541,11.4,11.4,0,0,0,.931-3.531,12.011,12.011,0,0,0,.045-1.612c0-.1,0-.1-.1-.1a10.251,10.251,0,0,0-1.409.145,9.8,9.8,0,0,0-2.386.744,10.286,10.286,0,0,0-3.214,2.266,10.888,10.888,0,0,0-1.512,1.949,6.3,6.3,0,0,1-.589.938c-.032.037-.06.082-.09.125a7.414,7.414,0,0,0-1.033,2.148c-.058.195-.107.394-.162.6a.39.39,0,0,1-.018-.072,7.81,7.81,0,0,0-1.14-2.637,6.359,6.359,0,0,1-.4-.594,10.911,10.911,0,0,0-2.744-3.316A10.216,10.216,0,0,0,9922.5.788a10.4,10.4,0,0,0-1.884-.242h-.03C9920.518.546,9920.518.558,9920.516.641Zm11.078,11.006c0-.015,0-.022-.008-.035a7.715,7.715,0,0,1,.624-3.338,6.321,6.321,0,0,1,1.385-1.989,6.143,6.143,0,0,1,3.029-1.627c.332-.07.671-.1,1.008-.147a.481.481,0,0,1,.085,0c0,.02,0,.042,0,.067-.01.257-.01.521-.032.781a7.271,7.271,0,0,1-.4,1.789,7.6,7.6,0,0,1-1.04,1.914,6.3,6.3,0,0,1-3.2,2.323,5.789,5.789,0,0,1-1.424.267A.063.063,0,0,1,9931.594,11.647Zm-1.433-.015a6.247,6.247,0,0,1-4.366-2.478,7.073,7.073,0,0,1-1.393-3.281,8.822,8.822,0,0,1-.1-1.287V4.491c.142.012.271.02.4.035a6.494,6.494,0,0,1,2.076.619,6.128,6.128,0,0,1,2.64,2.438,7.087,7.087,0,0,1,.908,2.642,9.153,9.153,0,0,1,.095,1.33v.09C9930.334,11.64,9930.249,11.64,9930.161,11.632Zm-5.14-2a9.133,9.133,0,0,1-2.42-4.451,8.73,8.73,0,0,1-.228-1.9c0-.235,0-.474,0-.716,0-.027,0-.057,0-.09,0-.057.027-.075.085-.075a7.794,7.794,0,0,1,1.205.1,8.407,8.407,0,0,1,4.936,2.695c.2.215.377.449.564.676.022.027.039.055.06.077l-.01.012c-.075-.082-.15-.155-.228-.23a7.151,7.151,0,0,0-3.463-1.9,6.657,6.657,0,0,0-1.385-.172l-.5-.012c-.05,0-.069.017-.074.072a8.282,8.282,0,0,0,1.313,5.537c.095.15.2.289.307.432s.217.264.319.407C9925.351,9.951,9925.182,9.8,9925.021,9.636Zm11.58.277a8.276,8.276,0,0,0,1.382-2.368,8.162,8.162,0,0,0,.472-1.936,8.388,8.388,0,0,0,.037-1.51c-.007-.117-.02-.237-.029-.354,0-.055-.022-.075-.08-.075a7.687,7.687,0,0,0-2.795.434A6.93,6.93,0,0,0,9933,5.741c-.109.11-.217.222-.326.337,0,0-.008,0-.01-.01.142-.182.281-.369.429-.549a8.621,8.621,0,0,1,3.48-2.535A7.31,7.31,0,0,1,9938.4,2.5c.369-.047.743-.06,1.115-.09.06,0,.08.01.085.077a9.408,9.408,0,0,1-1.221,5.282,8.765,8.765,0,0,1-1.866,2.281.06.06,0,0,1-.04.02C9936.517,10.015,9936.559,9.963,9936.6,9.913Z" transform="translate(-9920.003)" fill="#e82d89" opacity="0.8"/>
</svg>
