<svg xmlns="http://www.w3.org/2000/svg" width="204.111" height="159.317" viewBox="0 0 204.111 159.317">
  <g id="Сгруппировать_2100" data-name="Сгруппировать 2100" transform="translate(0.5 0.502)" opacity="0.11">
    <path id="Вычитание_2206" data-name="Вычитание 2206" d="M1.066,69.44H.229L.174,68.6C.055,66.684,0,65.152,0,63.781A64.046,64.046,0,0,1,7.511,33.714,64.884,64.884,0,0,1,27.466,11.223c.537.327,1.108.663,1.7,1A62.349,62.349,0,0,0,1.788,63.781c0,1.1.038,2.289.122,3.866A62.107,62.107,0,0,0,57.022,32.405,53.437,53.437,0,0,1,38.033,51.459,53.071,53.071,0,0,1,11.3,58.768c0-.65-.037-1.319-.073-1.966-.037-.666-.075-1.353-.075-2.038A52.868,52.868,0,0,1,31.122,13.29a66.387,66.387,0,0,0,31.129,7.57h.2l.006.055.627,0A64.577,64.577,0,0,1,40.671,55.564,63.394,63.394,0,0,1,1.066,69.44Zm126.149-.023h0l-.809-.006A63.382,63.382,0,0,1,86.812,55.545a64.6,64.6,0,0,1-22.424-34.62l1.381.007h.287a65.755,65.755,0,0,0,30.745-7.7,52.845,52.845,0,0,1,20,41.528c0,1.36-.05,2.707-.148,4a53.13,53.13,0,0,1-48.6-32.029,62.764,62.764,0,0,0,57.534,40.885c.093-1.285.093-2.6.093-3.869a62.378,62.378,0,0,0-27.2-51.441c.53-.3,1.1-.636,1.7-1A64.892,64.892,0,0,1,120.007,33.78a64.05,64.05,0,0,1,7.463,29.975,45.641,45.641,0,0,1-.174,4.861l-.08.8Zm-57.9-55.732v0c0-.3.008-.589.013-.873v-.032l.009-.621.009-.679c.007-.5.013-.935.013-1.276a64.881,64.881,0,0,1,.515-8.182A52.528,52.528,0,0,1,89.986,8.612a58.123,58.123,0,0,1-20.665,5.074Zm-10.639-.081h0A59.416,59.416,0,0,1,37.979,8.635,52.54,52.54,0,0,1,57.964,2.06a77.419,77.419,0,0,1,.714,8.852v2.693ZM91.229,8.034h0A61.669,61.669,0,0,0,69.908,1.78c.087-.657.172-1.235.259-1.771A63.414,63.414,0,0,1,93.2,7.042c-.716.376-1.361.7-1.974.992ZM36.475,7.943h0c-.667-.318-1.335-.652-1.985-.992A63.423,63.423,0,0,1,57.645,0c.11.651.2,1.229.278,1.77A61.672,61.672,0,0,0,36.477,7.943Z" transform="translate(37.596 88.875)" fill="#4a5568" stroke="rgba(0,0,0,0)" stroke-miterlimit="10" stroke-width="1"/>
    <path id="Вычитание_2207" data-name="Вычитание 2207" d="M85.065,81.452V81.4c.009-.513.018-1.02.023-1.476l.011-.851,0-.155c0-.363.009-.687.009-.952a61.615,61.615,0,0,1,4.279-22.854,57.373,57.373,0,0,1,29.8-31.205,62.456,62.456,0,0,1,22.576-5.428c0,.373,0,.765,0,1.17a62.31,62.31,0,0,1-13.2,38.4,58.537,58.537,0,0,1-43.507,23.4Zm-10.637-.081h0A59.023,59.023,0,0,1,34.162,62.354,62.756,62.756,0,0,1,17.886,19.646c0-.437,0-.864,0-1.283A61.925,61.925,0,0,1,35.073,21.8c24.348,8.65,38.692,29.381,39.354,56.877v2.7Zm54.467-12.66,0,0a64.713,64.713,0,0,0,5.371-6.325,69.4,69.4,0,0,0,14.667-42.745c0-2-.066-3.645-.207-5.167l-.306-3.254-3.274.014c-20.593.068-38.887,8.246-51.511,23.028a80.581,80.581,0,0,1,27.94-24.829A79.5,79.5,0,0,1,139.4,2.5,80.3,80.3,0,0,1,159.016.022c.143,1.992.215,4.014.215,6.009a79.091,79.091,0,0,1-8.245,35.39A80.706,80.706,0,0,1,128.895,68.71ZM30.2,68.626a80.735,80.735,0,0,1-22-27.269A79.111,79.111,0,0,1,0,6.031,56.727,56.727,0,0,1,.215,0,79.061,79.061,0,0,1,36.743,8.922,80.649,80.649,0,0,1,64.4,32.565,65.739,65.739,0,0,0,37.463,15.055,69.022,69.022,0,0,0,14.5,11.113l-3.192,0-.364,3.164a45.951,45.951,0,0,0-.215,5.374A69.613,69.613,0,0,0,30.2,68.622Z" transform="translate(21.845 21.111)" fill="#4a5568" stroke="rgba(0,0,0,0)" stroke-miterlimit="10" stroke-width="1"/>
    <path id="Объединение_483" data-name="Объединение 483" d="M99.265,111.732A101.9,101.9,0,0,1,0,9.877a67.037,67.037,0,0,1,.3-7.76L.547,0,2.672.009a102.154,102.154,0,0,1,98.882,78.326A102.154,102.154,0,0,1,200.435.009L202.641,0l.177,2.206c.194,2.509.293,5.089.293,7.675A102.076,102.076,0,0,1,103.846,111.73l0,.034h-2.369l-2.206,0ZM4.766,9.881A97.126,97.126,0,0,0,98.922,106.95c-.081-1.648-.123-3.36-.123-5.058q0-4.345.361-8.6A97.335,97.335,0,0,0,4.856,4.805C4.766,6.448,4.766,8.13,4.766,9.881Zm99.543,92.01c0,1.691-.043,3.383-.128,5.058a97.292,97.292,0,0,0,94.16-97.068c0-1.7-.045-3.4-.135-5.071a97.324,97.324,0,0,0-94.258,88.478Q104.307,97.542,104.309,101.892Z" transform="translate(0)" fill="#4a5568" stroke="rgba(0,0,0,0)" stroke-miterlimit="10" stroke-width="1"/>
  </g>
</svg>
