<svg xmlns="http://www.w3.org/2000/svg" width="14.212" height="15.16" viewBox="0 0 14.212 15.16">
  <path id="Icon_metro-calendar" data-name="Icon metro-calendar" d="M7.308,7.613H9.2V9.508H7.308Zm2.842,0h1.895V9.508H10.151Zm2.842,0h1.895V9.508H12.993ZM4.466,13.3H6.361v1.895H4.466Zm2.842,0H9.2v1.895H7.308Zm2.842,0h1.895v1.895H10.151ZM7.308,10.455H9.2V12.35H7.308Zm2.842,0h1.895V12.35H10.151Zm2.842,0h1.895V12.35H12.993Zm-8.527,0H6.361V12.35H4.466ZM14.888,1.928v.947H12.993V1.928H6.361v.947H4.466V1.928H2.571v15.16H16.783V1.928H14.888Zm.947,14.212H3.518V5.718H15.835Z" transform="translate(-2.571 -1.928)" fill="#a0aec0"/>
</svg>
