<svg xmlns="http://www.w3.org/2000/svg" width="28.632" height="28.632" viewBox="0 0 28.632 28.632">
  <path id="whatsapp" d="M24.344,36.161A14.193,14.193,0,0,0,2.013,53.283L0,60.632l7.522-1.975A14.145,14.145,0,0,0,14.3,60.383h.006A14.1,14.1,0,0,0,24.344,36.161ZM14.31,57.993A11.772,11.772,0,0,1,8.3,56.35l-.428-.256-4.461,1.17L4.6,52.912l-.281-.447a11.816,11.816,0,1,1,21.915-6.27A11.925,11.925,0,0,1,14.31,57.993Zm6.468-8.833c-.352-.179-2.1-1.035-2.422-1.15s-.562-.179-.8.179-.914,1.15-1.125,1.393-.415.268-.767.089a9.65,9.65,0,0,1-4.825-4.218c-.364-.626.364-.582,1.042-1.937a.657.657,0,0,0-.032-.62c-.089-.179-.8-1.924-1.093-2.633-.288-.69-.582-.594-.8-.607s-.441-.013-.677-.013a1.313,1.313,0,0,0-.946.441,3.984,3.984,0,0,0-1.24,2.959,6.945,6.945,0,0,0,1.444,3.669A15.842,15.842,0,0,0,14.6,52.068c2.25.971,3.132,1.055,4.257.888a3.631,3.631,0,0,0,2.39-1.687,2.965,2.965,0,0,0,.2-1.687" transform="translate(0 -32)" fill="#32bb47"/>
</svg>
