<svg xmlns="http://www.w3.org/2000/svg" width="57.052" height="50.563" viewBox="0 0 57.052 50.563">
  <g id="Сгруппировать_6412" data-name="Сгруппировать 6412" transform="translate(-2179.952 -2559.887)">
    <path id="Контур_16070" data-name="Контур 16070" d="M2198.271,2581.731v-.922c0-2.038,0-4.077,0-6.115a1.4,1.4,0,0,1,2.022-1.394,7.217,7.217,0,0,1,.8.392l14.154,7.35c.174.09.351.176.594.3.011-.219.026-.389.027-.56,0-2.005,0-4.01,0-6.016a1.421,1.421,0,0,1,2.226-1.367c.963.481,1.912.99,2.868,1.485.158.082.321.155.54.26.33-3.1.654-6.137.986-9.258-.414,0-.786,0-1.158,0a1.3,1.3,0,0,1-1.426-1.315,1.273,1.273,0,0,1,1.407-1.271c.462,0,.925,0,1.443,0,.084-.712.172-1.4.245-2.085a1.3,1.3,0,0,1,1.344-1.306q2.759-.04,5.518,0a1.287,1.287,0,0,1,1.322,1.223c.1.7.157,1.407.239,2.166.468,0,.911-.006,1.354,0a1.293,1.293,0,1,1,0,2.583c-.345.01-.69,0-1.073,0,.148,1.414.289,2.775.432,4.136q.413,3.9.829,7.805c.105.988.224,1.974.315,2.964a.861.861,0,0,0,.546.788c.719.337,1.4.753,2.123,1.086A1.694,1.694,0,0,1,2237,2584.4q-.024,9.968-.009,19.937c0,1.508,0,3.016,0,4.524,0,1.12-.486,1.593-1.614,1.593h-53.745c-1.209,0-1.662-.462-1.662-1.694,0-11.286.017-22.572-.021-33.858a1.519,1.519,0,0,1,2.406-1.444c4.869,2.555,9.753,5.082,14.631,7.618C2197.384,2581.277,2197.78,2581.479,2198.271,2581.731Zm1.022,26.106h35.079c.011-.167.03-.311.03-.455q0-11.089.007-22.177a.6.6,0,0,0-.36-.621q-7.61-3.944-15.21-7.905a3.289,3.289,0,0,0-.376-.138v.607c0,2.088.007,4.177,0,6.265a1.287,1.287,0,0,1-1.88,1.249c-.153-.062-.3-.148-.443-.225l-14.715-7.66c-.167-.087-.339-.165-.562-.273v.633c0,2.221.008,4.442,0,6.663a1.265,1.265,0,0,1-1.926,1.188c-.135-.063-.266-.134-.4-.2l-15.381-7.993c-.17-.089-.345-.168-.559-.271v31.314h2.93v-.613q0-7.608,0-15.216a1.33,1.33,0,0,1,1.424-1.481c.116-.006.232,0,.348,0h10.193c1.393,0,1.805.412,1.805,1.8q0,7.434,0,14.868Zm-2.621,0c.013-.182.032-.327.032-.472q0-6.86.009-13.72c0-.4-.092-.548-.521-.545-2.535.019-5.071.009-7.606.011-.143,0-.287.025-.448.04v14.687Zm33.858-28.529-1.43-13.392h-4c-.074.65-.148,1.273-.215,1.9-.278,2.582-.549,5.164-.837,7.744a.464.464,0,0,0,.306.538c1.264.651,2.521,1.316,3.782,1.974C2228.9,2578.461,2229.657,2578.853,2230.531,2579.306Zm-1.762-16.027c.047-.779.047-.779-.654-.779h-2.031c-.7,0-.753.065-.6.779Z" fill="#e82d89"/>
    <path id="Контур_16071" data-name="Контур 16071" d="M2574.521,2878.513c-1.49,0-2.981,0-4.471,0-1.145,0-1.592-.45-1.594-1.6q-.006-3.627,0-7.254c0-1.114.456-1.558,1.576-1.559q4.521,0,9.042,0c1.079,0,1.549.465,1.551,1.54q.006,3.651,0,7.3c0,1.1-.472,1.563-1.583,1.567C2577.535,2878.518,2576.028,2878.513,2574.521,2878.513Zm-3.448-2.624h6.935v-5.2h-6.935Z" transform="translate(-349.863 -277.56)" fill="#e82d89"/>
    <path id="Контур_16072" data-name="Контур 16072" d="M2418.9,2878.511c-1.49,0-2.981,0-4.471,0-1.121,0-1.569-.452-1.57-1.565q0-3.651,0-7.3c0-1.089.45-1.542,1.534-1.543q4.546,0,9.092,0c1.056,0,1.523.464,1.524,1.507q0,3.7,0,7.4a1.31,1.31,0,0,1-1.488,1.5C2421.976,2878.519,2420.436,2878.511,2418.9,2878.511Zm3.5-7.817h-6.925v5.188h6.925Z" transform="translate(-209.739 -277.558)" fill="#e82d89"/>
    <path id="Контур_16073" data-name="Контур 16073" d="M2266.885,2953.764a1.807,1.807,0,1,1,1.812-1.792A1.812,1.812,0,0,1,2266.885,2953.764Z" transform="translate(-76.64 -351.449)" fill="#e82d89"/>
  </g>
</svg>
