<svg xmlns="http://www.w3.org/2000/svg" width="55.565" height="38.891" viewBox="0 0 55.565 38.891">
  <path id="Контур_16074" data-name="Контур 16074" d="M2283.18,2659.221h-24.3a14.454,14.454,0,0,1-.924,1.965,4.794,4.794,0,0,1-8.619-1.394c-.132-.464-.293-.612-.78-.605-2.1.03-4.2.013-6.4.013v-.554q0-15.541,0-31.082a2.845,2.845,0,0,1,3.131-3.113q16.31,0,32.621,0a2.869,2.869,0,0,1,3.135,3.167c0,2.632,0,5.264,0,7.981h.558c2.667,0,5.334.017,8-.007a2.852,2.852,0,0,1,2.9,1.916c1.035,2.456,2.117,4.893,3.145,7.351a4.146,4.146,0,0,0,1.259,1.828,2.129,2.129,0,0,1,.811,1.95c-.047,3.3-.019,6.6-.019,9.9v.664h-1.369c-1.043,0-2.087.016-3.129-.009-.346-.008-.464.121-.544.437a4.761,4.761,0,0,1-6.189,3.463,4.682,4.682,0,0,1-3.149-3.313C2283.273,2659.6,2283.231,2659.417,2283.18,2659.221Zm-38.2-31.933v22.146h33.259v-22.146Zm45.451,12.453a6.291,6.291,0,0,1-.29-.75c-.125-.533-.452-.639-.969-.633-2.512.029-5.024.013-7.537.014-.18,0-.361.016-.539.024v18.032c.69,0,1.34-.022,1.987.009a.76.76,0,0,0,.807-.45,4.482,4.482,0,0,1,2.9-2.194,4.834,4.834,0,0,1,5.4,2.29c.084.141.247.324.38.33.764.031,1.53.015,2.333.015.012-.216.028-.382.029-.548,0-2.034-.011-4.068.011-6.1,0-.415-.132-.549-.528-.612-2.48-.394-4.956-.813-7.433-1.227-.129-.021-.254-.062-.394-.1v-8.1Zm-45.467,16.688c1.446,0,2.831-.012,4.214.009a.628.628,0,0,0,.63-.385,4.788,4.788,0,0,1,8.3-.026.719.719,0,0,0,.723.41q9.437-.014,18.873-.007h.532v-4.159H2244.96Zm43.026,0a2.065,2.065,0,1,0,2.087,2.066A2.065,2.065,0,0,0,2287.986,2656.433Zm-34.022,0a2.065,2.065,0,1,0,.019,4.129,2.064,2.064,0,0,0-.019-4.129Zm35.428-13.921v3.012l3.8.631c-.517-1.2-.982-2.3-1.465-3.381a.465.465,0,0,0-.317-.251C2290.747,2642.5,2290.084,2642.512,2289.393,2642.512Z" transform="translate(-2242.163 -2624.45)" fill="#e82d89"/>
</svg>
