<svg xmlns="http://www.w3.org/2000/svg" width="52.999" height="52.739" viewBox="0 0 52.999 52.739">
  <g id="Сгруппировать_6411" data-name="Сгруппировать 6411" transform="translate(-2197.862 -2505.743)">
    <path id="Контур_16068" data-name="Контур 16068" d="M2210.969,2537.01a3.826,3.826,0,0,1-2.9,3.248,1.41,1.41,0,0,1-1.828-.924,1.364,1.364,0,0,1,1.121-1.729,1.1,1.1,0,0,0,.852-1.122,2.7,2.7,0,0,0-.934-2.022c-1.065-.918-2.178-1.781-3.246-2.7a16.918,16.918,0,0,1-5.595-7.819,10.239,10.239,0,0,1,.757-8.511,7.642,7.642,0,0,1,8.553-3.881c.359.091.709.218,1.1.341,0-1.409,0-2.785,0-4.161a1.93,1.93,0,0,1,.5-1.445,1.674,1.674,0,0,1,1.2-.536c.135,0,.27-.007.4-.007q13.414,0,26.828,0a2.176,2.176,0,0,1,1.407.352,1.887,1.887,0,0,1,.708,1.621c0,1.213,0,2.427,0,3.64v.531c.446-.13.836-.263,1.236-.358a7.191,7.191,0,0,1,7.023,2.094,9.109,9.109,0,0,1,2.7,7.166,13.358,13.358,0,0,1-3.128,7.868,24.931,24.931,0,0,1-4.832,4.534,18.771,18.771,0,0,0-1.691,1.538,2.589,2.589,0,0,0-.687,1.714,1.11,1.11,0,0,0,.954,1.173,1.371,1.371,0,0,1,.62,2.381,1.441,1.441,0,0,1-1.395.272,3.7,3.7,0,0,1-2.872-2.944c-.019-.082-.041-.162-.048-.188-.717.86-1.4,1.77-2.177,2.59a13.522,13.522,0,0,1-6.2,3.714.7.7,0,0,0-.612.815,16.278,16.278,0,0,0,2.936,9.454c.551.793,1.273,1.467,1.892,2.215a2.543,2.543,0,0,1,.575.934,1.319,1.319,0,0,1-1.254,1.616c-.1.008-.209.008-.314.008q-8.269,0-16.538,0c-1.05,0-1.727-.633-1.558-1.551a2.117,2.117,0,0,1,.621-1.049,15.242,15.242,0,0,0,3.682-5.627,16.361,16.361,0,0,0,1.091-6.329c-.006-.249-.109-.328-.327-.387a13.969,13.969,0,0,1-5.818-3.174,26.741,26.741,0,0,1-2.174-2.444A10.745,10.745,0,0,1,2210.969,2537.01Zm.663-28.487c-.008.163-.018.282-.018.4,0,6.829-.011,13.657.012,20.486a11.252,11.252,0,0,0,.3,2.709,11.605,11.605,0,0,0,8.843,8.906,16.571,16.571,0,0,0,5.269.288,11.524,11.524,0,0,0,7.826-3.642,11.668,11.668,0,0,0,3.289-8.393q.012-10.131,0-20.261v-.493Zm-2.513,23.828c-.011-.193-.016-.307-.024-.421-.08-1.058-.223-2.115-.229-3.174-.026-4.4-.014-8.808,0-13.212a.71.71,0,0,0-.339-.666,4.358,4.358,0,0,0-3.241-.772,5.443,5.443,0,0,0-4.182,3.5,7.749,7.749,0,0,0-.229,4.983,12.124,12.124,0,0,0,3.466,5.68c1.094,1.117,2.379,2.046,3.578,3.06Zm30.535.01c.493-.424.9-.811,1.348-1.153a24.949,24.949,0,0,0,4.345-3.937,11.242,11.242,0,0,0,2.736-5.752,6.643,6.643,0,0,0-2.283-6.365,4.6,4.6,0,0,0-5.473-.342.849.849,0,0,0-.438.8c.019,2.59.016,5.179.008,7.768-.007,2.395-.019,4.789-.054,7.183C2239.833,2531.133,2239.726,2531.7,2239.654,2532.361Zm-17,12.178a19.368,19.368,0,0,1-3.724,11.182h10.882a19.036,19.036,0,0,1-3.752-11.182Z" fill="#e82d89"/>
    <path id="Контур_16069" data-name="Контур 16069" d="M2432.733,2668.006c.146-.138.288-.266.423-.4q2.912-2.9,5.823-5.8a1.334,1.334,0,0,1,1.952-.136,1.371,1.371,0,0,1-.017,2.069c-1.877,1.892-3.769,3.771-5.654,5.655-.487.487-.97.979-1.465,1.458a1.4,1.4,0,0,1-2.142.005q-2.2-2.179-4.383-4.384a1.375,1.375,0,0,1-.286-1.757,1.306,1.306,0,0,1,1.581-.612,1.649,1.649,0,0,1,.59.385c1.132,1.113,2.25,2.239,3.375,3.36A2.484,2.484,0,0,0,2432.733,2668.006Z" transform="translate(-208.344 -141.579)" fill="#e82d89"/>
  </g>
</svg>
