<svg xmlns="http://www.w3.org/2000/svg" width="52.304" height="52.304" viewBox="0 0 52.304 52.304">
  <g id="Сгруппировать_2306" data-name="Сгруппировать 2306" transform="translate(-596.311 -146.393)">
    <path id="Контур_15884" data-name="Контур 15884" d="M847.5,389.133c.183.009.365.025.548.025q2.233,0,4.466,0c.67,0,.887.211.9.873.006.462.007.925,0,1.387-.01.628-.243.867-.871.869-1.893.006-3.787.017-5.679-.008-.455-.006-.588.162-.568.574.017.346.01.694.007,1.04s.149.469.5.466c1.908-.015,3.815-.007,5.723-.007.671,0,.876.2.884.872q.009.672,0,1.344c-.01.685-.236.915-.914.917-1.546,0-3.093,0-4.639,0-.124,0-.248.015-.442.028a5.967,5.967,0,0,0,1.361,1.774,5.439,5.439,0,0,0,7.506.017c.625-.542.81-.533,1.421.037.549.512,1.109,1.012,1.661,1.521.454.42.45.735,0,1.162a10.077,10.077,0,0,1-5.484,2.754,9.128,9.128,0,0,1-7.112-1.911,10.852,10.852,0,0,1-3.673-4.985.523.523,0,0,0-.6-.407c-.547.031-1.1.017-1.647,0s-.768-.221-.79-.762-.021-1.1,0-1.647.217-.716.753-.721c.347,0,.694-.009,1.04,0,.293.009.411-.082.381-.407a7.823,7.823,0,0,1,0-1.292c.021-.272-.055-.373-.322-.368-.39.006-.781.011-1.17-.012-.461-.027-.658-.215-.677-.679-.023-.591-.023-1.185,0-1.777.019-.454.239-.648.692-.657.549-.012,1.1-.025,1.647,0a.606.606,0,0,0,.7-.462,11.425,11.425,0,0,1,2.8-4.27,9.44,9.44,0,0,1,11.615-1.277,16.512,16.512,0,0,1,1.925,1.533.573.573,0,0,1,0,.969q-.942.894-1.914,1.758c-.457.408-.709.395-1.155-.023a5.433,5.433,0,0,0-8,.4,15.417,15.417,0,0,0-.949,1.216Z" transform="translate(-228.621 -220.76)" fill="#e82d89"/>
    <path id="Контур_15885" data-name="Контур 15885" d="M655.668,678.8a2.509,2.509,0,0,1-.015.3,1.1,1.1,0,0,0,.759,1.327,10,10,0,0,1,.91.5.677.677,0,0,1,.422.731.776.776,0,0,1-.577.684c-.428.129-.85.281-1.285.382a.817.817,0,0,0-.676.785c-.058.429-.154.852-.227,1.278a.688.688,0,0,1-1.3.259c-.255-.368-.518-.731-.762-1.105a.808.808,0,0,0-.89-.38c-.427.071-.859.113-1.284.191a.714.714,0,0,1-.817-.335.694.694,0,0,1,.1-.841c.225-.3.433-.616.674-.9a1.079,1.079,0,0,0,.146-1.351c-.2-.351-.342-.731-.512-1.1a.7.7,0,0,1,.1-.843.681.681,0,0,1,.8-.145c.353.126.719.219,1.064.362a1.038,1.038,0,0,0,1.29-.258c.273-.3.6-.547.892-.821a.709.709,0,0,1,.833-.169.738.738,0,0,1,.4.757C655.706,678.34,655.682,678.57,655.668,678.8Z" transform="translate(-50.086 -497.635)" fill="#e82d89"/>
    <path id="Контур_15886" data-name="Контур 15886" d="M1132.949,199.238c-.089.644-.15,1.131-.225,1.615a.792.792,0,0,0,.378.85c.36.239.71.5,1.068.738a.721.721,0,0,1,.382.8c-.084.366-.367.49-.7.546-.384.065-.766.14-1.151.2a.923.923,0,0,0-.839.75c-.105.419-.242.83-.361,1.245a.7.7,0,0,1-.589.56.663.663,0,0,1-.7-.408c-.218-.39-.459-.769-.653-1.171a.877.877,0,0,0-.944-.526c-.432.026-.865.027-1.3.052a.688.688,0,0,1-.74-.406.758.758,0,0,1,.157-.879c.317-.355.631-.713.961-1.056a.66.66,0,0,0,.158-.75c-.161-.447-.308-.9-.455-1.352a.739.739,0,0,1,.17-.838.7.7,0,0,1,.844-.069c.389.188.788.356,1.174.55a.929.929,0,0,0,1.119-.107c.342-.286.717-.535,1.076-.8a.613.613,0,0,1,.8-.073A2.006,2.006,0,0,1,1132.949,199.238Z" transform="translate(-497.052 -48.847)" fill="#e82d89"/>
    <path id="Контур_15887" data-name="Контур 15887" d="M774.79,810.13a.723.723,0,0,1-.767-.814c.055-.443.114-.888.2-1.326a.869.869,0,0,0-.412-1c-.365-.232-.715-.488-1.068-.739a.683.683,0,0,1-.352-.729.7.7,0,0,1,.629-.568c.454-.083.907-.17,1.361-.249a.779.779,0,0,0,.665-.6c.133-.457.277-.91.411-1.366a.684.684,0,0,1,.588-.557.674.674,0,0,1,.7.409c.228.4.465.8.673,1.209a.807.807,0,0,0,.839.479c.461-.022.924-.014,1.385-.039a.663.663,0,0,1,.716.372.768.768,0,0,1-.125.886c-.31.342-.612.692-.93,1.026a.758.758,0,0,0-.192.866c.167.445.3.9.457,1.352a.6.6,0,0,1-.215.768,1.071,1.071,0,0,1-.75.084,5.785,5.785,0,0,1-1.179-.533.984.984,0,0,0-1.262.14,10.69,10.69,0,0,1-.973.722A2.765,2.765,0,0,1,774.79,810.13Z" transform="translate(-165.057 -614.781)" fill="#e82d89"/>
    <path id="Контур_15888" data-name="Контур 15888" d="M1129.3,803.745c.2.022.291.028.377.042a1.1,1.1,0,0,0,1.349-.721,4.163,4.163,0,0,1,.575-1.013.876.876,0,0,1,.63-.336.844.844,0,0,1,.557.447,12.349,12.349,0,0,1,.509,1.47.788.788,0,0,0,.675.587,8.548,8.548,0,0,1,1.274.238,1.15,1.15,0,0,1,.626.495c.161.316-.027.607-.321.807-.358.244-.7.506-1.069.738a.842.842,0,0,0-.393,1c.1.407.165.821.268,1.226a.672.672,0,0,1-.306.783.642.642,0,0,1-.8-.051c-.371-.275-.748-.542-1.115-.822a.92.92,0,0,0-1.05-.105c-.413.205-.837.388-1.256.582a.7.7,0,0,1-.841-.106.689.689,0,0,1-.134-.8c.143-.408.264-.825.411-1.231a.886.886,0,0,0-.2-.994,9.5,9.5,0,0,1-.945-1.069.885.885,0,0,1-.143-.733,1.131,1.131,0,0,1,.672-.422A2.112,2.112,0,0,1,1129.3,803.745Z" transform="translate(-498.397 -614.345)" fill="#e82d89"/>
    <path id="Контур_15889" data-name="Контур 15889" d="M1253.754,328.793c.3-.872-.16-1.386-.973-1.716a2.112,2.112,0,0,1-.672-.386c-.18-.173-.407-.45-.378-.646a.961.961,0,0,1,.515-.6,8.688,8.688,0,0,1,1.4-.436.7.7,0,0,0,.572-.623c.07-.427.162-.85.227-1.278.057-.37.188-.678.591-.76s.611.168.8.458c.232.348.477.687.714,1.032a.766.766,0,0,0,.9.339c.419-.105.846-.18,1.267-.28a.689.689,0,0,1,.791.3.647.647,0,0,1-.042.8c-.272.373-.543.747-.822,1.115a.944.944,0,0,0-.109,1.054c.2.416.388.837.583,1.255a.7.7,0,0,1-.1.842.687.687,0,0,1-.8.137c-.379-.139-.775-.235-1.146-.391a.968.968,0,0,0-1.172.26c-.294.3-.617.565-.926.847-.243.221-.545.373-.815.154a1.416,1.416,0,0,1-.394-.7A3.154,3.154,0,0,1,1253.754,328.793Z" transform="translate(-614.531 -164.923)" fill="#e82d89"/>
    <path id="Контур_15890" data-name="Контур 15890" d="M1258.962,682.265c-.647-.089-1.123-.131-1.588-.226a.778.778,0,0,0-.884.374c-.25.37-.517.73-.765,1.1a.689.689,0,0,1-.766.358.718.718,0,0,1-.546-.654c-.08-.44-.159-.88-.232-1.32a.814.814,0,0,0-.627-.694,10.047,10.047,0,0,1-1.358-.426.962.962,0,0,1-.518-.592c-.029-.2.192-.5.384-.642a6.114,6.114,0,0,1,1.122-.645.907.907,0,0,0,.571-1c-.034-.387-.032-.778-.052-1.166a.709.709,0,0,1,.411-.783.767.767,0,0,1,.87.2,9.559,9.559,0,0,0,1.069.944,1.15,1.15,0,0,0,.783.157,9.55,9.55,0,0,0,1.315-.42.735.735,0,0,1,.836.167.691.691,0,0,1,.068.843c-.2.432-.4.864-.6,1.3a.8.8,0,0,0,.117.925,8.274,8.274,0,0,1,.828,1.052.924.924,0,0,1,.08.745C1259.384,682.072,1259.076,682.184,1258.962,682.265Z" transform="translate(-614.483 -496.323)" fill="#e82d89"/>
    <path id="Контур_15891" data-name="Контур 15891" d="M651.378,325.86c.644.088,1.131.143,1.615.223a.807.807,0,0,0,.878-.4c.229-.35.482-.684.712-1.033a.723.723,0,0,1,.792-.394c.373.076.5.36.557.689.07.383.156.764.2,1.15a.912.912,0,0,0,.773.861c.406.1.8.233,1.2.351a.7.7,0,0,1,.575.622.677.677,0,0,1-.431.684c-.417.23-.827.47-1.246.7a.747.747,0,0,0-.425.74c.017.432.042.864.06,1.3a.762.762,0,0,1-.371.812.749.749,0,0,1-.907-.18c-.33-.3-.668-.6-.991-.9a.8.8,0,0,0-.94-.2c-.413.168-.847.281-1.268.43a.709.709,0,0,1-.826-.2.679.679,0,0,1-.058-.807c.209-.443.407-.892.616-1.335a.767.767,0,0,0-.113-.884,8.229,8.229,0,0,1-.827-1.053,1.018,1.018,0,0,1-.086-.786C650.946,326.04,651.262,325.939,651.378,325.86Z" transform="translate(-51.017 -166.701)" fill="#e82d89"/>
    <path id="Контур_15892" data-name="Контур 15892" d="M779.162,205.67a1.338,1.338,0,0,0-1.761.959,6.917,6.917,0,0,1-.4.718.66.66,0,0,1-.7.4.679.679,0,0,1-.587-.559c-.128-.428-.261-.856-.373-1.289a.852.852,0,0,0-.783-.691c-.429-.059-.852-.153-1.279-.227-.325-.056-.571-.253-.561-.562a1.08,1.08,0,0,1,.321-.689,7.616,7.616,0,0,1,1.092-.778.851.851,0,0,0,.418-.957c-.077-.426-.116-.859-.192-1.285a.694.694,0,0,1,.332-.778.672.672,0,0,1,.839.092c.314.256.63.508.942.766a.884.884,0,0,0,1.042.132c.413-.2.839-.384,1.258-.579a.712.712,0,0,1,.846.085.676.676,0,0,1,.15.8c-.139.394-.251.8-.4,1.188a.936.936,0,0,0,.2,1.073,7.344,7.344,0,0,1,.863,1.026,1.144,1.144,0,0,1,.153.784c-.073.325-.4.427-.729.416C779.623,205.7,779.392,205.684,779.162,205.67Z" transform="translate(-165.379 -50.007)" fill="#e82d89"/>
    <path id="Контур_15893" data-name="Контур 15893" d="M951.141,153.272c.093-.371.181-.826.323-1.263a1.011,1.011,0,0,0-.386-1.252c-.3-.224-.57-.488-.859-.728-.259-.215-.42-.516-.255-.8a1.106,1.106,0,0,1,.665-.435,8.294,8.294,0,0,1,1.292-.107.847.847,0,0,0,.821-.587c.147-.391.327-.769.484-1.156a.772.772,0,0,1,.7-.554.707.707,0,0,1,.7.541c.155.4.35.792.5,1.2a.758.758,0,0,0,.742.549c.475.025.95.072,1.425.1.3.018.583.126.607.438a1.054,1.054,0,0,1-.2.729,9.146,9.146,0,0,1-1.123.948.766.766,0,0,0-.295.841c.1.464.207.929.305,1.394a.693.693,0,0,1-.264.8.676.676,0,0,1-.807-.038,5.866,5.866,0,0,1-.657-.417,1.369,1.369,0,0,0-1.976.009,3.852,3.852,0,0,1-.811.493C951.586,154.213,951.11,153.881,951.141,153.272Z" transform="translate(-331.484)" fill="#e82d89"/>
    <path id="Контур_15894" data-name="Контур 15894" d="M603.972,500.978c-.048.1-.121.266-.216.424-.207.347-.418.692-.639,1.03a.868.868,0,0,0-.008,1.013c.245.392.482.788.733,1.175a.669.669,0,0,1-.766,1.032c-.43-.121-.873-.2-1.3-.328a.861.861,0,0,0-1.023.346,6.283,6.283,0,0,1-.774.93,1,1,0,0,1-.746.256.866.866,0,0,1-.455-.589,7.281,7.281,0,0,1-.123-1.333.9.9,0,0,0-.62-.852q-.6-.253-1.2-.5a.754.754,0,0,1-.529-.721.718.718,0,0,1,.533-.665c.426-.176.846-.369,1.276-.536a.663.663,0,0,0,.466-.613,13.768,13.768,0,0,1,.133-1.507,1.049,1.049,0,0,1,.419-.624.584.584,0,0,1,.764.217q.477.56.937,1.136a.722.722,0,0,0,.8.276c.519-.124,1.041-.239,1.568-.322A.675.675,0,0,1,603.972,500.978Z" transform="translate(0 -330.367)" fill="#e82d89"/>
    <path id="Контур_15895" data-name="Контур 15895" d="M951.173,859.063a3.5,3.5,0,0,1,.391.183c.372.222.737.455,1.1.686a.842.842,0,0,0,.975,0,10.048,10.048,0,0,1,1.221-.738,1.029,1.029,0,0,1,.757,0c.288.128.329.44.244.754-.124.459-.226.925-.349,1.385a.787.787,0,0,0,.26.858c.347.305.7.6,1.049.906a.682.682,0,0,1,.267.766.707.707,0,0,1-.7.479c-.432.03-.864.074-1.3.085a.816.816,0,0,0-.795.556c-.156.373-.318.743-.468,1.117a.8.8,0,0,1-.752.612c-.405.007-.575-.27-.708-.594-.165-.4-.349-.793-.5-1.2a.7.7,0,0,0-.69-.487c-.461-.023-.922-.063-1.383-.091a.673.673,0,0,1-.7-.469.7.7,0,0,1,.3-.793c.353-.276.693-.57,1.058-.827a.8.8,0,0,0,.326-.947c-.119-.476-.252-.949-.344-1.43A.661.661,0,0,1,951.173,859.063Z" transform="translate(-330.704 -668.017)" fill="#e82d89"/>
    <path id="Контур_15896" data-name="Контур 15896" d="M1310.653,501.219c.421.1.9.213,1.371.344a.906.906,0,0,0,1.07-.341c.261-.346.549-.67.821-1.007a.6.6,0,0,1,.762-.236,1.028,1.028,0,0,1,.442.614,9.016,9.016,0,0,1,.129,1.421.762.762,0,0,0,.518.724c.426.177.85.359,1.274.54.3.126.53.3.517.668a.747.747,0,0,1-.52.68,14.486,14.486,0,0,0-1.344.593.94.94,0,0,0-.418.573,14.364,14.364,0,0,0-.136,1.551c-.022.306-.161.575-.463.593a1.077,1.077,0,0,1-.723-.233,7.279,7.279,0,0,1-.86-1.028.836.836,0,0,0-1.018-.343c-.426.134-.87.208-1.3.329a.655.655,0,0,1-.769-.237.669.669,0,0,1,0-.81c.236-.38.47-.761.712-1.139a.9.9,0,0,0,0-1.052c-.258-.4-.52-.8-.745-1.219A.649.649,0,0,1,1310.653,501.219Z" transform="translate(-668.944 -331.376)" fill="#e82d89"/>
  </g>
</svg>
