<svg xmlns="http://www.w3.org/2000/svg" width="61.291" height="61.234" viewBox="0 0 61.291 61.234">
  <g id="Сгруппировать_2382" data-name="Сгруппировать 2382" transform="translate(0)">
    <path id="Контур_15932" data-name="Контур 15932" d="M652.869,555.126h21.51v18.259c.835.056,1.55.078,2.26.155a6.092,6.092,0,0,1-.6,12.145q-24.672.014-49.344,0a6.092,6.092,0,0,1-.7-12.124,14.869,14.869,0,0,1,1.877-.1q11.791-.01,23.582,0h1.417Zm-1.39,27.518q12.089,0,24.179-.011a3.963,3.963,0,0,0,1.533-.27,2.95,2.95,0,0,0,1.731-3.326,3.1,3.1,0,0,0-3.325-2.5q-24.179-.005-48.358,0c-2.036,0-3.433,1.256-3.423,3.047.01,1.855,1.34,3.058,3.384,3.059Zm4.576-9.268h15.2V558.185h-6.1v4.422h-3.045v-4.432h-6.057Z" transform="translate(-620.747 -524.459)" fill="#e82d89"/>
    <path id="Контур_15933" data-name="Контур 15933" d="M700.154,260.552V239.241H721.51v21.311Zm3.063-3.037h15.2V242.334h-6.061v4.4h-3.1v-4.41h-6.041Z" transform="translate(-692.445 -239.241)" fill="#e82d89"/>
    <path id="Контур_15934" data-name="Контур 15934" d="M719.508,505.484l2.275-2.028,4.936,5.465V492.3h3.1v16.3l.24.133,4.774-5.269,2.282,2.012c-2.094,2.332-4.259,4.521-6.147,6.927-1.115,1.421-2.437,1.284-3.86,1.236a.943.943,0,0,1-.558-.335C724.227,510.738,721.915,508.161,719.508,505.484Z" transform="translate(-709.92 -467.728)" fill="#e82d89"/>
    <path id="Контур_15938" data-name="Контур 15938" d="M1143.2,794.775a1.5,1.5,0,1,1,1.623-1.475A1.5,1.5,0,0,1,1143.2,794.775Z" transform="translate(-1091.175 -738.138)" fill="#e82d89"/>
    <path id="Контур_15939" data-name="Контур 15939" d="M701.346,794.743a1.425,1.425,0,0,1-1.428-1.54,1.448,1.448,0,0,1,1.528-1.458,1.516,1.516,0,0,1,1.494,1.609A1.473,1.473,0,0,1,701.346,794.743Z" transform="translate(-692.231 -738.106)" fill="#e82d89"/>
    <path id="Контур_15940" data-name="Контур 15940" d="M1032.75,794.764a1.48,1.48,0,0,1-1.463-1.525,1.519,1.519,0,1,1,3.035.121A1.44,1.44,0,0,1,1032.75,794.764Z" transform="translate(-991.43 -738.127)" fill="#e82d89"/>
    <path id="Контур_15941" data-name="Контур 15941" d="M923.891,793.317a1.512,1.512,0,0,1-3.022-.029,1.511,1.511,0,1,1,3.022.029Z" transform="translate(-891.731 -738.13)" fill="#e82d89"/>
    <path id="Контур_15942" data-name="Контур 15942" d="M813.447,793.287a1.446,1.446,0,0,1-1.509,1.467,1.417,1.417,0,0,1-1.508-1.461,1.459,1.459,0,0,1,1.549-1.535A1.484,1.484,0,0,1,813.447,793.287Z" transform="translate(-792.015 -738.117)" fill="#e82d89"/>
  </g>
</svg>
