<svg xmlns="http://www.w3.org/2000/svg" width="97.043" height="55.007" viewBox="0 0 97.043 55.007">
  <path id="Контур_15972" data-name="Контур 15972" d="M894.628,518.7a2.818,2.818,0,0,1-3.319,2.631,3.915,3.915,0,0,1-2.372-1.1,1.076,1.076,0,0,0-.871-.228c-.475.1-.906.389-1.373.536a7.663,7.663,0,0,1-2.639.7A5.754,5.754,0,0,1,881,519.781a5.822,5.822,0,0,1-.911-1.3c-.058-.084-.114-.205-.2-.23-.736-.228-1.474-.457-2.22-.649a1.737,1.737,0,0,1-1.286-1.541c-.084-.435-.051-.892-.128-1.329-.118-.663-.271-1.322-.452-1.97-.027-.1-.284-.14-.44-.192a7.452,7.452,0,0,1-1.94-.666,7.572,7.572,0,0,1-1.657-1.769,4.17,4.17,0,0,1-.417-1.251l-3.93-.888-1.578.856-.105-.125c-.022.135-.051.268-.064.4a1.778,1.778,0,0,1-2.7,1.52c-.888-.471-1.914-.823-2.349-1.9a.836.836,0,0,0-.619-.338,3.446,3.446,0,0,1-2.237-1.5,2.106,2.106,0,0,1-.344-1.093,1.539,1.539,0,0,0-1.235-1.266.429.429,0,0,0-.286.1,2.032,2.032,0,0,1-2.244.35c-.142.725-.3,1.442-.419,2.165a1.821,1.821,0,0,1-2.072,1.759c-.354,0-.708-.055-1.106-.088a1.852,1.852,0,0,1-1.507,1.908c-.012.091-.019.161-.031.23a2.118,2.118,0,0,1-2.015,1.935,2.33,2.33,0,0,1-2.481-1.838c-.168-.776-.283-1.564-.439-2.343a1.031,1.031,0,0,0-.21-.341,4.489,4.489,0,0,1-.519-.736c-.377-.877-.71-1.774-1.067-2.659a8.079,8.079,0,0,1-.7-1.752,31.181,31.181,0,0,1-.269-3.785,1.631,1.631,0,0,1,2.426-1.444.578.578,0,0,0,.419.039,4.344,4.344,0,0,1,3.317-.3,2.433,2.433,0,0,0-.32-.689,2.186,2.186,0,0,1-.5-2.505,9.009,9.009,0,0,0,.216-1.223c.067-.382.138-.764.219-1.211a1.471,1.471,0,0,1-.526-1.6,2.558,2.558,0,0,1,.662-.832,3.31,3.31,0,0,1,.607-.416,3.394,3.394,0,0,1,.913-.529,1.356,1.356,0,0,0,.806-.6,1.593,1.593,0,0,0,.348-1.479,1.8,1.8,0,0,1,.764-1.827,6.976,6.976,0,0,0,1-.949,2.767,2.767,0,0,1,1.6-.885,4.273,4.273,0,0,0,.581-.252c.344-.136.7-.252,1.038-.4a3.312,3.312,0,0,0,.768-.392,1.8,1.8,0,0,1,1.6-.386c.607.137,1.218.254,1.8.373a11.583,11.583,0,0,1,2.727-2.4,6.21,6.21,0,0,0,.819-.653c.688-.725,1.647-1.094,2.308-1.9a2.147,2.147,0,0,1,1.682-.448,7.479,7.479,0,0,1,2.235.778,1.871,1.871,0,0,1,.92,1.657c.06.612.115,1.225.162,1.838.057.743.1,1.487.152,2.248.329.047.683.071,1.023.152a1.612,1.612,0,0,1,1.338,1.473c.037.254-.006.64.137.732a3.6,3.6,0,0,0,1.055.321,4.263,4.263,0,0,1,1.167.3,2.5,2.5,0,0,1,.772.909c.155.271.36.43.586.288a2.222,2.222,0,0,1,2.907.43c.513-.348.994-.65,1.447-.988.37-.277.706-.6,1.058-.9a2.335,2.335,0,0,1,3.463.44,4.383,4.383,0,0,0,.7.607c.512-.98,1.353-1,2.211-.946a.8.8,0,0,0,.854-.434,3.373,3.373,0,0,1,2.12-1.513c.374-.1.726-.281,1.1-.4a1.764,1.764,0,0,1,.869-.192c.633.177.831-.2,1.118-.617a3.863,3.863,0,0,1,.978-.97,1.887,1.887,0,0,1,2.6.36,1.145,1.145,0,0,0,.608.33,3.282,3.282,0,0,1,2.213,1.179,10.283,10.283,0,0,1,.867,2.178l.858.22c.614-1.076,1.845-1.047,2.9-1.244a2.061,2.061,0,0,1,1.876,1.053c.2.266.41.461.741.274.307-.174.65-.306.663-.782a3.04,3.04,0,0,1,2.624-2.976,1.131,1.131,0,0,0,.523-.206,2.587,2.587,0,0,1,3-.477,3.083,3.083,0,0,1,2.064-1.79c.411-.08.848-.021,1.27-.064a.838.838,0,0,0,.5-.215,14.641,14.641,0,0,0,1.056-1.308,1.977,1.977,0,0,0,.177-.6,4.248,4.248,0,0,1,.326-1.062,9.463,9.463,0,0,1,4.022-3.935c.9-.411,1.756-.923,2.628-1.395a.535.535,0,0,0,.17-.188c.026-.042.011-.107.029-.156a4.551,4.551,0,0,1,3.2-1.948,1.852,1.852,0,0,1,1.514,1.343,1.331,1.331,0,0,0,.476.635c1.463.942,1.637,1.955.494,3.292-.432.506-.925.96-1.485,1.534.015.252.224.45.671.394a2.712,2.712,0,0,1,.48.02c2.16.121,2.256,1.972,1.62,3.195a2.837,2.837,0,0,0-.055,1.586c.127.878.335,1.746.549,2.609a1.872,1.872,0,0,1-.847,2.392.487.487,0,0,0-.2.227c-.18.664-.335,1.336-.519,2-.084.3.083.344.306.434.4.163.781.382,1.169.578a5.816,5.816,0,0,0,.563.285,2.158,2.158,0,0,1,1.479,1.859.814.814,0,0,0,.21.495,2.162,2.162,0,0,1,.714,2.117,1.8,1.8,0,0,0,.142.668,4,4,0,0,1,.327,1.044,2.713,2.713,0,0,0,.311,1.263,7.214,7.214,0,0,1,.493,1.351,1.894,1.894,0,0,1-.7,2.1,1.742,1.742,0,0,1-2.191.172c-1.788-1.288-3.791-2.309-5.251-4.012a11.84,11.84,0,0,1-1.062-1.763c-.069-.117-.129-.239-.233-.432a3.57,3.57,0,0,0-.43.608,1.42,1.42,0,0,1-1.168.916c-.732.086-1.087.583-1.556,1.04-.7.677-1.126,1.662-2.2,1.949-.177.048-.332.43-.375.68-.181,1.026-.331,2.058-.46,3.092-.066.526-.063,1.06-.094,1.629a9.991,9.991,0,0,0,1.007-.243c.091-.031.158-.208.185-.329a1.889,1.889,0,0,1,1.48-1.577,1.8,1.8,0,0,1,1.895.81,6.242,6.242,0,0,0,.951,1.006,2.383,2.383,0,0,1,.989,1.336c.059.246.434.43.685.616.774.571,1.556,1.13,2.338,1.69a2.133,2.133,0,0,0,.371.211c1.643.735,1.795,2.106.283,3.248a7.619,7.619,0,0,0,.745.3A2.276,2.276,0,0,1,934.7,513.2a2.028,2.028,0,0,1-.82,2.121.99.99,0,0,0-.227.276,1.723,1.723,0,0,1-2.351.682,3.154,3.154,0,0,1-1.825-2.59.67.67,0,0,0-.048-.2c-.01-.024-.055-.035-.133-.081-.039.816-.066,1.6-.118,2.392-.075,1.136-.113,2.279-.268,3.4a4.136,4.136,0,0,1-2.185,3.358,6.462,6.462,0,0,0-1.558.995,2,2,0,0,1-2.268.2,1.393,1.393,0,0,1-.865-1.574,2.531,2.531,0,0,0-.41-1.918,1.453,1.453,0,0,1,.244-1.605c.3-.42.625-.822.878-1.153a6.659,6.659,0,0,1-1.615.071,2.349,2.349,0,0,1-1.218-.7,1.138,1.138,0,0,0-1.135-.321,3.026,3.026,0,0,1-1.46-.058,14.215,14.215,0,0,1-2.412-1.441,1.6,1.6,0,0,1-.481-.969c-.075-.432-.277-.589-.669-.572-.354.015-.707.057-1.025.083-.164,1.253-.285,2.461-.489,3.656a3.569,3.569,0,0,1-1.856,2.49,1.274,1.274,0,0,1-.716.175c-.817-.079-1.63-.209-2.494-.326-.5,1.139-1.673,1.427-2.626,1.744a4.988,4.988,0,0,1-3.685-.269c-.511-.242-1.012-.506-1.532-.725a.622.622,0,0,0-.445.077c-1.475.75-2.789.174-3.829-1.228C894.956,519.051,894.829,518.926,894.628,518.7ZM929.6,484.892a6.99,6.99,0,0,0,.369-1.065,4.223,4.223,0,0,0,.054-1.239c-.106-.861-.271-1.716-.421-2.571-.039-.219-.114-.43-.176-.657-.867.437-1.466.423-2.016-.111a2.114,2.114,0,0,1-.577-2.437l-1.247-1.964c-.568.391-1.229.82-1.861,1.291-.251.187-.28.407-.026.715a1.969,1.969,0,0,1-.931,3.132,2.435,2.435,0,0,0-1.743,1.646,2.214,2.214,0,0,1-1.232,1.273,2.425,2.425,0,0,1-2.369.017,3.135,3.135,0,0,1-3.02,1.813.981.981,0,0,0-.756.255,1.99,1.99,0,0,1-1.726,1.023c-.361,1.188-.733,2.3-2.231,2.4-.185.013-.432.3-.507.508a1.684,1.684,0,0,1-1.2,1.185,3.032,3.032,0,0,1-2.783-.721c-.315-.259-.606-.547-.886-.8a4.231,4.231,0,0,1-3.277.51.675.675,0,0,0-.468.089,2,2,0,0,1-1.638.263.628.628,0,0,0-.4-.023,13.127,13.127,0,0,0-1.193.691,1.62,1.62,0,0,1-1.9.039,1.575,1.575,0,0,1-.65-1.83,10.422,10.422,0,0,1,1.134-1.713c.18-.256.393-.489.566-.7a1.586,1.586,0,0,0-1.778.025,8.594,8.594,0,0,1-1.688.605,15.113,15.113,0,0,1-1.554.253,6.448,6.448,0,0,1-.816,1.706,6.514,6.514,0,0,1-1.624.936c-.033.183-.1.51-.148.84a9.072,9.072,0,0,0-.175,1.66,1.991,1.991,0,0,1-.944,2,2.084,2.084,0,0,1-2.3-.235,3.589,3.589,0,0,0-.36-.215c.112.386.191.65.266.915a1.723,1.723,0,0,1-.817,1.917,1.45,1.45,0,0,1-1.8-.3c-.26-.238-.532-.464-.795-.692-.132.089-.216.151-.306.2a3.118,3.118,0,0,1-4.026-.254,2.123,2.123,0,0,1-.408-2.8.932.932,0,0,0,.127-1.054,1.087,1.087,0,0,0-1.324-.821,2.149,2.149,0,0,1-1.781-.523,5.384,5.384,0,0,0-1.07-.538c-.449-.235-1.028-.384-1.3-.754a1.612,1.612,0,0,0-1.884-.6,2.429,2.429,0,0,1-1.85-.283,2.973,2.973,0,0,0-.542-.163c-.465-.154-.925-.325-1.394-.466a.822.822,0,0,0-.542-.04,2.048,2.048,0,0,1-2.137-.017.987.987,0,0,0-.436-.17,2.683,2.683,0,0,1-2.484-2.6,5.256,5.256,0,0,1-3.157.32c-.836,1.357-1.718,1.518-3.159.613l-1.651,1c.338,1.273.146,2.127-.757,2.729a1.176,1.176,0,0,0-.583,1.1,1.651,1.651,0,0,1-.65,1.4.83.83,0,0,0-.413.737,1.866,1.866,0,0,1-.141.512c-.19.635-.385,1.269-.569,1.905a.579.579,0,0,0,.027.253c.19.914.4,1.825.564,2.744a1.9,1.9,0,0,1-.041.795,3.947,3.947,0,0,1-3,2.664c-1.035.336-2.134.48-3.284.726a3.144,3.144,0,0,0,.145.851c.33.695.719,1.36,1.079,2.041a1,1,0,0,1,.146.4,1.852,1.852,0,0,0,.872,1.413c.745-1.206,2.112-1.126,3.2-1.515a4.467,4.467,0,0,1,.819-2.84,7.8,7.8,0,0,1,1.2-.951,3.211,3.211,0,0,1,2.933-.526,15.2,15.2,0,0,0,2.484.461,3.506,3.506,0,0,1,2.976,1.992c.52.885.736,1.951,1.9,2.416.541.215.876.439,1.454.117a2.6,2.6,0,0,0,1.133-.874,1.771,1.771,0,0,1,2.219-.65c.575.229,1.144.48,1.737.65a10.383,10.383,0,0,0,3.561.569,3.612,3.612,0,0,1,2.7,1.3,1.629,1.629,0,0,1,.315.936,1.32,1.32,0,0,0,1.44,1.353,8.066,8.066,0,0,1,.96.061,1.716,1.716,0,0,1,1.588,2,.8.8,0,0,0,.037.359c.146.677.321,1.349.443,2.031.129.728.457,1.086,1.2,1.112a2.174,2.174,0,0,1,2.24,1.412,2.417,2.417,0,0,0,1.568,1.532,2.281,2.281,0,0,1,1.7-.645,1.432,1.432,0,0,0,.62-.129c1.568-.832,2.967-.275,4.406.459.253-.609.52-1.279.808-1.94a1.634,1.634,0,0,1,2.808-.313,1.256,1.256,0,0,0,.618.439,3.263,3.263,0,0,1,2.388,1.679,4.762,4.762,0,0,1,4.214.569,1.562,1.562,0,0,0,1.786.063,6.616,6.616,0,0,0,.943-.67,3.313,3.313,0,0,1,2.4-1.11l1.763.134a9.428,9.428,0,0,1,.127-1,1.758,1.758,0,0,0-.147-1.267,1.637,1.637,0,0,1,.236-1.86,4.594,4.594,0,0,1,3.009-1.888c2.968-.36,4.465.564,6.011,2.859a.84.84,0,0,0,.5.249c1.01.2,2.116-.023,3.05.776.241-.307.463-.575.67-.855a1.941,1.941,0,0,1,1.988-.982,1.76,1.76,0,0,1,1.392,1.517,5.144,5.144,0,0,0,.363.848,10.075,10.075,0,0,0,.087-2.305,4.139,4.139,0,0,0-.442-1.505,7.562,7.562,0,0,1-1.153-2.848c-.009-.1-.158-.274-.208-.263a.7.7,0,0,0-.393.229,1.779,1.779,0,0,1-2.028.716c-.7-.168-1.394-.367-2.085-.573a1.83,1.83,0,0,1-1.269-2.406c.6-1.419.331-2.959.785-4.39a5.1,5.1,0,0,0,.216-1.74,3.622,3.622,0,0,1,1.71-3.2,6.283,6.283,0,0,0,2-1.9c.279-.5.942-.775,1.417-1.17a.58.58,0,0,0,.233-.393,5.5,5.5,0,0,0-.252-1.309,3.419,3.419,0,0,1,.872-3.865c.212-.219.522-.435.4-.9a2.455,2.455,0,0,1,1.342-2.711A2,2,0,0,1,929.6,484.892Zm2.215,7.424a2.585,2.585,0,0,0,1.284,3.061C933.366,494.063,932.191,493.37,931.818,492.316Z" transform="translate(-840.835 -469)" fill="#e82d89"/>
</svg>
