<svg xmlns="http://www.w3.org/2000/svg" width="280.011" height="126.797" viewBox="0 0 280.011 126.797">
  <g id="Сгруппировать_1984" data-name="Сгруппировать 1984" transform="translate(267.633 132.079) rotate(-173)">
    <path id="Контур_6846" data-name="Контур 6846" d="M5.68,89.656a10.789,10.789,0,0,1,.654-4.4c.328-.608-.664-1.688-.811-2.465-.461-.439-.41-.039-.572-.052-.555-.044-1.2.162-1.758-.423-.67-.7-.02-.969.19-1.333A11.755,11.755,0,0,0,5.063,77.8c.171-.619.641-.79,1.515-.585,1.715.408,1.682.343,1.73-1.329.007-.255.177-.323.287-.466.091-.12.086-.275-.066-.484-.452-.508-.64.275-1.111-.306-.027-.068-.079-.143-.073-.186a5.043,5.043,0,0,1,2.883-4.055c.5-.24.224-1.487-.347-2.15-.451-.52-.707-.23-.964-.163-.683.169-1.252.277-2.082-.788-.393-.509-1.135-1.045-1.63-.42a4.227,4.227,0,0,1-1.334.783c-.478-.691.049-.849-.02-1.284-.052-.336.019-.657-.464-.737-.946-.154-.94-1.01-1.368-1.538a10.715,10.715,0,0,1-.061-2.358A2.508,2.508,0,0,0,2.234,59.8c-.433-.4-.893-.3-1.343-.492-.393-.17-.849-.242-.877-.789-.019-.366-.087-.887.451-.787.782.149.78-.3.867-.893a3.67,3.67,0,0,1,.824-1.451c1.234-1.711,2.764-3.209,3.779-5.173.255-.51.66-1.146,1.658-.263.347.31,1.516-1.022,1.521-1.681,0-.186-.185-.467-.126-.59.3-.626,1.577-.2,1.291-1.551-.215-1.022.777-1.26,1.206-1.871a10.07,10.07,0,0,1,1.582-1.612c.542-.5,1.328.072,1.922.161.083-.148.112-.2.142-.25.454-.79-.955-2.2.261-2.851.734-.39,1.122-1.359,1.786-1.9,2.279-1.9,4.691-3.681,7.04-5.51a23.132,23.132,0,0,1,4.626-3.153,20.009,20.009,0,0,0,4.221-2.42c.131-.109.371-.243.486-.166,1.132.765,1.631-.235,2.223-.682a20.843,20.843,0,0,1,5.706-2.875,24.51,24.51,0,0,0,2.988-1.743c1.643-.826,3.158-1.955,5.214-1.609a2.132,2.132,0,0,0,1.447-.513,5.265,5.265,0,0,1,3.534-1.235c1.832.227,2.744-1.472,4.141-2.111,2.186-1.007,3.987-2.912,6.423-3.4,3.29-.706,6.476-1.825,9.783-2.52,1.2-.258,2.313-.892,3.63-.825.614.032,1.093-.12,1.6.591.353.493.743.395,1.093.045A12.677,12.677,0,0,1,87.71,6.4a7.091,7.091,0,0,1,2.944-.077c1.845.331,3.58-.325,5.364-.647,3.078-.515,5.916-2.153,9.2-1.9,1.1.076,2.236-.459,3.311-.465,1.479,0,2.527-1.141,3.921-1.228a25.289,25.289,0,0,0,4.276-.448,3.856,3.856,0,0,1,3.268.2,1.89,1.89,0,0,0,2.051-.36c1.608-1.248,3.444-.919,5.241-.479.442.11.743.3,1.1-.213a1.781,1.781,0,0,1,2.18-.633c1.163.5,2.42.027,3.5.888.217.173.508.325.689.139,1.46-1.51,2.9-.395,4.335.279-.1.52-.733.521-.743,1.259a3.659,3.659,0,0,0,3.142.5c1.047-.42,1.922.659,2.957.516.381-.056.848.372,1.24.13,1.752-1.08,3.688-.571,5.535-.855a24.58,24.58,0,0,1,5.506.026c2,.157,3.986.529,5.989.616a8.473,8.473,0,0,1,3.843.991,13.427,13.427,0,0,0,4.714,1.683l10.62,1.476a47.2,47.2,0,0,1,7.448,1.395c4.74,1.211,9.337,2.9,14.041,4.3a39.941,39.941,0,0,1,8.672,3.469,9.045,9.045,0,0,0,1.775.6c4.307,1.361,8.168,3.766,12.18,5.765,1.954.955,3.873,2.017,5.734,3.123,2.149,1.258,4.3,2.528,6.381,3.9,2.664,1.813,5.453,3.451,7.991,5.444,1.864,1.556,4,2.768,5.618,4.6.566.66,1.423.688,2.063,1.193a18.541,18.541,0,0,1,2.841,3.594,13.232,13.232,0,0,1-4.131-2.551,67.4,67.4,0,0,0-11.72-8.661c-2.24-1.306-4.335-2.819-6.479-4.292-2.919-1.99-6.191-3.31-9.281-4.973-2.038-1.036-4.17-1.886-6.13-3.092-1.472-.887-3.263-.747-4.791-1.423-.669-.293-1.453-.237-2.043-.813-.269-.267-.707-.116-1.074.529,3.031,2.036,6.6,2.746,9.717,4.521l9.285,5.285c-2.95-.612-5.3-2.417-7.973-3.586-2.739-1.283-5.545-2.395-8.337-3.544-2.736-1.177-5.522-2.208-8.521-3.4.763,1.6,1.8,2.246,3.073,2.219a6.7,6.7,0,0,1,2.9.9c1.818.837,3.532,1.964,5.325,2.717,2.158.885,4.273,1.923,6.425,2.856.992.43,1.508,1.637,2.733,1.674-.61-.032-1.14-.465-1.746.341-.19.25-.823-.11-.869.573a.89.89,0,0,0,.606.9c1.806.66,3.1,2.261,4.992,2.779,1.026.268,1.741,1.144,2.718,2.305-2.283-.312-3.545-1.8-5.227-2.419-1.721-.627-3.072-2.124-4.948-2.353-1.817-.246-3.258-1.352-5.111-2.121.119,1.126.567,1.48,1.024,1.639a30.686,30.686,0,0,1,4.642,2.552c1.031.62,2.34.389,3.309,1.128,3.222,2.414,6.673,4.4,10.012,6.554a8.956,8.956,0,0,1,2.688,3.11c-.231-.113-.771.194-1.286.263a2.3,2.3,0,0,1-2.723-1.484,1.833,1.833,0,0,0-1.513-1.283,23.239,23.239,0,0,1-5.8-2.646,96.934,96.934,0,0,0-8.84-4.291c.645,1.153,1.161,2.669,2.3,2.771a9.114,9.114,0,0,1,2.292.676c4.12,1.466,7.671,4.028,11.355,6.266,3.494,2.1,6.53,4.812,9.769,7.2.7.544.7.554,1.182,1.815-1.154-.932-2.626-.372-3.62-.966a43.445,43.445,0,0,1-3.938-2.494,19.351,19.351,0,0,0-5.954-3.111,8.441,8.441,0,0,1-3.91-2.254,2.233,2.233,0,0,0-2.491-.813,1.521,1.521,0,0,0,.427,1.447c.654.706,1.553,1.109,1.937,2.136.058.155.244.315.39.288,1.663-.3,2.011,1.146,2.489,2.414-.246.583-1.229.234-1.123,1.119.066.565.861.43,1.079,1.146-1.29-.108-2.056-1.017-3.057-1.434a26.719,26.719,0,0,1-3.932-2.158,43.819,43.819,0,0,0-6.793-3.284,12.753,12.753,0,0,1-4.448-2.338c-.673-.611-1.74-.464-2.61-.777a14.868,14.868,0,0,1-3.279-1.34c-.626-.423-1.375-.224-2.249.135.859,1.405,1.624,2.431,3.153,2.539a3.314,3.314,0,0,1,2.676,1.317c.094.144.208.334.352.346,2.009.188,3.556,1.459,5.264,2.318,1.372.72,2.7,1.519,4.044,2.286,1.571.881,3.042,1.931,4.6,2.82a87.579,87.579,0,0,1,13.634,9.784c-1.473.744-2.586.631-3.363-.153-2.452-2.5-5.751-3.736-8.617-5.611-2.749-1.8-5.579-3.5-8.456-5.125a16.213,16.213,0,0,0-5.135-2.229,4.458,4.458,0,0,0,.83,2.867,10.127,10.127,0,0,0,4.375,2.9,18.207,18.207,0,0,1,5.624,3.634c1.317,1.281,3.1,1.744,4.456,2.922l2.553,2.193c-2.168.441-3.323-.389-4.617-.969a9.813,9.813,0,0,1-.957-.744c-.515-.324-1.052-.55-1.473.743a.792.792,0,0,1-.862.635,7.4,7.4,0,0,1-5.633-1.889,3.013,3.013,0,0,0-1.147-.66c-.778-.281-1.682-.318-2.054-1.322a.387.387,0,0,0-.355-.261c-1.638.194-2.516-1.332-4.016-1.421-.4-.019-.611-.337-.845-.6-1.107-1.217-2.7-1.328-4.116-1.852-1.131-.389-2.487-.46-3.155-1.863a1.144,1.144,0,0,0-1.439-.654c-1.318.414-2.3-.213-3.3-.659a23.824,23.824,0,0,0-6.641-1.876,42.522,42.522,0,0,1-5.976-1.811c-.142-.044-.266-.173-.411-.182-.479-.035-1.179-.443-1.4.378-.275,1.016.583.757.986.937a53.946,53.946,0,0,0,8.043,2.446,38.809,38.809,0,0,1,4.955,1.929c2.176.781,4.13,2.061,6.408,2.564.842.184,1.33,1.028,2.081,1.39,1.8.859,3.62,1.7,5.347,2.7a1.859,1.859,0,0,1,.862.811,1.26,1.26,0,0,0,1.136.859c1.4.031,1.856,1.458,2.639,2.37.089.1.083.337-.205.782-2.43-1.3-5.42-1.424-7.808-2.987a5.7,5.7,0,0,0,2.125,2.484,4.757,4.757,0,0,0,2.4,1.147c.764.073,1.5.546,1.553,1.957a11.159,11.159,0,0,1-2.488-.763c-2.121-1.156-4.182-2.45-6.429-3.407-2.714-1.258-5.636-2.04-8.3-3.477a44.262,44.262,0,0,0-4.943-1.691,18.768,18.768,0,0,1-3.435-1.225,23.792,23.792,0,0,0-8.336-2.3c-.069-.01-.169.124-.651.505a8.194,8.194,0,0,1,3.544.994,34.437,34.437,0,0,1,3.723,1.306,21.97,21.97,0,0,0,4.062,1.562c.589.179.9.651,1.138,1.471a1.583,1.583,0,0,1-1.883.2c-1.538-.508-3.028-1.155-4.58-1.641-2.229-.677-4.445-1.391-6.721-1.935a1.118,1.118,0,0,0-1.086.083,1.291,1.291,0,0,0,1.539,1.084c1.1-.052,1.929.658,2.869,1a6.993,6.993,0,0,0,2.842.516,6.377,6.377,0,0,1,3.611.954c1.218.71,2.657.824,3.773,1.743a5.26,5.26,0,0,1,.411.406.947.947,0,0,1-1.275.451c-2.118-.541-4.084-1.584-6.237-2.035-1.635-.279-3.224-.72-4.831-1.084-.2-.05-.422-.224-.724.39A6.232,6.232,0,0,0,179.63,63c1.559.5,3.055,1.178,4.589,1.722,1.277.443,2.771.141,3.954.877a42.851,42.851,0,0,0,7.363,3.371c.085.031.221.024.238.112.106.5,1.035.1.631.987-.381.836-.8.262-1.142.162a42.913,42.913,0,0,1-6.538-2.712c-1.466-.787-3.184-.9-4.668-1.7-.205-.111-.547.128-.869.395,2.093,1.5,4.588,1.759,6.826,2.739a56.211,56.211,0,0,1,6.588,3.352c2.018,1.256,4.744,1.3,6.032,3.829,2.769-.114,3.954,2.767,6.448,3.171,1.451,2.037,4.057,2.247,5.856,3.81-.782.793-1.14.6-1.472.429a9.572,9.572,0,0,1-1.549-.889c-1.786-1.463-3.863-2.467-5.773-3.793-1.82-1.371-4.153-1.88-6.078-3.092-2.656-1.511-5.6-2.385-8.362-3.718a23.69,23.69,0,0,0-3.689-1.254,44.794,44.794,0,0,1-6.965-2.574c-1.887-.894-3.968-1.126-5.906-1.867-2.241-.855-4.668-.933-6.883-1.978a1.279,1.279,0,0,0-.521-.106c-3.578-.1-7.016-.979-10.541-1.438-2.849-.355-5.7-1.026-8.606-1.271a11.277,11.277,0,0,0-2.806.447c.266,1.055.7,1.048,1.084,1.036,1.446-.035,2.857.627,4.272.465,1.107-.124,2.044.855,3.079.524a4.617,4.617,0,0,1,3.019.153c1.554.523,3.241.423,4.672,1.474a1.287,1.287,0,0,0,1.148.241c1.591-.584,3,0,4.362.633,1.579.7,3.241,1.033,4.819,1.639a26.028,26.028,0,0,0,6.424,1.634c2.457.144,4.511,1.421,6.717,2.193a30.687,30.687,0,0,1,4.614,2.889,14.187,14.187,0,0,0,3.769,1.8c1.119.374,2.1,1.082,3.235,1.422,2.68.843,4.694,2.934,7.236,3.966a18.17,18.17,0,0,1,3,1.818c-.919,1.1-1.525.787-1.81.484-1.235-1.327-3.2-1.112-4.8-1.616a5.814,5.814,0,0,1-1.531-1c-1.071-.769-2.416-.991-3.342-2.1-.428-.529-1.273-.31-1.862-.621-.509-.267-1.131-.284-1.51-.837a.4.4,0,0,0-.609-.089c-1.016.678-1.6.042-2.294-.227-1.308-.535-2.959.014-4.2-.745-1.171-.728-2.63-.675-3.806-1.464-.411-.285-.811-.322-.534-1.479.209-.87-.224-1.3-.876-1.163-.365.076-.373.1-.65,1.584-.79.162-1.331-.483-1.98-.745a30.769,30.769,0,0,0-4.692-1.233c-.986-.23-1.937-.709-2.964-.859-.34-.052-.34-.52-.383-1.043-.086-1.1-1.8-2.014-2.444-1.435a.356.356,0,0,0-.1.181c-.194,2.228-1.053,1.169-1.579,1.293a5.544,5.544,0,0,1-1.783-.146,1.835,1.835,0,0,1-.373-.091c-.484-.155-.819-.421-1.01-1.354-.13-.619-1.082.576-1.3.027-.359-.9-.517-.669-.963.062-.347.57-.839.428-1.261.269-2.068-.786-4.327-.306-6.414-1.348-.42-.217-.85.161-1.287.116a8.06,8.06,0,0,1-3.26-1,1.338,1.338,0,0,0-1.728.173,3.67,3.67,0,0,1-2.692.61c-1.645-.057-3.035-1.191-4.571-2-1.148-.627-2.373-1.389-3.685-.658-1.06.616-2.2-.029-3.314-.016a13.132,13.132,0,0,0-2.956.149c-.415.1-.772.24-1.165-.144-.256-.25-.472-.174-.75.019-.463.322-.068,1.573-.675,1.615-.464.031-.838.181-1.081.952a.766.766,0,0,1-1.074.516,4.056,4.056,0,0,1-1.581-.731,2.424,2.424,0,0,0-2.641-.416c-1.035.347-2.153-.212-3.23.014a2.789,2.789,0,0,1-2.693-.409c-1.11.778-2.457-.173-3.627.788-.907.738-2.261.414-3.434.5-.79.052-1.5.553-2.388.145-.309-.138-.836.359-.983.85-.684,2.268-2.335,1.074-3.45,2.066-.066-1.343.724-.6.838-1.239a.463.463,0,0,0-.322-.379,4.437,4.437,0,0,0-3.081-.229c-.85.176-1.567.887-2.513.712-.153-.027-.411.229-.406.412.033,1.345-.606,1.234-1.211,1.116a4.919,4.919,0,0,0-2.684.5c-2.442.967-5.177.633-7.674,1.36A5.531,5.531,0,0,0,81.659,74c-.874.473-1.746,1.007-2.888.368a.592.592,0,0,0-.567-.033c-2.721,1.747-6.084,1.638-8.978,2.569-2.583.813-5.378.862-7.833,1.729-1.777.6-3.748.571-5.239,1.756-.19.148-.542-.025-.816-.032-.323-.011-.724-.157-.921.044a3.791,3.791,0,0,1-3.29.906c-.473-.049-.534.559-.878.71a24.479,24.479,0,0,1-4.432,1.506,19.287,19.287,0,0,0-2.857,1.165c-2.236.839-3.963,2.448-6.333,2.8-1.559.3-2.6,1.467-3.814,2.2-1.429.826-2.625,1.961-4.286,2.354a3.063,3.063,0,0,0-.91.53c-.279.159-.44.461-.774.51a9.1,9.1,0,0,0-4.625,2.438c-.359.3-.9.286-1.694-.136-1.724-.921-3.122-1.256-3.85-.316-.426.509-1.261.665-1.868,1.045-.464.3-.863.083-1.513-.859A2.317,2.317,0,0,0,11.433,94c-.362-.035-.983.234-1.47-.867a10.49,10.49,0,0,0-1.8-.757C6.59,91.778,5.655,90.811,5.68,89.656Zm173.829-24.7c.893.96,1.939.887,2.922,1.025C181.834,65.041,181,64.813,179.509,64.951ZM196.028,59.3c1.919,1.676,4.271,1.914,6.316,2.9l.185-.446c-.041-.1-.054-.279-.124-.3a9.994,9.994,0,0,1-4.349-2.322A1.4,1.4,0,0,0,196.028,59.3Zm-9.077-3.345c.994.33,1.713,1.377,2.974.672C188.621,55.177,187.805,54.962,186.951,55.953Zm-13.2,4.272c-.7-.883-1.642-.7-2.944-.117a9.876,9.876,0,0,0,4.584,1.3C174.955,60.656,174.234,60.832,173.749,60.225ZM203.8,18.4l-3.236-.887a9.237,9.237,0,0,1-3.083-1.017,3.388,3.388,0,0,0-2.96-.3c.4.541,1.36.229,1.448,1.011a1.35,1.35,0,0,0,1.889,1.2c1.822-.5,3.323.39,4.961.669C203.135,19.124,203.425,19.144,203.8,18.4ZM170.415,8.572a1.7,1.7,0,0,0,1.345.931c1.813.133,3.526.92,5.364.876a3.82,3.82,0,0,1,1.794.31,19.219,19.219,0,0,0,4.772,1.2c1.738.309,3.6.219,5.215.772,4.917,1.7,10.06,2.628,14.839,4.745,1.571.666,3.365.7,4.855,1.657.477.3,1.147,1.017,1.551-.021.314-.8-.483-1.149-1.079-1.365-.116-.042-.248-.036-.361-.082-2.841-1.2-5.9-1.656-8.74-2.849a36.751,36.751,0,0,0-4.51-1.646c-3.193-.861-6.485-1.242-9.676-2.034-2.407-.535-5-.036-7.194-1.656-.144-.107-.359-.07-.54-.1l-6.159-.979C171.445,8.256,170.949,8.023,170.415,8.572Zm-8.162,49.642a6.651,6.651,0,0,0,5.923,1.248c-.162-.366-.206-.632-.306-.666-1.422-.477-2.868-.9-4.326-1.252C163.226,57.469,162.81,57.591,162.253,58.214ZM123.568,23.5c.129,1.237,1.032,2.315,1.832,2.181a2.6,2.6,0,0,0,1.532-2.414c-.049-.983-1.256-2.254-2.065-2.174C124.391,21.136,123.495,22.8,123.568,23.5ZM13.625,92.327c.994.774,1.148.209,1.485-.047a6.905,6.905,0,0,0,1.958-2.965c-1.5-1.312-1.507-1.284-2.267-.772-.677.52-.9,1.435-1.436,2.054A1.077,1.077,0,0,0,13.625,92.327Z" transform="translate(0 5.322)" fill="#fff"/>
    <path id="Контур_6847" data-name="Контур 6847" d="M.336,1.563a2.023,2.023,0,0,0,.8.521c1.646.51,3.288,1.007,4.4,2.589.2.3.663.36,1.012.511,2.155.951,4.627.691,6.828,1.533a1.128,1.128,0,0,0,.57.063.889.889,0,0,0,.753-.668c.116-.411,0-.777-.329-.9-1.783-.674-3.334-2.162-5.4-1.875A4.743,4.743,0,0,1,5.059,2.062,5.478,5.478,0,0,0,2.393.614,13.553,13.553,0,0,0,1.121.12C.77.02.34-.183.093.37A1.045,1.045,0,0,0,.336,1.563Z" transform="translate(204.032 7.516)" fill="#fff"/>
    <path id="Контур_6848" data-name="Контур 6848" d="M1.485,2.211A7.111,7.111,0,0,1,4.494,4.054a18.213,18.213,0,0,0,4.354,4.17c2.033,1.3,4.128,2.6,5.494,4.661A6.565,6.565,0,0,0,17.65,15.8a2.011,2.011,0,0,1,.969.9,8.451,8.451,0,0,0,2.26,2.548l2.413,1.827A101.985,101.985,0,0,0,0,0C.189,1.324.64,1.864,1.485,2.211Z" transform="translate(249.958 29.376)" fill="#fff"/>
    <path id="Контур_6849" data-name="Контур 6849" d="M.984,2c1.93,2.043,4.677,2.508,7.008,3.837a2.062,2.062,0,0,0-1.28-1.693,17.687,17.687,0,0,1-3.55-2.471A23.6,23.6,0,0,0,.719.112C.471-.042.267-.085.111.3.035.48-.044.783.029.882A11.912,11.912,0,0,0,.984,2Z" transform="translate(230.838 31.639)" fill="#fff"/>
    <path id="Контур_6850" data-name="Контур 6850" d="M1.79,2.485c.79.085,1.363.762,1.991,1.23,1.174.9,2.8,1.173,3.668,2.508.092.141.315.237,1.007-.306C5.649,3.959,3.173,1.7,0,0,.371,1.373.575,2.377,1.79,2.485Z" transform="translate(223.598 64.087)" fill="#fff"/>
    <path id="Контур_6851" data-name="Контур 6851" d="M.327.207C.139.221-.046.325.01.7c.047.323.236.491.418.354a2.062,2.062,0,0,1,2.2-.061c.254.106.576.2.787.03.869-.712,1.652.019,2.426.423,1.011.522.991.589,1.907-1.1A18.827,18.827,0,0,0,3.257,0C2.279-.016,1.3.131.327.207Z" transform="translate(131.572 66.497)" fill="#fff"/>
    <path id="Контур_6852" data-name="Контур 6852" d="M5.49,2.751C3.981,1.123,2.318-.194,0,.024,1.186,2.418,3.411,3.513,5.49,2.751Z" transform="translate(192.94 4.099)" fill="#fff"/>
    <path id="Контур_6853" data-name="Контур 6853" d="M.656,1.84c1.5.595,2.7-.042,3.924-1.171C3.272-.349,1.98.085.724.128.3.14.052.411.006.929-.048,1.517.291,1.692.656,1.84Z" transform="translate(144.814)" fill="#fff"/>
    <path id="Контур_6854" data-name="Контур 6854" d="M4.3,1.977C2.962,1.258,2.066-.194,0,.022,2.4,2.146,3.114,2.534,4.3,1.977Z" transform="translate(231.669 30.215)" fill="#fff"/>
  </g>
</svg>
