<svg xmlns="http://www.w3.org/2000/svg" width="16.625" height="19" viewBox="0 0 16.625 19">
  <path id="calendar-alt" d="M5.492,10.687H4.008a.447.447,0,0,1-.445-.445V8.758a.447.447,0,0,1,.445-.445H5.492a.447.447,0,0,1,.445.445v1.484A.447.447,0,0,1,5.492,10.687ZM9.5,10.242V8.758a.447.447,0,0,0-.445-.445H7.57a.447.447,0,0,0-.445.445v1.484a.447.447,0,0,0,.445.445H9.055A.447.447,0,0,0,9.5,10.242Zm3.562,0V8.758a.447.447,0,0,0-.445-.445H11.133a.447.447,0,0,0-.445.445v1.484a.447.447,0,0,0,.445.445h1.484A.447.447,0,0,0,13.062,10.242ZM9.5,13.8V12.32a.447.447,0,0,0-.445-.445H7.57a.447.447,0,0,0-.445.445V13.8a.447.447,0,0,0,.445.445H9.055A.447.447,0,0,0,9.5,13.8Zm-3.562,0V12.32a.447.447,0,0,0-.445-.445H4.008a.447.447,0,0,0-.445.445V13.8a.447.447,0,0,0,.445.445H5.492A.447.447,0,0,0,5.937,13.8Zm7.125,0V12.32a.447.447,0,0,0-.445-.445H11.133a.447.447,0,0,0-.445.445V13.8a.447.447,0,0,0,.445.445h1.484A.447.447,0,0,0,13.062,13.8Zm3.562-9.648V17.219A1.782,1.782,0,0,1,14.844,19H1.781A1.782,1.782,0,0,1,0,17.219V4.156A1.782,1.782,0,0,1,1.781,2.375H3.562V.445A.447.447,0,0,1,4.008,0H5.492a.447.447,0,0,1,.445.445v1.93h4.75V.445A.447.447,0,0,1,11.133,0h1.484a.447.447,0,0,1,.445.445v1.93h1.781A1.782,1.782,0,0,1,16.625,4.156ZM14.844,17V5.937H1.781V17A.223.223,0,0,0,2,17.219H14.621A.223.223,0,0,0,14.844,17Z" fill="#b5bec9"/>
</svg>
