<svg xmlns="http://www.w3.org/2000/svg" width="207.999" height="162.001" viewBox="0 0 207.999 162.001">
  <path id="Пересечение_36" data-name="Пересечение 36" d="M11095.6,170a60.227,60.227,0,0,1-12.457-6.645,62.68,62.68,0,0,1-21.8-26.127c-.087-.174-.2-.325-.283-.488a1.108,1.108,0,0,0,.087.76c.824,1.952,1.59,3.935,2.513,5.842a74,74,0,0,0,16.582,22.284q2.52,2.324,5.2,4.373h-3.009q-2.165-1.77-4.223-3.711a75.82,75.82,0,0,1-20.464-32.738c-.665-2.064-.135-1.725-2.44-1.826-.8-.036-1.113.25-1.349,1a75.12,75.12,0,0,1-20.032,33q-2.333,2.254-4.8,4.275h-3.076a74.726,74.726,0,0,0,21.074-25.294c.123-.264.232-.536.348-.8l-.162-.1c-.157.238-.349.474-.494.721A63.583,63.583,0,0,1,11016.387,170h-22.69c-.014-2.071.053-4.141.245-6.215a62.828,62.828,0,0,1,18.751-39.3c.182-.177.333-.367.631-.676-.939-.384-1.756-.659-2.5-1.029a1.378,1.378,0,0,0-.605-.16,1.207,1.207,0,0,0-.839.4c-2.614,2.513-5.341,4.906-7.809,7.548a71.309,71.309,0,0,0-13.018,20.1,68.288,68.288,0,0,0-4.905,16.147q-.255,1.583-.464,3.175h-2a73.92,73.92,0,0,1,5.939-20.758,75.812,75.812,0,0,1,15.331-22.43c1.481-1.506,3.086-2.892,4.643-4.331.28-.244.53-.482.937-.841-.667-.311-1.215-.555-1.739-.8a119.4,119.4,0,0,1-40.08-29.877,119.525,119.525,0,0,1-21.354-34.477,119.934,119.934,0,0,1-7.522-27.257A126.951,126.951,0,0,1,10936.021,8h5.534a126.25,126.25,0,0,0,.6,15.065,118.827,118.827,0,0,0,3.894,20.015,115.916,115.916,0,0,0,15.929,33.509,115.658,115.658,0,0,0,21.131,23.117,111.325,111.325,0,0,0,26.265,16.4c.715.311,1.394.676,2.072,1.052,2.479,1.383,4.884,2.875,7.428,4.154a71.972,71.972,0,0,0,22.686,7.158c4.12.572,8.324.791,12.473.959a81.322,81.322,0,0,0,19.4-1.366,78.772,78.772,0,0,0,26.362-10.538,16.811,16.811,0,0,1,2.306-1.237,111.613,111.613,0,0,0,30.438-19.838A118.344,118.344,0,0,0,11144,84.46v8.46a120.931,120.931,0,0,1-22.479,19.127,116.5,116.5,0,0,1-16.916,9.236c-.269.123-.541.264-.908.446.244.252.393.452.575.611a76.51,76.51,0,0,1,22.194,32.053,73.474,73.474,0,0,1,3.81,15.445,16.08,16.08,0,0,1-1.912.157,74.244,74.244,0,0,0-17.209-38.068,70.563,70.563,0,0,0-8.942-8.79c-.235-.2-.616-.446-.86-.376-.839.25-1.684.625-2.656,1.018.358.367.558.6.766.811a63.157,63.157,0,0,1,14.36,21.465,63.964,63.964,0,0,1,4.53,23.945Zm-33.156-49.3a3.643,3.643,0,0,1-.06-.384c-.2-12.117,1.6-23.844,6.8-34.9a66.278,66.278,0,0,1,15.1-20.764,68.269,68.269,0,0,1,33.044-16.952c3.623-.757,7.331-1.069,11-1.574a7.037,7.037,0,0,1,.917-.006,3.907,3.907,0,0,1,.073.693c-.112,2.718-.123,5.444-.373,8.148a71.667,71.667,0,0,1-4.354,18.691,78.029,78.029,0,0,1-11.348,20.043,68.774,68.774,0,0,1-34.909,24.27,65.647,65.647,0,0,1-15.559,2.774.134.134,0,0,1-.036,0A2.28,2.28,0,0,1,11062.441,120.7Zm-15.6-.2c-19.354-2.134-35.318-10.619-47.643-25.81a72.762,72.762,0,0,1-15.186-34.323,85.845,85.845,0,0,1-1.058-13.463v-1c1.555.14,2.962.238,4.356.4a73.476,73.476,0,0,1,22.66,6.468A65.57,65.57,0,0,1,11038.8,78.2a72.884,72.884,0,0,1,9.906,27.647,96.319,96.319,0,0,1,1.032,13.853v.979C11048.714,120.616,11047.774,120.607,11046.838,120.5Zm-56.091-20.887a94.287,94.287,0,0,1-26.416-46.451,90.077,90.077,0,0,1-2.462-19.844c-.025-2.488.024-4.973.033-7.461.017-.309.087-.617.087-.928-.011-.637.286-.8.914-.8a94.242,94.242,0,0,1,34.716,7.054,93.413,93.413,0,0,1,32.27,22.15c2.146,2.266,4.137,4.706,6.167,7.068.236.266.433.555.64.833l-.095.093c-.828-.8-1.639-1.613-2.482-2.4a79.307,79.307,0,0,0-37.8-19.794,73.726,73.726,0,0,0-15.084-1.834c-1.812-.031-3.63-.065-5.414-.126-.561-.02-.779.182-.83.74-2.28,21.059,2.418,40.373,14.311,57.891,1.052,1.54,2.193,3.007,3.365,4.46,1.14,1.43,2.359,2.8,3.467,4.283C10994.337,102.909,10992.486,101.318,10990.747,99.616Zm124.938,4.575c.469-.541.923-1.088,1.386-1.63a86.173,86.173,0,0,0,15.093-24.722,84.166,84.166,0,0,0,5.554-36.014c-.087-1.24-.238-2.474-.334-3.714-.051-.555-.255-.783-.861-.791A87.681,87.681,0,0,0,11106,41.876a76.6,76.6,0,0,0-28.178,17.084c-1.206,1.158-2.378,2.353-3.562,3.534-.037-.031-.073-.062-.112-.09,1.557-1.91,3.074-3.862,4.689-5.725a94.207,94.207,0,0,1,37.969-26.52,84.2,84.2,0,0,1,19.9-5.037c2.422-.3,4.859-.468,7.3-.627V64.542a97.837,97.837,0,0,1-7.521,15.625,93.305,93.305,0,0,1-20.349,23.852.633.633,0,0,1-.435.171Zm-60.015-7.161a78.954,78.954,0,0,0-12.42-27.571,74.045,74.045,0,0,1-4.395-6.187,115.205,115.205,0,0,0-29.913-34.645A112.785,112.785,0,0,0,10966.487,8h17.813a118.543,118.543,0,0,1,34.191,21.359A119.948,119.948,0,0,1,11049,71.24a122.134,122.134,0,0,1,6.712,19.665c.064.244.137.482.283.956.148-.426.235-.642.309-.867A120.895,120.895,0,0,1,11127.66,8h.341a15.925,15.925,0,0,1,8.694,2.567q-4.468,1.512-8.823,3.393a115.82,115.82,0,0,0-51.553,44.061c-2.1,3.293-3.75,6.866-6.423,9.778a16.048,16.048,0,0,0-.979,1.3,76.414,76.414,0,0,0-11.25,22.45c-.64,2.045-1.172,4.123-1.772,6.274C11055.8,97.507,11055.743,97.271,11055.67,97.03Z" transform="translate(-10936.001 -7.999)" fill="#cd2176"/>
</svg>
