<svg xmlns="http://www.w3.org/2000/svg" width="57.736" height="45.234" viewBox="0 0 57.736 45.234">
  <g id="Сгруппировать_6916" data-name="Сгруппировать 6916" transform="translate(-1232.132 -985.887)">
    <path id="Вычитание_2061" data-name="Вычитание 2061" d="M1.7,35.23H1.466L1.451,35c-.033-.536-.049-.964-.049-1.347a17.9,17.9,0,0,1,2.1-8.4,18.127,18.127,0,0,1,5.574-6.284c.15.091.309.185.475.279A17.421,17.421,0,0,0,1.9,33.649c0,.306.011.64.034,1.08A17.348,17.348,0,0,0,17.33,24.883a14.928,14.928,0,0,1-5.3,5.323,14.822,14.822,0,0,1-7.468,2.042c0-.182-.01-.368-.02-.549s-.021-.378-.021-.569A14.772,14.772,0,0,1,10.1,19.542a18.541,18.541,0,0,0,8.7,2.115h.057l0,.015h.175a18.043,18.043,0,0,1-6.262,9.68A17.706,17.706,0,0,1,1.7,35.23Zm35.238-.006h0l-.226,0a17.7,17.7,0,0,1-11.059-3.874,18.049,18.049,0,0,1-6.264-9.673l.386,0h.08a18.365,18.365,0,0,0,8.588-2.15,14.766,14.766,0,0,1,5.586,11.6c0,.38-.014.756-.041,1.119A14.841,14.841,0,0,1,20.412,23.3,17.532,17.532,0,0,0,36.483,34.723c.026-.359.026-.726.026-1.081a17.429,17.429,0,0,0-7.6-14.372c.148-.084.307-.178.473-.279a18.129,18.129,0,0,1,5.541,6.276,17.9,17.9,0,0,1,2.085,8.375A12.755,12.755,0,0,1,36.96,35l-.022.223ZM20.765,19.653h0c0-.083,0-.165,0-.244V19.4l0-.174,0-.19c0-.139,0-.261,0-.357a18.13,18.13,0,0,1,.144-2.286,14.671,14.671,0,0,1,5.617,1.842,16.233,16.233,0,0,1-5.773,1.418Zm-2.972-.022h0a16.594,16.594,0,0,1-5.781-1.389,14.674,14.674,0,0,1,5.582-1.837,21.635,21.635,0,0,1,.2,2.473v.751Zm9.093-1.557h0a17.224,17.224,0,0,0-5.955-1.747c.024-.183.048-.345.072-.495A17.711,17.711,0,0,1,27.437,17.8c-.2.105-.38.2-.551.277Zm-15.295-.025h0c-.186-.089-.373-.182-.554-.277A17.714,17.714,0,0,1,17.5,15.829c.031.182.056.343.078.495a17.225,17.225,0,0,0-5.991,1.724Z" transform="translate(1241.731 995.391)" fill="#b0ca14" stroke="rgba(0,0,0,0)" stroke-miterlimit="10" stroke-width="1"/>
    <g id="Сгруппировать_1211" data-name="Сгруппировать 1211" transform="translate(1232.632 986.389)">
      <g id="Сгруппировать_1180" data-name="Сгруппировать 1180">
        <path id="Вычитание_2061-2" data-name="Вычитание 2061" d="M23.762,22.757h0v-.014c0-.143.005-.285.006-.413l0-.238v-.043c0-.1,0-.192,0-.266a17.218,17.218,0,0,1,1.2-6.385,16.028,16.028,0,0,1,8.324-8.718A17.443,17.443,0,0,1,39.6,5.162c0,.1,0,.214,0,.327a17.411,17.411,0,0,1-3.686,10.729,16.35,16.35,0,0,1-12.153,6.539Zm-2.971-.023h0A16.486,16.486,0,0,1,9.543,17.421,17.535,17.535,0,0,1,5,5.489c0-.122,0-.241,0-.358a17.3,17.3,0,0,1,4.8.959C16.6,8.507,20.605,14.3,20.79,21.981v.753ZM36,19.2h0a18.079,18.079,0,0,0,1.5-1.767A19.391,19.391,0,0,0,41.6,5.486c0-.56-.018-1.018-.058-1.444l-.085-.909-.915,0A18.634,18.634,0,0,0,26.155,9.571a22.511,22.511,0,0,1,7.8-6.937A22.229,22.229,0,0,1,44.419.006c.04.557.06,1.121.06,1.679a22.1,22.1,0,0,1-2.3,9.888A22.548,22.548,0,0,1,36,19.2ZM8.436,19.173a22.556,22.556,0,0,1-6.145-7.619A22.107,22.107,0,0,1,0,1.685,15.852,15.852,0,0,1,.06,0a22.081,22.081,0,0,1,10.2,2.493A22.529,22.529,0,0,1,17.989,9.1a18.363,18.363,0,0,0-7.524-4.892A19.277,19.277,0,0,0,4.05,3.1H3.159l-.1.884A12.841,12.841,0,0,0,3,5.489,19.451,19.451,0,0,0,8.436,19.172Z" transform="translate(6.102 5.898)" fill="#d1328a" stroke="rgba(0,0,0,0)" stroke-miterlimit="10" stroke-width="1"/>
        <path id="Объединение_439" data-name="Объединение 439" d="M27.728,31.217A28.466,28.466,0,0,1,0,2.759,18.733,18.733,0,0,1,.085.591L.153,0,.746,0A28.536,28.536,0,0,1,28.368,21.886,28.536,28.536,0,0,1,55.988,0L56.6,0l.049.616c.054.7.082,1.422.082,2.144A28.516,28.516,0,0,1,29.008,31.216v.009H27.729ZM1.331,2.761a27.134,27.134,0,0,0,26.3,27.12c-.023-.46-.034-.939-.034-1.413q0-1.214.1-2.4A27.191,27.191,0,0,0,1.357,1.343C1.331,1.8,1.331,2.272,1.331,2.761ZM29.137,28.468c0,.472-.012.945-.036,1.413A27.18,27.18,0,0,0,55.4,2.761c0-.475-.012-.949-.038-1.417a27.188,27.188,0,0,0-26.33,24.72Q29.137,27.252,29.137,28.468Z" fill="#d1328a" stroke="rgba(0,0,0,0)" stroke-miterlimit="10" stroke-width="1"/>
      </g>
    </g>
  </g>
</svg>
