<svg xmlns="http://www.w3.org/2000/svg" width="101.781" height="101.781" viewBox="0 0 101.781 101.781">
  <path id="Контур_1186" data-name="Контур 1186" d="M90.7,363.565a3.926,3.926,0,1,1,3.927-3.926A3.926,3.926,0,0,1,90.7,363.565Zm3.927,19.557a3.926,3.926,0,1,0-3.927,3.926A3.927,3.927,0,0,0,94.624,383.122Zm0,23.481A3.926,3.926,0,1,0,90.7,410.53,3.927,3.927,0,0,0,94.624,406.6Zm0,23.482a3.926,3.926,0,1,0-3.927,3.927A3.927,3.927,0,0,0,94.624,430.085Zm0,23.482a3.926,3.926,0,1,0-3.927,3.926A3.927,3.927,0,0,0,94.624,453.568ZM71.142,359.639a3.926,3.926,0,1,0-3.926,3.926A3.926,3.926,0,0,0,71.142,359.639Zm0,23.482a3.926,3.926,0,1,0-3.926,3.926A3.927,3.927,0,0,0,71.142,383.122Zm0,23.481a3.926,3.926,0,1,0-3.926,3.927A3.926,3.926,0,0,0,71.142,406.6Zm0,23.482a3.926,3.926,0,1,0-3.926,3.927A3.926,3.926,0,0,0,71.142,430.085Zm0,23.482a3.926,3.926,0,1,0-3.926,3.926A3.926,3.926,0,0,0,71.142,453.568ZM47.661,359.639a3.927,3.927,0,1,0-3.927,3.926A3.927,3.927,0,0,0,47.661,359.639Zm0,23.482a3.927,3.927,0,1,0-3.927,3.926A3.927,3.927,0,0,0,47.661,383.122Zm0,23.481a3.927,3.927,0,1,0-3.927,3.927A3.927,3.927,0,0,0,47.661,406.6Zm0,23.482a3.927,3.927,0,1,0-3.927,3.927A3.927,3.927,0,0,0,47.661,430.085Zm0,23.482a3.927,3.927,0,1,0-3.927,3.926A3.927,3.927,0,0,0,47.661,453.568ZM24.178,359.639a3.926,3.926,0,1,0-3.927,3.926A3.927,3.927,0,0,0,24.178,359.639Zm0,23.482a3.926,3.926,0,1,0-3.927,3.926A3.927,3.927,0,0,0,24.178,383.122Zm0,23.481a3.926,3.926,0,1,0-3.927,3.927A3.927,3.927,0,0,0,24.178,406.6Zm0,23.482a3.926,3.926,0,1,0-3.927,3.927A3.927,3.927,0,0,0,24.178,430.085Zm0,23.482a3.926,3.926,0,1,0-3.927,3.926A3.927,3.927,0,0,0,24.178,453.568ZM.7,359.639a3.926,3.926,0,0,0-3.926-3.927,3.927,3.927,0,0,0-3.927,3.927,3.926,3.926,0,0,0,3.927,3.926A3.926,3.926,0,0,0,.7,359.639Zm0,23.482a3.927,3.927,0,0,0-3.926-3.927,3.927,3.927,0,0,0-3.927,3.927,3.927,3.927,0,0,0,3.927,3.926A3.926,3.926,0,0,0,.7,383.122ZM.7,406.6a3.926,3.926,0,0,0-3.926-3.926A3.927,3.927,0,0,0-7.157,406.6,3.927,3.927,0,0,0-3.23,410.53,3.927,3.927,0,0,0,.7,406.6Zm0,23.482a3.926,3.926,0,0,0-3.926-3.927,3.927,3.927,0,0,0-3.927,3.927,3.927,3.927,0,0,0,3.927,3.927A3.927,3.927,0,0,0,.7,430.085Zm0,23.482a3.926,3.926,0,0,0-3.926-3.927,3.927,3.927,0,0,0-3.927,3.927,3.927,3.927,0,0,0,3.927,3.926A3.926,3.926,0,0,0,.7,453.568Z" transform="translate(7.157 -355.712)" fill="#aec912"/>
</svg>
