<svg xmlns="http://www.w3.org/2000/svg" width="17.516" height="19" viewBox="0 0 17.516 19">
  <path id="paperclip" d="M24.791,19A4.791,4.791,0,0,1,21.4,10.82l9.725-9.725a3.743,3.743,0,1,1,5.294,5.294L28.159,14.65a2.694,2.694,0,0,1-3.809-3.809l6.32-6.32a.445.445,0,0,1,.63,0l.21.21a.445.445,0,0,1,0,.63l-6.32,6.32a1.506,1.506,0,0,0,2.13,2.13l8.262-8.262a2.556,2.556,0,0,0-3.614-3.614l-9.725,9.725a3.605,3.605,0,0,0,5.1,5.1l8.08-8.08a.445.445,0,0,1,.63,0l.21.21a.445.445,0,0,1,0,.63L28.18,17.6A4.778,4.778,0,0,1,24.791,19Z" transform="translate(-20 0)" fill="#e82d89"/>
</svg>
