<svg xmlns="http://www.w3.org/2000/svg" width="24" height="19" viewBox="0 0 24 19">
  <path id="home" d="M23.787,41.157l-2.427-2.031V35.075a.336.336,0,0,0-.333-.339H19.694a.336.336,0,0,0-.331.334v2.384l-5.841-4.882a2.3,2.3,0,0,0-2.989,0L.267,41.157a.687.687,0,0,0-.083.956l.427.522a.659.659,0,0,0,.939.085l1.145-.957v7.9a1.349,1.349,0,0,0,1.333,1.357H9.361a1.349,1.349,0,0,0,1.333-1.357V45.254h2.667v4.411a1.349,1.349,0,0,0,1.333,1.357h5.333a1.348,1.348,0,0,0,1.333-1.347V41.762l1.147.959a.659.659,0,0,0,.939-.085l.426-.521a.687.687,0,0,0-.085-.958Zm-4.433,7.829H15.361V44.575a1.349,1.349,0,0,0-1.333-1.357h-4a1.349,1.349,0,0,0-1.333,1.357v4.411h-4v-8.9l7.333-6.134,7.333,6.131Z" transform="translate(-0.028 -32.022)" fill="#4a5568"/>
</svg>
