<svg xmlns="http://www.w3.org/2000/svg" width="60.969" height="55.999" viewBox="0 0 60.969 55.999">
  <path id="Объединение_476" data-name="Объединение 476" d="M9245.988,52.392c-.8-.525-1.541-1.135-2.295-1.724-2.258-1.765-4.517-3.528-6.76-5.313A6.921,6.921,0,0,0,9230.729,44c-3.617.837-7.249,1.617-10.875,2.419a3.687,3.687,0,0,1-3.025-.533,3.457,3.457,0,0,1-1.437-3.945c.362-1.3.827-2.58,1.291-3.852.929-2.546,1.906-5.075,2.827-7.624a5.784,5.784,0,0,0-.5-5.071c-1.163-1.991-2.383-3.949-3.576-5.922-.807-1.335-1.63-2.66-2.411-4.01a3.828,3.828,0,0,1-.447-3,3.9,3.9,0,0,1,3.394-2.767c1.046-.03,2.095.027,3.141.062,1.077.037,2.154.095,3.447.153,1.659.065,3.533.165,5.41.2a6.211,6.211,0,0,0,4.75-1.854c.964-.985,1.846-2.051,2.761-3.083q2.5-2.819,4.993-5.64a4.314,4.314,0,0,1,2.248-1.44,3.751,3.751,0,0,1,2.935.569,3.927,3.927,0,0,1,1.656,2.42q1.472,5.148,2.938,10.3a7.093,7.093,0,0,0,1.52,2.894,6.969,6.969,0,0,0,2.534,1.734q4.979,2.089,9.954,4.187a4.386,4.386,0,0,1,2.227,1.836,3.7,3.7,0,0,1-.8,4.7A16.528,16.528,0,0,1,9263.9,28c-2.746,1.82-5.511,3.612-8.244,5.45a6.275,6.275,0,0,0-2.823,4.92c-.167,1.975-.351,3.949-.524,5.924-.143,1.614-.274,3.23-.425,4.843a4.328,4.328,0,0,1-1.044,2.619A3.942,3.942,0,0,1,9247.992,53,3.606,3.606,0,0,1,9245.988,52.392Zm-8.611-8.889q3.294,2.527,6.574,5.072c.967.746,1.919,1.514,2.91,2.227a1.9,1.9,0,0,0,2.173.116,2.026,2.026,0,0,0,.991-1.682c.108-1.05.2-2.1.3-3.152.13-1.411.263-2.822.386-4.234.109-1.261.167-2.528.316-3.785a8.637,8.637,0,0,1,4.021-6.431c2.95-1.949,5.909-3.884,8.86-5.831a4.446,4.446,0,0,0,.733-.6,1.882,1.882,0,0,0,.1-2.514,3.241,3.241,0,0,0-1.35-.878c-3.394-1.432-6.8-2.838-10.178-4.3a7.822,7.822,0,0,1-4.557-5.112c-.389-1.282-.713-2.584-1.082-3.873-.687-2.4-1.393-4.786-2.078-7.182a2.013,2.013,0,0,0-3.487-.812q-2.739,3.1-5.479,6.207c-.9,1.01-1.76,2.052-2.719,3a7.677,7.677,0,0,1-5.8,2.192c-1.786-.043-3.57-.139-5.355-.212v0c-1.394-.053-2.787-.109-4.181-.159-.746-.026-1.492-.072-2.237-.054a1.942,1.942,0,0,0-1.667,2.994c.731,1.283,1.5,2.545,2.26,3.811,1.269,2.1,2.561,4.195,3.81,6.31a7.312,7.312,0,0,1,1.006,3.368,8.383,8.383,0,0,1-.532,3.391q-1.576,4.258-3.16,8.513c-.281.762-.587,1.52-.809,2.3a1.9,1.9,0,0,0,1.107,2.383,2.659,2.659,0,0,0,1.626.024c3.254-.738,6.5-1.491,9.762-2.217a19.048,19.048,0,0,1,2.669-.46q.286-.022.565-.022A7.27,7.27,0,0,1,9237.377,43.5Zm-26.2,2.391a1.1,1.1,0,0,1-.8-.783,9.023,9.023,0,0,1-.373-2.476,7.689,7.689,0,0,1,.524-2.663c.395-1.153.81-2.3,1.213-3.449a1.983,1.983,0,0,1,.689-.819.274.274,0,0,1,.168-.036.891.891,0,0,1,.911,1.279c-.332.96-.69,1.911-1.043,2.864a8,8,0,0,0-.585,3.222c.028.523.158,1.04.226,1.561a2.716,2.716,0,0,1,.021.717.689.689,0,0,1-.692.627A.841.841,0,0,1,9211.173,45.894Zm45.4-2.527a.761.761,0,0,1-.649-.609,3.2,3.2,0,0,1-.066-.423l-.024-.006c.155-1.393.286-2.789.476-4.177a3.413,3.413,0,0,1,1.167-1.891.723.723,0,0,1,.9,0,.841.841,0,0,1,.411.946,1.554,1.554,0,0,1-.206.425,3.777,3.777,0,0,0-.636,1.95q-.113,1.476-.27,2.949a.856.856,0,0,1-.9.851A1.447,1.447,0,0,1,9256.572,43.367Zm-43.016-11.539a.776.776,0,0,1,.151-.879c.019-.024.036-.048.056-.071.338-.421.547-.47,1.016-.243a.862.862,0,0,1-.424,1.63A.857.857,0,0,1,9213.557,31.827Zm54.671-12.276a.751.751,0,0,1,.671-.881.923.923,0,0,1,.371.06,1.313,1.313,0,0,1,.313.176c.453.314.482.39.344.856a.791.791,0,0,1-.83.626h-.025A.81.81,0,0,1,9268.228,19.551Zm-1.97-2.17a3.9,3.9,0,0,1-.521-.152q-3.533-1.475-7.059-2.967a2.116,2.116,0,0,1-.6-.394.76.76,0,0,1-.118-.974.771.771,0,0,1,.89-.461,10.993,10.993,0,0,1,1.269.464c2.068.869,4.139,1.735,6.2,2.632a3.527,3.527,0,0,1,.871.661c.068.061.058.237.046.356a.87.87,0,0,1-.961.833Z" transform="translate(-9209.5 2.499)" fill="#e82d89" stroke="rgba(0,0,0,0)" stroke-miterlimit="10" stroke-width="1"/>
</svg>
