<svg xmlns="http://www.w3.org/2000/svg" width="61.031" height="61" viewBox="0 0 61.031 61">
  <path id="Объединение_477" data-name="Объединение 477" d="M7092.708,57.971c-.247-.126-.581-.25-.671-.463a.932.932,0,0,1,.146-.79c.7-.868,1.452-1.694,2.188-2.534,1.438-1.642,2.885-3.277,4.311-4.93a1.473,1.473,0,0,1,1.237-.564q1.872.035,3.745-.006a.994.994,0,0,0,.651-.3q2.605-2.987,5.171-6.008a1.276,1.276,0,0,1,1.066-.488c1.412.015,2.825.006,4.347.006a4.351,4.351,0,0,1-.508-2.536q.009-6.029,0-12.058v-.581a8.044,8.044,0,0,1-.967.2,2.6,2.6,0,0,1-2.618-1.407q-2.451-4.319-4.828-8.68a2.624,2.624,0,0,1,1.043-3.69c2.367-1.345,4.746-2.672,7.16-3.93a4.742,4.742,0,0,1,2.035-.46q3.868-.078,7.737,0a6.52,6.52,0,0,1,2.151.43c3.753,1.431,7.487,2.913,11.229,4.377.149.058.3.108.5.182V2.655h1.46V3.871h.593q3.105,0,6.21,0c.751,0,1,.249,1.008,1,.006.933,0,1.866,0,2.875h.6c1.118,0,2.236-.026,3.351.019a1.072,1.072,0,0,1,.8.4,1.088,1.088,0,0,1-.115.891c-.477.8-1.022,1.564-1.557,2.364.521.778,1.033,1.557,1.559,2.326.208.3.377.656.121.945a1.253,1.253,0,0,1-.824.389c-2.448.03-4.9.02-7.344.016-.74,0-.992-.264-1-1.026-.005-.947,0-1.895,0-2.868h-3.374c-.008.181-.022.355-.022.528q0,8.662-.009,17.325a.749.749,0,0,0,.41.741c3.866,2.358,7.718,4.737,11.586,7.092a1.27,1.27,0,0,1,.7,1.222c-.017,6.251-.01,12.5-.011,18.752,0,.942-.184,1.127-1.124,1.127H7093.1c-.076,0-.16.013-.237.013A.334.334,0,0,1,7092.708,57.971Zm47.226-25.828q2.048,7.355,4.1,14.71c.241.866.2.984-.53,1.53-.934.7-1.863,1.4-2.806,2.082a.461.461,0,0,0-.2.608q.767,2.487,1.479,4.99a.522.522,0,0,0,.61.452c1.766-.01,3.533-.01,5.3-.009h2.138c.145,0,.29-.015.483-.026.01-.206.024-.351.024-.5q0-8.706.009-17.412a.674.674,0,0,0-.385-.657q-4.978-3.034-9.942-6.088c-.107-.066-.222-.12-.4-.212C7139.863,31.832,7139.89,31.989,7139.933,32.142ZM7100.2,50.189a.9.9,0,0,0-.576.263c-.67.722-1.311,1.47-1.96,2.211l-3.34,3.81h46.229c-.064-.247-.113-.451-.172-.652-.487-1.649-.962-3.3-1.472-4.945a.953.953,0,0,1,.385-1.192c.967-.708,1.91-1.447,2.883-2.147a.656.656,0,0,0,.3-.842c-1.234-4.366-2.442-8.739-3.659-13.109-.208-.75-.425-1.5-.657-2.312-.212.179-.362.3-.508.429q-6.483,5.6-12.96,11.216a1.708,1.708,0,0,1-1.205.437c-4.108-.011-8.215,0-12.323-.017a1.168,1.168,0,0,0-1,.467c-1.654,1.954-3.334,3.887-4.987,5.843a1.389,1.389,0,0,1-1.192.536q-.859-.018-1.719-.017Q7101.236,50.168,7100.2,50.189Zm20.546-22.255q0,5.709,0,11.417a4.311,4.311,0,0,1-.576,2.537c1.1,0,2.1.014,3.1-.011a1.137,1.137,0,0,0,.653-.243c.907-.757,1.792-1.541,2.683-2.318.24-.209.474-.423.754-.674a3.394,3.394,0,0,1-2.24-3.708c.052-1.557,0-3.117.019-4.675a.685.685,0,0,0-.409-.7c-1.078-.593-2.14-1.215-3.208-1.824-.234-.133-.473-.258-.782-.427Zm-4.878-13.654q0,6.447,0,12.894,0,5.733,0,11.466c0,.541-.013,1.083.007,1.624a1.667,1.667,0,0,0,1.13,1.523,1.614,1.614,0,0,0,1.782-.495,2.247,2.247,0,0,0,.5-1.648c0-4.429.021-8.858-.018-13.287-.008-.887.616-1.293,1.414-.8q2.306,1.415,4.694,2.693a2.138,2.138,0,0,1,1.243,2.139c-.039,1.754-.018,3.51,0,5.265a1.672,1.672,0,0,0,2.886,1.135,1.826,1.826,0,0,0,.521-1.386c0-2.493,0-4.987,0-7.48a2.31,2.31,0,0,0-1.3-2.193c-1.324-.723-2.615-1.506-3.936-2.237a1.116,1.116,0,0,1-.641-1.1c.018-2.805.008-5.61.009-8.415,0-.96.413-1.232,1.323-.876q2.405.94,4.809,1.883,2.908,1.139,5.815,2.279a1.2,1.2,0,0,0,1.361-.257,1.049,1.049,0,0,0,.253-1.305,1.816,1.816,0,0,0-.849-.74q-5.688-2.267-11.4-4.468a3.9,3.9,0,0,0-1.336-.282c-2.677-.025-5.355-.03-8.033,0a3.177,3.177,0,0,0-1.4.37c-2.284,1.224-4.545,2.489-6.811,3.749a1.265,1.265,0,0,0-.54,1.974q2.32,4.167,4.644,8.331a2.641,2.641,0,0,0,.266.412,1.24,1.24,0,0,0,1.609.221,1.149,1.149,0,0,0,.441-1.424,4.291,4.291,0,0,0-.265-.526q-1.78-3.2-3.562-6.4c-.414-.744-.323-1.065.408-1.472q1.785-.992,3.572-1.979a1.641,1.641,0,0,1,.754-.245C7115.641,13.218,7115.866,13.576,7115.866,14.28Zm9.766.637c0,2.361-.009,4.722.011,7.083a.687.687,0,0,0,.328.459c1.13.665,2.266,1.322,3.417,1.951a3.791,3.791,0,0,1,2.1,3.615c-.016,2.148,0,4.3,0,6.443v.6c.2-.164.307-.241.4-.325,1.875-1.62,3.744-3.245,5.627-4.855a.888.888,0,0,0,.331-.759c-.009-3.361-.006-6.722-.007-10.083,0-.153-.017-.307-.029-.512a3.183,3.183,0,0,1-2.752-.1c-1.85-.758-3.715-1.476-5.576-2.208-1.262-.5-2.526-.988-3.8-1.488A.881.881,0,0,0,7125.632,14.917Zm-13.68,1.627,2.408,4.329V15.208Zm32.242-2.969h5.67c-.376-.565-.7-1.075-1.048-1.567a.931.931,0,0,1,.011-1.214c.354-.482.672-.99,1.041-1.539h-2.753c0,.324,0,.616,0,.908-.007.75-.262,1.009-1,1.012-.634,0-1.268,0-1.921,0Zm-4.864-3.9h6.274V5.358h-6.274Zm-21.849,43.244c.146-.2.274-.385.408-.563.755-1.011,1.53-2.008,2.261-3.037a1.4,1.4,0,0,1,1.286-.633c.83.014,1.661.012,2.491.011.7,0,1.392,0,2.088.005a1.114,1.114,0,0,0,.9-.362c1.065-1.114,2.155-2.2,3.266-3.334l1.008,1.112c-.993,1-2.073,2-3.054,3.1a2.663,2.663,0,0,1-2.354.981c-.822-.055-1.649-.045-2.476-.034-.487.006-.976.012-1.462,0a.837.837,0,0,0-.777.381c-.782,1.071-1.59,2.122-2.425,3.228Zm2.508-45.648a4.665,4.665,0,0,1-4.615-4.708A4.685,4.685,0,0,1,7120.035-2a4.649,4.649,0,0,1,4.61,4.66,4.659,4.659,0,0,1-4.607,4.613Zm-3.14-4.661a3.161,3.161,0,1,0,3.188-3.13h-.043A3.169,3.169,0,0,0,7116.85,2.612Z" transform="translate(-7091.473 2.5)" fill="#e82d89" stroke="rgba(0,0,0,0)" stroke-miterlimit="10" stroke-width="1"/>
</svg>
