<svg xmlns="http://www.w3.org/2000/svg" width="43.925" height="60" viewBox="0 0 43.925 60">
  <path id="Объединение_475" data-name="Объединение 475" d="M7135.041,58h-42.163a.881.881,0,0,1-.879-.879s0,0,0-.007v-4.38a.878.878,0,0,1,1.757,0v3.508h6.442V50.451a.878.878,0,0,1,1.757,0v5.792h8.862l1.059-11.378-3.161-3.161-3.22-2.147h-6.763a4.984,4.984,0,0,0-4.978,4.974s0,0,0,0v4.685a.878.878,0,0,1-1.757,0V44.543s0,0,0-.007a6.743,6.743,0,0,1,6.735-6.735h6.15v-3.67a14.918,14.918,0,0,1-5.856-11.85v-4.5c0-.006,0-.011,0-.017-.839-6.707.156-11.557,3.042-14.825C7105.9-1.4,7112.309-2,7118.668-2c.836,0,1.662.009,2.46.018.769.009,1.5.017,2.2.017a.878.878,0,0,1,.878.878c0,2.849,0,4.342,0,5.106a6.051,6.051,0,0,1,3.336,2.118c1.938,2.4,2.391,6.3,1.349,11.585v4.558a14.917,14.917,0,0,1-5.857,11.85V37.8h6.15a6.743,6.743,0,0,1,6.735,6.735V57.122a.878.878,0,0,1-.878.878Zm-15.834-16.3-3.161,3.161,1.059,11.378h17.062V44.536a4.984,4.984,0,0,0-4.978-4.978h-6.762Zm-6.624,14.538h2.757l-1.007-10.828h-.742ZM7111,41.5l2.159,2.16h1.615l2.159-2.16-2.967-.742Zm3.845-4.309v1.976l3.643.911,2.8-1.866V35.294A14.827,14.827,0,0,1,7114.84,37.189Zm-8.2,1.02,2.8,1.866,3.643-.911V37.189a14.825,14.825,0,0,1-6.442-1.9Zm7.5-2.753a13.192,13.192,0,0,0,13-13.175V17.868L7125,13.6c-2.1.632-8.274,2.377-12.328,2.377a19.827,19.827,0,0,1-8.7-2.3l-3.189,4.253v4.347a13.192,13.192,0,0,0,13,13.175.886.886,0,0,1,.355,0ZM7103.384,4.1c-2.216,2.51-3.149,6.191-2.83,11.211l2.474-3.3a.878.878,0,0,1,1.161-.222,18.626,18.626,0,0,0,8.489,2.427c4.57,0,12.435-2.49,12.514-2.515a.879.879,0,0,1,1.053.444l1.323,2.646c.348-3.376-.112-5.948-1.36-7.52a4.132,4.132,0,0,0-2.894-1.623.872.872,0,0,1-.859-.878s0-.66,0-4.986c-.437,0-.884-.008-1.345-.013-.794-.009-1.614-.018-2.44-.018C7112.721-.243,7106.753.283,7103.384,4.1Zm16.435,49.571a.878.878,0,0,1-.878-.878V46.937a.878.878,0,0,1,.878-.878h2.636V44.595a.878.878,0,0,1,.878-.878h3.514a.878.878,0,0,1,.878.878v1.464h2.636a.878.878,0,0,1,.878.878v5.857a.878.878,0,0,1-.878.878Zm.878-1.757h8.785v-4.1H7120.7Zm3.514-5.857h1.757v-.586h-1.757Z" transform="translate(-7092 2)" fill="#e82d89"/>
</svg>
