<svg xmlns="http://www.w3.org/2000/svg" width="16.85" height="16.846" viewBox="0 0 16.85 16.846">
  <path id="Icon_awesome-instagram" data-name="Icon awesome-instagram" d="M8.421,6.342a4.319,4.319,0,1,0,4.319,4.319A4.312,4.312,0,0,0,8.421,6.342Zm0,7.127a2.808,2.808,0,1,1,2.808-2.808A2.813,2.813,0,0,1,8.421,13.469Zm5.5-7.3a1.007,1.007,0,1,1-1.007-1.007A1.005,1.005,0,0,1,13.925,6.165Zm2.861,1.022a4.985,4.985,0,0,0-1.361-3.53A5.018,5.018,0,0,0,11.895,2.3c-1.391-.079-5.56-.079-6.95,0a5.011,5.011,0,0,0-3.53,1.357A5,5,0,0,0,.054,7.184c-.079,1.391-.079,5.56,0,6.95a4.985,4.985,0,0,0,1.361,3.53,5.025,5.025,0,0,0,3.53,1.361c1.391.079,5.56.079,6.95,0a4.985,4.985,0,0,0,3.53-1.361,5.018,5.018,0,0,0,1.361-3.53c.079-1.391.079-5.556,0-6.947Zm-1.8,8.439a2.843,2.843,0,0,1-1.6,1.6c-1.109.44-3.74.338-4.966.338s-3.86.1-4.966-.338a2.843,2.843,0,0,1-1.6-1.6c-.44-1.109-.338-3.74-.338-4.966s-.1-3.86.338-4.966a2.843,2.843,0,0,1,1.6-1.6c1.109-.44,3.74-.338,4.966-.338s3.86-.1,4.966.338a2.843,2.843,0,0,1,1.6,1.6c.44,1.109.338,3.74.338,4.966S15.428,14.521,14.988,15.626Z" transform="translate(0.005 -2.238)" fill="#fff"/>
</svg>
