<svg xmlns="http://www.w3.org/2000/svg" width="208.505" height="55.261" viewBox="0 0 208.505 55.261">
  <g id="Сгруппировать_6923" data-name="Сгруппировать 6923" transform="translate(-347.495 -106.309)">
    <path id="Объединение_1" data-name="Объединение 1" d="M28.679,31.343c-.623-.117-1.253-.206-1.867-.36a13.686,13.686,0,0,1-7.43-4.733,9.5,9.5,0,0,1-1.7-3.807,12.12,12.12,0,0,1,1.06-8.776,8.9,8.9,0,0,1,2.027-2.408,13.375,13.375,0,0,1,6.465-3.515,11.326,11.326,0,0,1,9.446,2.044,9.066,9.066,0,0,1,2.034,2.306V8h3.006V30.766H38.748V26.737l-.072-.016c-.041.059-.09.114-.128.176a9.408,9.408,0,0,1-6.14,4.158c-.529.123-1.066.194-1.6.288Zm-8.24-11.828a9.22,9.22,0,0,0,9.34,8.886,9.064,9.064,0,0,0,8.948-8.886,8.965,8.965,0,0,0-9.047-9.085A9.188,9.188,0,0,0,20.439,19.514Zm76.8,11.826c-.621-.115-1.251-.2-1.865-.359a13.686,13.686,0,0,1-7.43-4.733,9.472,9.472,0,0,1-1.7-3.808,12.116,12.116,0,0,1,1.062-8.774,8.806,8.806,0,0,1,2.025-2.408A13.377,13.377,0,0,1,95.8,7.743a11.329,11.329,0,0,1,9.448,2.044,9.007,9.007,0,0,1,2.034,2.306v-4.1h3.008V30.766h-2.979V26.737l-.072-.016c-.041.057-.09.114-.128.176a9.4,9.4,0,0,1-6.14,4.156c-.527.123-1.064.2-1.6.288ZM89,19.525A9.224,9.224,0,0,0,98.348,28.4a9.065,9.065,0,0,0,8.937-8.9,8.965,8.965,0,0,0-9.059-9.074A9.189,9.189,0,0,0,89,19.525Zm40.684,10.983q-3.534-4.243-7.081-8.476c-.052-.062-.106-.124-.191-.218-.916,1.158-1.759,2.333-2.72,3.4a3.462,3.462,0,0,0-.959,2.811c.083.9.018,1.811.018,2.74h-3.141V.028h3.13V21.572c.144-.174.223-.265.3-.359q5.049-6.5,10.091-12.993a.547.547,0,0,1,.495-.249c1.217.012,2.437.005,3.744.005-3,3.833-5.97,7.615-8.957,11.429,3.168,3.775,6.334,7.542,9.536,11.356-.14.011-.236.025-.333.025q-.551,0-1.1,0c-.733,0-1.467,0-2.2.007h-.026A.7.7,0,0,1,129.682,30.508Zm7.158.275V7.975h3.166V30.783Zm-74.205-.011v-.417c0-4.35,0-8.7-.018-13.046a7.164,7.164,0,0,0-.509-3.08,6.208,6.208,0,0,0-5.346-3.768,5.878,5.878,0,0,0-6.221,3.913,8.355,8.355,0,0,0-.324,2.3c-.034,4.536-.023,9.071-.027,13.607v.474H47.042V8.006H49.99v2.788a1.314,1.314,0,0,0,.151-.169A5.848,5.848,0,0,1,54.5,7.647a9.318,9.318,0,0,1,9.045,3.148c.254.289.455.621.68.934,1.359-2.512,3.652-3.654,6.348-4.135a8.208,8.208,0,0,1,5.54.98,14.111,14.111,0,0,1,3.325,2.6,6.781,6.781,0,0,1,1.8,4.307c.1,1.17.135,2.349.139,3.524.018,3.776.007,7.555.007,11.333v.43H78.219c0-.146,0-.293,0-.44-.005-4.428.018-8.86-.034-13.288a6.548,6.548,0,0,0-2.032-4.975,6.416,6.416,0,0,0-9.38.927,4.764,4.764,0,0,0-.862,2.548c-.072,1.385-.124,2.772-.131,4.156-.018,3.546-.007,7.088-.007,10.632v.447ZM7.166,30.757V2.816H0V.02H17.388V2.8H10.321V30.757ZM136.842,5.248V0h3.164V5.248Z" transform="translate(415.994 118.268)" fill="#040505"/>
    <circle id="Эллипс_3265" data-name="Эллипс 3265" cx="26.5" cy="26.5" r="26.5" transform="translate(349 107.809)" fill="#fff"/>
    <path id="Вычитание_1" data-name="Вычитание 1" d="M27.345,54.261A27.275,27.275,0,0,1,8.009,46.314a26.981,26.981,0,0,1,0-38.368,27.5,27.5,0,0,1,38.674,0,26.979,26.979,0,0,1,0,38.368A27.278,27.278,0,0,1,27.345,54.261Zm1.28-28.59H31v16.5h2.376v-16.5h9.5V18.6h-28.5V16.247h28.5V13.889H12v7.069H40.5v2.358H12v2.355h9.5v16.5h2.375v-16.5h2.376v16.5h2.374v-16.5Z" transform="translate(347.995 106.809)" fill="#e82d89" stroke="rgba(0,0,0,0)" stroke-miterlimit="10" stroke-width="1"/>
  </g>
</svg>
