<svg xmlns="http://www.w3.org/2000/svg" width="57.493" height="721" viewBox="0 0 57.493 721">
  <path id="Пересечение_35" data-name="Пересечение 35" d="M3874.694,2326c4-21.367,7.663-42.873,10.93-64.252,4.906-32.114,9.061-64.812,12.349-97.189,3.312-32.613,5.836-65.793,7.5-98.624,1.676-33.074,2.527-66.7,2.527-99.935s-.851-66.861-2.527-99.935c-1.664-32.831-4.188-66.012-7.5-98.623-3.288-32.377-7.443-65.076-12.349-97.189-3.317-21.712-7.041-43.557-11.118-65.252h24.419c3.8,20.494,7.29,41.1,10.422,61.6,4.967,32.51,9.174,65.613,12.5,98.391,3.353,33.022,5.908,66.614,7.592,99.842,1.7,33.485,2.559,67.523,2.559,101.17s-.86,67.686-2.559,101.17c-1.684,33.228-4.239,66.819-7.592,99.842-3.328,32.778-7.535,65.882-12.5,98.39-3.081,20.16-6.506,40.434-10.236,60.6Z" transform="translate(-3874.507 -1605)" fill="#edf2f7"/>
</svg>
