<svg xmlns="http://www.w3.org/2000/svg" width="96" height="14.999" viewBox="0 0 96 14.999">
  <g id="Объединение_442" data-name="Объединение 442" transform="translate(-9210 1.999)" fill="none">
    <path d="M9298,10.989,9293.055,13l.416-5.257L9290,3.73l5.2-1.238L9298-2l2.8,4.491L9306,3.73l-3.471,4.012.416,5.257Zm-20,0L9273.056,13l.413-5.257L9270,3.73l5.2-1.238L9278-2l2.8,4.491L9286,3.73l-3.468,4.012.413,5.257Zm-20,0L9253.057,13l.413-5.257L9250,3.73l5.2-1.238L9258-2l2.8,4.491L9266,3.73l-3.471,4.012.416,5.257Zm-20,0L9233.056,13l.413-5.257L9230,3.73l5.2-1.238L9238-2l2.8,4.491L9246,3.73l-3.469,4.012.414,5.257Zm-20,0L9213.057,13l.413-5.257L9210,3.73l5.2-1.238L9218-2l2.8,4.491L9226,3.73l-3.471,4.012.416,5.257Z" stroke="none"/>
    <path d="M 9281.8203125 11.46278476715088 L 9281.5341796875 7.820512771606445 L 9281.501953125 7.404219627380371 L 9281.7744140625 7.088286399841309 L 9284.166015625 4.321352958679199 L 9280.568359375 3.464792966842651 L 9280.1689453125 3.369632959365845 L 9279.951171875 3.021006345748901 L 9278 -0.1091407611966133 L 9276.0478515625 3.021139621734619 L 9275.830078125 3.369646310806274 L 9275.4306640625 3.464779615402222 L 9271.833984375 4.321289539337158 L 9274.2255859375 7.088286399841309 L 9274.498046875 7.404219627380371 L 9274.4658203125 7.820512771606445 L 9274.1796875 11.46278476715088 L 9277.623046875 10.06220626831055 L 9278 9.908992767333984 L 9278.376953125 10.06220626831055 L 9281.8203125 11.46278476715088 M 9234.1796875 11.46278476715088 L 9237.623046875 10.06220626831055 L 9238 9.908992767333984 L 9238.376953125 10.06220626831055 L 9241.8203125 11.46266460418701 L 9241.533203125 7.820699691772461 L 9241.5009765625 7.404219627380371 L 9241.7734375 7.088179588317871 L 9244.166015625 4.321293354034424 L 9240.568359375 3.464792966842651 L 9240.1689453125 3.369632959365845 L 9239.951171875 3.021006345748901 L 9238 -0.1091407611966133 L 9236.0478515625 3.021139621734619 L 9235.830078125 3.369646310806274 L 9235.4306640625 3.464779615402222 L 9231.833984375 4.321289539337158 L 9234.2255859375 7.088286399841309 L 9234.498046875 7.404219627380371 L 9234.4658203125 7.820512771606445 L 9234.1796875 11.46278476715088 M 9254.1806640625 11.46278285980225 L 9257.6240234375 10.06220626831055 L 9258.0009765625 9.908992767333984 L 9258.3779296875 10.06220626831055 L 9261.8203125 11.46240997314453 L 9261.5322265625 7.821059703826904 L 9261.4990234375 7.404219627380371 L 9261.7734375 7.087966442108154 L 9264.166015625 4.321287631988525 L 9260.5673828125 3.464806318283081 L 9260.1669921875 3.369632959365845 L 9259.9501953125 3.020739555358887 L 9258.0009765625 -0.1084242910146713 L 9256.0498046875 3.021006345748901 L 9255.83203125 3.369686365127563 L 9255.4326171875 3.464806318283081 L 9251.833984375 4.321346759796143 L 9254.2265625 7.088072776794434 L 9254.4990234375 7.404059886932373 L 9254.466796875 7.820512771606445 L 9254.1806640625 11.46278285980225 M 9214.1806640625 11.46278285980225 L 9217.6240234375 10.06220626831055 L 9218.0009765625 9.908992767333984 L 9218.3779296875 10.06220626831055 L 9221.8203125 11.46240997314453 L 9221.5322265625 7.821073055267334 L 9221.4990234375 7.404219627380371 L 9221.7734375 7.087966442108154 L 9224.166015625 4.321287631988525 L 9220.5673828125 3.464806318283081 L 9220.1669921875 3.369632959365845 L 9219.9501953125 3.020739555358887 L 9218.0009765625 -0.1086691990494728 L 9216.048828125 3.021139621734619 L 9215.8310546875 3.369686365127563 L 9215.431640625 3.464806318283081 L 9211.833984375 4.321295738220215 L 9214.2265625 7.088072776794434 L 9214.4990234375 7.404059886932373 L 9214.466796875 7.820512771606445 L 9214.1806640625 11.46278285980225 M 9294.1796875 11.46265983581543 L 9297.6240234375 10.06215286254883 L 9298.0009765625 9.909019470214844 L 9298.3779296875 10.06220626831055 L 9301.8203125 11.46240997314453 L 9301.5322265625 7.821073055267334 L 9301.4990234375 7.404219627380371 L 9301.7734375 7.087966442108154 L 9304.166015625 4.321287631988525 L 9300.5673828125 3.464806318283081 L 9300.1669921875 3.369632959365845 L 9299.9501953125 3.020739555358887 L 9298.0009765625 -0.1084242910146713 L 9296.0498046875 3.021006345748901 L 9295.83203125 3.369686365127563 L 9295.4326171875 3.464806318283081 L 9291.833984375 4.321287631988525 L 9294.2265625 7.087966442108154 L 9294.5009765625 7.404219627380371 L 9294.4677734375 7.821059703826904 L 9294.1796875 11.46265983581543 M 9302.9453125 12.99938011169434 L 9298.0009765625 10.98852634429932 L 9293.0546875 12.99938011169434 L 9293.470703125 7.742179870605469 L 9290 3.729793071746826 L 9295.201171875 2.491979598999023 L 9298.0009765625 -1.999180316925049 L 9300.798828125 2.491979598999023 L 9306 3.729793071746826 L 9302.529296875 7.742179870605469 L 9302.9453125 12.99938011169434 Z M 9282.9443359375 12.99938011169434 L 9278 10.98852634429932 L 9273.0556640625 12.99938011169434 L 9273.46875 7.742179870605469 L 9270.0009765625 3.729793071746826 L 9275.19921875 2.491979598999023 L 9278 -1.999180316925049 L 9280.7998046875 2.491979598999023 L 9285.9990234375 3.729793071746826 L 9282.53125 7.742179870605469 L 9282.9443359375 12.99938011169434 Z M 9262.9453125 12.99938011169434 L 9258.0009765625 10.98852634429932 L 9253.056640625 12.99938011169434 L 9253.4697265625 7.742179870605469 L 9250 3.729793071746826 L 9255.201171875 2.491979598999023 L 9258.0009765625 -1.999180316925049 L 9260.798828125 2.491979598999023 L 9266 3.729793071746826 L 9262.529296875 7.742179870605469 L 9262.9453125 12.99938011169434 Z M 9242.9443359375 12.99938011169434 L 9238 10.98852634429932 L 9233.0556640625 12.99938011169434 L 9233.46875 7.742179870605469 L 9230.0009765625 3.729793071746826 L 9235.19921875 2.491979598999023 L 9238 -1.999180316925049 L 9240.7998046875 2.491979598999023 L 9245.9990234375 3.729793071746826 L 9242.5302734375 7.742179870605469 L 9242.9443359375 12.99938011169434 Z M 9222.9453125 12.99938011169434 L 9218.0009765625 10.98852634429932 L 9213.056640625 12.99938011169434 L 9213.4697265625 7.742179870605469 L 9210 3.729793071746826 L 9215.2001953125 2.491979598999023 L 9218.0009765625 -1.999180316925049 L 9220.798828125 2.491979598999023 L 9226 3.729793071746826 L 9222.529296875 7.742179870605469 L 9222.9453125 12.99938011169434 Z" stroke="none" fill="#e2e8f0"/>
  </g>
</svg>
