<svg xmlns="http://www.w3.org/2000/svg" width="260.001" height="248" viewBox="0 0 260.001 248">
  <g id="Сгруппировать_1255" data-name="Сгруппировать 1255" transform="translate(9598.265 1432.402)">
    <g id="Пересечение_38" data-name="Пересечение 38" transform="translate(-9468.265 -1432.402)" fill="#e82d89">
      <path d="M 128.7329559326172 123.5 C 120.0827865600586 123.5 111.4370803833008 122.6571807861328 103.036018371582 120.9949493408203 C 94.84798431396484 119.374885559082 86.79126739501953 116.9570999145508 79.08966827392578 113.8087692260742 C 71.52799987792969 110.7176361083984 64.23020172119141 106.8907165527344 57.39898300170898 102.4343490600586 C 50.63358306884766 98.02091979980469 44.26503372192383 92.95078277587891 38.47021484375 87.36475372314453 C 32.67701721191406 81.78029632568359 27.40818405151367 75.63298034667969 22.81004905700684 69.09353637695313 C 18.1696662902832 62.4940185546875 14.17083358764648 55.43560028076172 10.92465019226074 48.11433410644531 C 7.619966506958008 40.66111755371094 5.061216831207275 32.85738372802734 3.319499969482422 24.91988372802734 C 1.568677544593811 16.94085311889648 0.6225860714912415 8.728660583496094 0.5060424208641052 0.5021781325340271 C 0.761000394821167 0.5007301568984985 1.015577912330627 0.5 1.267099976539612 0.5 C 9.916999816894531 0.5 18.5624828338623 1.342783331871033 26.96338272094727 3.004950046539307 C 35.15128326416016 4.624983310699463 43.20788192749023 7.042683124542236 50.90940093994141 10.19093322753906 C 58.47105026245117 13.28198337554932 65.76883697509766 17.10880088806152 72.60005187988281 21.56508255004883 C 79.36548614501953 25.97843360900879 85.73408508300781 31.04850006103516 91.52895355224609 36.63443374633789 C 97.32223510742188 42.21883392333984 102.5911483764648 48.36611557006836 107.1893692016602 54.90549850463867 C 111.8298492431641 61.5050163269043 115.8287658691406 68.56345367431641 119.0750350952148 75.88473510742188 C 122.3798141479492 83.33803558349609 124.9386367797852 91.14186859130859 126.6803970336914 99.07948303222656 C 128.4312896728516 107.0586776733398 129.3774108886719 115.2710723876953 129.4939575195313 123.497802734375 C 129.2372436523438 123.4992599487305 128.9826812744141 123.5 128.7329559326172 123.5 Z" stroke="none"/>
      <path d="M 1.267105102539063 1 C 1.183151245117188 1 1.098785400390625 1.000083923339844 1.014205932617188 1.000244140625 C 1.1611328125 9.024093627929688 2.10009765625 17.02978515625 3.807884216308594 24.81271362304688 C 5.54241943359375 32.71746826171875 8.090629577636719 40.48908233642578 11.38173675537109 47.91166687011719 C 14.61473083496094 55.20318603515625 18.59738159179688 62.2330322265625 23.21904754638672 68.80593872070313 C 27.79891967773438 75.31939697265625 33.04689788818359 81.44236755371094 38.81721496582031 87.00476837158203 C 44.58940124511719 92.5689697265625 50.93311309814453 97.61933135986328 57.67214965820313 102.0155792236328 C 64.47689819335938 106.4546813964844 71.74644470214844 110.2667694091797 79.27886962890625 113.345947265625 C 86.95076751708984 116.4821319580078 94.97647094726563 118.8906173706055 103.1330490112305 120.5044631958008 C 111.5022354125977 122.1603851318359 120.1152801513672 123 128.7329406738281 123 C 128.8167114257813 123 128.9010162353516 122.9999160766602 128.9857940673828 122.9997482299805 C 128.8388671875 114.9756622314453 127.8998641967773 106.9697265625 126.1920166015625 99.1866455078125 C 124.4574356079102 91.28176879882813 121.9091491699219 83.51007080078125 118.6179504394531 76.08741760253906 C 115.384880065918 68.79586791992188 111.4021301269531 61.76599884033203 106.7803649902344 55.19309997558594 C 102.2004165649414 48.67970275878906 96.95234680175781 42.55677032470703 91.18194580078125 36.99441528320313 C 85.40971374511719 31.4302978515625 79.06594848632813 26.38002014160156 72.32686614990234 21.98384857177734 C 65.52211761474609 17.54485321044922 58.25258636474609 13.73284912109375 50.72021484375 10.65374755859375 C 43.04838562011719 7.517646789550781 35.02278137207031 5.1092529296875 26.8663330078125 3.495452880859375 C 18.497314453125 1.839584350585938 9.884498596191406 1 1.267105102539063 1 M 1.267105102539063 0 C 71.93759918212891 0 129.3092498779297 55.40052032470703 130 123.9940185546875 C 129.5800170898438 123.997917175293 129.1539001464844 124 128.7329406738281 124 C 58.06015014648438 124 0.6907501220703125 68.59730529785156 0 0.005950927734375 C 0.4199981689453125 0.00203704833984375 0.846160888671875 0 1.267105102539063 0 Z" stroke="none" fill="#e82d89"/>
    </g>
    <path id="Пересечение_41" data-name="Пересечение 41" d="M0,123.994c.42,0,.846.006,1.267.006C71.938,124,129.309,68.6,130,.006c-.42,0-.846-.006-1.267-.006C58.06,0,.691,55.4,0,123.994Z" transform="translate(-9468.265 -1308.402)" fill="#272524"/>
    <path id="Пересечение_39" data-name="Пересечение 39" d="M0,123.994c.42,0,.846.006,1.267.006C71.938,124,129.309,68.6,130,.006c-.42,0-.846-.006-1.267-.006C58.06,0,.691,55.4,0,123.994Z" transform="translate(-9468.265 -1308.402) rotate(180)" fill="#272524"/>
    <path id="Пересечение_40" data-name="Пересечение 40" d="M0,3.006C.423,3,.842,3,1.267,3c70.676,0,128.05,55.4,128.733,124-.424,0-.843.006-1.268.006C58.061,127,.69,71.6,0,3.006Z" transform="translate(-9468.265 -1181.402) rotate(180)" fill="#e82d89"/>
  </g>
</svg>
