<svg xmlns="http://www.w3.org/2000/svg" width="350.963" height="350.959" viewBox="0 0 350.963 350.959">
  <g id="Сгруппировать_6917" data-name="Сгруппировать 6917" transform="translate(-430.858 -67.132)">
    <path id="Контур_1192" data-name="Контур 1192" d="M439.253,90.494a174.61,174.61,0,0,0-6.96,19.883L649.219,327.3a175.456,175.456,0,0,0,19.883-6.956Z" transform="translate(5.167 84.185)" fill="#aec912"/>
    <path id="Контур_1193" data-name="Контур 1193" d="M444.7,84.4a174.406,174.406,0,0,0-9.791,17.047L670.7,337.23a173.446,173.446,0,0,0,17.047-9.792Z" transform="translate(14.601 62.208)" fill="#aec912"/>
    <path id="Контур_1194" data-name="Контур 1194" d="M450.76,79.178a175.9,175.9,0,0,0-12.273,14.561L684.31,339.562a175.916,175.916,0,0,0,14.561-12.273Z" transform="translate(27.491 43.408)" fill="#aec912"/>
    <path id="Контур_1195" data-name="Контур 1195" d="M590.788,178.644A175.7,175.7,0,0,0,481.293,69.149Z" transform="translate(181.744 7.268)" fill="#aec912"/>
    <path id="Контур_1196" data-name="Контур 1196" d="M571.712,273.9a176.3,176.3,0,0,0,30.185,3.351L430.858,106.215a176.378,176.378,0,0,0,3.352,30.19Z" transform="translate(0 140.836)" fill="#aec912"/>
    <path id="Контур_1197" data-name="Контур 1197" d="M434.065,97.631a176.744,176.744,0,0,0-3.14,23.7L617.473,307.878a176.165,176.165,0,0,0,23.7-3.14Z" transform="translate(0.241 109.904)" fill="#aec912"/>
    <path id="Контур_1198" data-name="Контур 1198" d="M465.169,71.183a174.421,174.421,0,0,0-17.047,9.792L691.165,324.018a173.525,173.525,0,0,0,9.792-17.047Z" transform="translate(62.211 14.598)" fill="#aec912"/>
    <path id="Контур_1199" data-name="Контур 1199" d="M500.127,70.479a175.826,175.826,0,0,0-30.185-3.347L640.981,238.167a176.351,176.351,0,0,0-3.351-30.185Z" transform="translate(140.84 0)" fill="#aec912"/>
    <path id="Контур_1200" data-name="Контур 1200" d="M432.876,117.566A175.7,175.7,0,0,0,542.371,227.061Z" transform="translate(7.272 181.74)" fill="#aec912"/>
    <path id="Контур_1201" data-name="Контур 1201" d="M474.1,68.565a174.605,174.605,0,0,0-19.883,6.961L684.07,305.375a174.569,174.569,0,0,0,6.96-19.883Z" transform="translate(84.189 5.164)" fill="#aec912"/>
    <path id="Контур_1202" data-name="Контур 1202" d="M485.061,67.2a176.917,176.917,0,0,0-23.7,3.14L668.469,277.45a176.9,176.9,0,0,0,3.14-23.7Z" transform="translate(109.904 0.238)" fill="#aec912"/>
    <path id="Контур_1203" data-name="Контур 1203" d="M457.466,74.76A176.818,176.818,0,0,0,442.9,87.033L691.016,335.144a175.96,175.96,0,0,0,12.273-14.561Z" transform="translate(43.412 27.488)" fill="#aec912"/>
  </g>
</svg>
