<svg xmlns="http://www.w3.org/2000/svg" width="94" height="94" viewBox="0 0 94 94">
  <g id="Сгруппировать_6923" data-name="Сгруппировать 6923" transform="translate(-1116 -1209)">
    <circle id="Эллипс_3303" data-name="Эллипс 3303" cx="47" cy="47" r="47" transform="translate(1116 1209)" fill="#fff"/>
    <g id="Сгруппировать_1210" data-name="Сгруппировать 1210" transform="translate(1530.532 1299.24)">
      <path id="Контур_2095" data-name="Контур 2095" d="M277.621,7.282c-1.071,0-2.147-.061-3.213.015-1.349.1-2.691.3-4.032.48-.1.014-.256.235-.257.361-.015,1.572-.089,3.151.031,4.715a9.67,9.67,0,0,0,.754,2.25c.036.105.026.227.068.329.26.631.528,1.258.8,1.886a12.666,12.666,0,0,0,.591,1.334c.363.633.786,1.232,1.179,1.848.221.346.411.714.652,1.045.405.555.834,1.093,1.266,1.627.461.57.92,1.143,1.414,1.683a9.59,9.59,0,0,0,1.1,1.008c.557.444,1.141.854,1.713,1.279.018.014.035.036.055.039a20.533,20.533,0,0,0,3.245.471c.561,0,1.1-.587,1.693-.788.18-.061.537.241.744.446.393.388.72.843,1.105,1.239a.827.827,0,0,1-.248,1.409c-.779.413-1.533.872-2.306,1.3a.945.945,0,0,1-.432.069,21.971,21.971,0,0,1-3.14-.029,10.148,10.148,0,0,1-2.253-.831,5.263,5.263,0,0,1-1.012-.487c-.558-.38-1.075-.819-1.619-1.219-.315-.232-.652-.435-.977-.655a1.348,1.348,0,0,1-.3-.229c-.414-.5-.827-1.01-1.222-1.53s-.776-1.073-1.17-1.605c-.083-.112-.226-.182-.3-.3-.5-.8-.975-1.619-1.492-2.409-.372-.569-.8-1.1-1.2-1.653a1.2,1.2,0,0,1-.1-.244c-.28-.672-.577-1.338-.834-2.019a11.054,11.054,0,0,1-.543-1.7,14.351,14.351,0,0,0-.515-2.952c-.8-1.8-.229-3.616-.332-5.415a6.323,6.323,0,0,1,.475-2.34c.315-.9.79-1.751,1.174-2.632a12.142,12.142,0,0,1,.583-1.484c.527-.868,1.148-1.678,1.712-2.523.2-.3.322-.66.537-.95a13.037,13.037,0,0,1,1.042-1.229c.361-.379.77-.711,1.142-1.08.4-.392.77-.8,1.158-1.2q.824-.847,1.655-1.687c.052-.053.155-.136.186-.119a7.709,7.709,0,0,1,1.105.664c.434.348.819.758,1.218,1.149.369.36.728.729,1.092,1.1.384.387.8.752,1.145,1.17.4.48.742,1.01,1.12,1.509.127.168.318.292.428.468.459.737.929,1.47,1.333,2.237.224.426.3.928.49,1.374.254.591.559,1.16.839,1.74a.692.692,0,0,1,.078.254c.142,2.84.332,5.678.393,8.52a16.819,16.819,0,0,1-.415,3.151,9.689,9.689,0,0,1-.479,1.794c-.252.664-.489,1.737-.928,1.847a15.086,15.086,0,0,1-3.475.114,3.1,3.1,0,0,1,.018-.689,5.238,5.238,0,0,1,.36-1.018c.229-.476.5-.932.76-1.395.037-.067.116-.123.126-.192a29.339,29.339,0,0,0,.436-3.144c.073-1.843.047-3.692,0-5.537a.914.914,0,0,0-.629-.631c-1.193-.064-2.392-.03-3.588-.03Zm-1.665-2.669V4.581c1.366,0,2.734.035,4.1-.028.3-.014.58-.371.856-.587.032-.025-.008-.167-.04-.244-.26-.621-.51-1.247-.8-1.855a8.3,8.3,0,0,0-.758-1.379,10.957,10.957,0,0,0-1.038-1.072c-.521-.537-.954-1.268-1.587-1.546-.357-.157-1.085.363-1.56.7-.309.219-.443.673-.691.994-.523.679-1.069,1.34-1.606,2.008a4.663,4.663,0,0,0-.456.566,16.866,16.866,0,0,0-.81,1.557,1.486,1.486,0,0,0-.067.752c.009.072.275.158.425.16C273.269,4.619,274.613,4.613,275.956,4.613Z" transform="translate(-621.352 -54.675)" fill="#6a7058"/>
      <path id="Контур_2096" data-name="Контур 2096" d="M-399.319,47.548a23.586,23.586,0,0,1,.016-2.426c.1-.982.308-1.954.5-2.923a10,10,0,0,1,.472-1.694,10.383,10.383,0,0,1,.715-1.228,10.577,10.577,0,0,0,.559-1.068c.186-.438.3-.907.5-1.34.092-.2.307-.35.449-.536.417-.546.838-1.09,1.23-1.653.206-.3.31-.667.538-.939.477-.568,1-1.1,1.517-1.633.383-.4.768-.793,1.188-1.147.674-.569,1.38-1.1,2.065-1.653.158-.127.277-.3.434-.431.953-.779,1.086.448,1.6.708a4.613,4.613,0,0,1,1.232,1.2c.233.272.344.646.564.931.337.436.74.822,1.081,1.255a12.142,12.142,0,0,1,.77,1.14c.431.7.846,1.407,1.267,2.111a.446.446,0,0,1,.064.118c.159.712.332,1.422.469,2.139a9.211,9.211,0,0,0,.565,2.853c.6,1.021.321,2,.318,2.97a16.472,16.472,0,0,1-.476,3.409,19.308,19.308,0,0,1-.875,2.74c-.414,1.085-.86,2.162-1.365,3.206-.346.715-.835,1.36-1.231,2.054-.355.623-.657,1.276-1.009,1.9a3.861,3.861,0,0,1-.459.518c-.566.675-1.143,1.341-1.685,2.034-.382.489-.692,1.035-1.075,1.522a14.771,14.771,0,0,1-1.06,1.151,15.77,15.77,0,0,1-1.206,1.173c-.333.275-.745.452-1.1.7-.565.4-1.1.839-1.673,1.228a3.082,3.082,0,0,1-.954.465c-.855.212-1.727.35-2.586.547a2.091,2.091,0,0,0-.857.354,1.056,1.056,0,0,1-1.414-.5,4.8,4.8,0,0,1-.3-1.445c0-.187.342-.455.583-.554.829-.342,1.7-.59,2.52-.942a14.627,14.627,0,0,0,1.926-1.024c.355-.22.622-.576.959-.833a9.91,9.91,0,0,0,1.286-.908c.773-.823,1.463-1.722,2.2-2.582.279-.327.612-.61.874-.949.307-.4.553-.843.846-1.252.406-.567.857-1.1,1.239-1.685A12.879,12.879,0,0,0-387.5,53.4c.251-.491.516-.976.777-1.463a7.928,7.928,0,0,0,.519-.971c.194-.528.31-1.085.487-1.62.273-.828.569-1.648.853-2.472a1.086,1.086,0,0,0,.076-.327c.014-1.048.037-2.1.008-3.145a.616.616,0,0,0-.422-.429c-1.891-.022-3.785-.053-5.674.017-1.614.06-3.224.239-4.833.395a.579.579,0,0,0-.393.381,29.5,29.5,0,0,0-.458,3.92,18.037,18.037,0,0,0,.474,3.2,7.123,7.123,0,0,0,.4,1.6c.343.787.79,1.529,1.2,2.287.185.344.392.677.559,1.03.016.033-.19.247-.295.249-1.116.022-2.233.022-3.35.016-.1,0-.269-.051-.3-.121-.18-.476-.35-.958-.485-1.448-.309-1.123-.619-2.247-.881-3.381a6.149,6.149,0,0,1-.078-1.286C-399.326,49.075-399.318,48.312-399.319,47.548Zm6.792-6.9.028.142a29.147,29.147,0,0,1,2.888-.524c1.143-.1,2.3,0,3.449-.08.3-.02.571-.381.846-.6.017-.014-.041-.133-.073-.2-.246-.522-.495-1.043-.74-1.565a8.4,8.4,0,0,0-.407-.865c-.138-.224-.365-.391-.52-.607-.279-.388-.526-.8-.8-1.19-.176-.249-.39-.47-.571-.716-.253-.345-.489-.99-.735-.992a2.577,2.577,0,0,0-1.494.561,9.341,9.341,0,0,0-1.563,1.661c-.6.782-1.133,1.618-1.67,2.448a6.25,6.25,0,0,0-.627,1.2,3.635,3.635,0,0,0-.191,1.136c0,.056.394.167.61.178C-393.576,40.665-393.051,40.647-392.527,40.647Z" transform="translate(0 -88.046)" fill="#6a7058"/>
      <path id="Контур_2097" data-name="Контур 2097" d="M-216.262,82.994c-1.187,0-2.093.063-2.987-.015a31.7,31.7,0,0,1-3.677-.509,10.78,10.78,0,0,1-2.7-.887,16.51,16.51,0,0,1-2.81-1.9c-.109-.088.225-.842.463-1.217a9.469,9.469,0,0,1,1.239-1.562c.16-.162.682-.246.791-.131a2.269,2.269,0,0,0,1.6.833c.422.028.819.434,1.226.672.048.028.086.087.136.1.859.18,1.712.407,2.58.518a29.715,29.715,0,0,0,4.076.369,42.721,42.721,0,0,0,5.072-.414,7.785,7.785,0,0,0,1.807-.732c.1-.042.224-.037.324-.082.64-.284,1.277-.575,1.914-.867a5.152,5.152,0,0,0,1.1-.527,18.949,18.949,0,0,0,2.446-2.146,26.464,26.464,0,0,0,1.427-2.3,5.837,5.837,0,0,0,.848-4.3,9.793,9.793,0,0,0-.83-2.228c-.129-.326-.275-.644-.413-.966-.2-.459-.371-.929-.593-1.375a4.5,4.5,0,0,0-.452-.568c-.392-.537-.784-1.073-1.157-1.623-.219-.323-.372-.693-.607-1-.557-.732-1.16-1.428-1.712-2.164-.223-.3-.328-.68-.545-.983s-.528-.532-.749-.829-.371-.668-.59-.978c-.42-.6-.908-1.147-1.293-1.764s-.659-1.29-1.014-1.922c-.242-.432-.539-.833-.81-1.249a.73.73,0,0,1-.1-.175,4.356,4.356,0,0,1-.367-1.335,3.869,3.869,0,0,1,.455-1.5,3.805,3.805,0,0,1,.846-1.062,2.25,2.25,0,0,1,2.016-.806c.09.019.195.215.2.335.025.409-.043.828.02,1.228a7.886,7.886,0,0,0,.5,2.291,19.056,19.056,0,0,0,1.609,2.124c.4.576.7,1.224,1.059,1.828.152.253.363.47.539.709.434.586.858,1.18,1.3,1.762.4.533.839,1.04,1.22,1.587.224.321.336.72.557,1.043.37.541.8,1.04,1.179,1.576.241.342.43.72.644,1.08a25.146,25.146,0,0,1,1.3,2.228c.265.573.244,1.282.523,1.844.962,1.931.316,3.957.389,5.931a6.3,6.3,0,0,1-.739,2.178,8.92,8.92,0,0,1-.591,1.376c-.349.594-.769,1.147-1.169,1.709a6.229,6.229,0,0,1-.557.683q-.569.6-1.168,1.168c-.54.514-1.078,1.031-1.644,1.514a4.856,4.856,0,0,1-.964.626c-.384.193-.81.3-1.195.493-.5.25-.964.585-1.475.81a8.3,8.3,0,0,1-1.619.534,11.2,11.2,0,0,0-3.022.588C-213.792,83.387-215.192,82.682-216.262,82.994Z" transform="translate(-160.311 -103.611)" fill="#6a7058"/>
      <path id="Контур_2098" data-name="Контур 2098" d="M-79.984-53.881a22.37,22.37,0,0,0,.557,3.09,7.79,7.79,0,0,0,1.146,1.668c.2.3.33.65.511.967.475.834.952,1.667,1.446,2.491.445.742.885,1.49,1.38,2.2s1.08,1.384,1.6,2.092c.229.312.372.687.6,1,.4.559.847,1.083,1.243,1.644.235.334.381.731.617,1.065.4.572.823,1.138,1.282,1.667a4.514,4.514,0,0,1,.182,3.685c-.268.439-.374.974-.622,1.428a2.376,2.376,0,0,1-.647.654c-.4.313-.825.593-1.239.888-.028.02-.053.053-.083.058-.885.157-1.77.316-2.658.456-.081.013-.188-.091-.266-.16-.013-.011.05-.137.1-.186a10.589,10.589,0,0,0,1.168-1.136,3.487,3.487,0,0,0,.9-3.049,11.479,11.479,0,0,0-1.2-2.263c-.171-.307-.36-.6-.553-.9-.149-.227-.306-.449-.475-.661-.555-.7-1.135-1.372-1.67-2.083-.235-.313-.356-.711-.576-1.038-.4-.585-.857-1.126-1.235-1.72s-.677-1.237-1.033-1.845c-.251-.429-.556-.826-.808-1.254-.2-.339-.343-.713-.539-1.055-.433-.754-.946-1.47-1.308-2.256a6.525,6.525,0,0,1-.546-1.968,42.381,42.381,0,0,1-.357-4.894,7.206,7.206,0,0,1,.728-2.149c.03-.084.043-.175.077-.257.278-.655.529-1.324.849-1.958a10.242,10.242,0,0,1,.994-1.632,9.767,9.767,0,0,1,1.1-1.037A11.766,11.766,0,0,1-78.1-63.482a16.531,16.531,0,0,1,1.886-1.082c.578-.3,1.179-.56,1.77-.839.06-.028.114-.086.176-.094a25.1,25.1,0,0,1,3.226-.391,11.1,11.1,0,0,1,3.08.42,16.243,16.243,0,0,1,2.583,1.226c.653.325,1.326.62,1.941,1.007a10.727,10.727,0,0,1,1.139,1c.315.269.663.5.974.773.49.43.3,1.039-.285,1.395a7.244,7.244,0,0,0-1.136,1.089c-.227.221-.451.581-.7.6-.206.018-.445-.371-.673-.575s-.454-.424-.7-.61q-.763-.574-1.55-1.117a3.741,3.741,0,0,0-1.121-.691c-1.079-.251-2.186-.38-3.279-.577a6.735,6.735,0,0,1-.66-.243.918.918,0,0,0-.438-.039,4.673,4.673,0,0,1-1.053.28,3.35,3.35,0,0,0-2.173.872c-.3.227-.708.306-1.027.513a9.706,9.706,0,0,0-1.583,1.16,11.071,11.071,0,0,0-1.288,1.663,3.043,3.043,0,0,0-.466,1.025C-79.67-55.754-79.82-54.785-79.984-53.881Z" transform="translate(-295.756)" fill="#6a7058"/>
      <path id="Контур_2099" data-name="Контур 2099" d="M188.436,502.681a3.928,3.928,0,0,1-1.055-.015c-.833-.241-1.645-.555-2.462-.851-.29-.1-.573-.232-.853-.361a12.636,12.636,0,0,1-1.284-.622c-.323-.2-.807-.459-.831-.727-.03-.327.322-.709.555-1.034.208-.289.5-.517.718-.8.254-.328.41-.883.717-.973.277-.081.707.319,1.054.531a8.931,8.931,0,0,1,1,.683,7.741,7.741,0,0,0,3.877.5c.7-.4,1.364-.862,2.082-1.22.14-.07.5.166.682.343.631.622,1.235,1.271,1.815,1.94.039.045-.175.372-.325.507a7.139,7.139,0,0,1-.952.727c-.433.274-.893.507-1.34.759-.058.033-.107.1-.167.108-1.063.223-2.127.44-3.191.658Z" transform="translate(-542.647 -524.663)" fill="#6a7058"/>
    </g>
  </g>
</svg>
