<svg xmlns="http://www.w3.org/2000/svg" width="333.211" height="328.636" viewBox="0 0 333.211 328.636">
  <g id="Сгруппировать_987" data-name="Сгруппировать 987" transform="translate(-56.138 106.533) rotate(-30)">
    <path id="Контур_1305" data-name="Контур 1305" d="M324.316,286.117c-5.5,4.316-11.136,5.174-16.621.2-5.448-4.94-5.951-11.682-3.841-19.968-7.133,1.814-13.561,1.765-17.78-5.7-3.609-6.391-2.738-12.667.828-18.7l1.331-1.517c2.548-2.154,5.52-4.242,8.482-3.545,5.42,1.277,4.432-1.675,4.722-6.154.4-6.2-.158-8.741-6.071-7.742-2.154.362-4.625-1.89-6.952-2.949q-.932-1.095-1.866-2.192c-3.141-6.168-4.1-12.458-.3-18.7,4.217-6.93,10.174-7.513,17.509-5.217-1.852-8.471-1.581-15.908,4.759-20.834,5.418-4.207,10.749-3.151,15.858,1.018l1.291,1.56c1.043,3.012,3.294,6.26,2.9,8.986-1.052,7.344,1.929,6.023,6.264,6.434,5.218.5,5.661-1.168,5.513-6.4-.083-2.96,1.9-6,2.956-9q.692-.829,1.382-1.656c5.459-4.515,11.092-5.285,16.589-.373,5.469,4.891,6.127,11.6,4,19.837,6.952-1.416,13.455-1.765,17.7,5.778,3.607,6.4,2.786,12.651-.638,18.751l-1.586,1.846c-2.6,1.193-5.311,3.643-7.759,3.322-5.3-.7-5.246,1.509-5.181,6.775.065,5.108-.195,7.567,5.183,6.87,2.448-.319,5.158,2.14,7.75,3.338l1.613,1.882c3.663,6.434,4.379,13.038.181,19.431-4.163,6.334-9.792,7.349-16.846,4.64,1.435,8.547,1.2,16.349-5.526,21.25-5.16,3.763-10.279,2.734-15.191-.948q-.994-1.176-1.994-2.353a22.863,22.863,0,0,1-2.555-14.824c-7.386-.988-13.531-.724-12.775,10.78.09,1.381-1.215,2.886-1.873,4.335Q325.046,285.244,324.316,286.117Zm35.417-26.492c-4.233-3.023,4.66-12.534-4.794-12.569-4.831-.019-5.951,1.92-5.921,7.164C349.083,265.215,357.053,254.8,359.733,259.625Zm-50.186.117c2.608-4.177,12.059,5.71,10.413-7.834-1.312-10.786-7.145-2.287-10.353-5.076C310.908,251.325,309.508,255.085,309.547,259.742Zm50.51-59.111c-11.2,1.367-10.925,1.405-11.243,4.471-1.1,10.6,5.717,6.99,11.023,8.648C358.242,208.835,359.466,204.811,360.058,200.631Zm-50.617-.575a49.276,49.276,0,0,1,.394,13.525c3.081-3.254,9.275,4.771,10.316-5.9C321.44,194.477,311.944,204.963,309.441,200.056Zm20.782,29.161c.181,2.816-1.618,6.824,3.273,5.7,2.474-.566,5.67,1.509,5.255-4.556-.28-4.1-.461-5.718-4.469-5.413C331.262,225.179,329.1,224.825,330.223,229.217Z" transform="translate(-170.705 -68.671)" fill="#c00762"/>
    <path id="Контур_1306" data-name="Контур 1306" d="M303.773,189.083l-1.291-1.56a7.837,7.837,0,0,0-.218-1.961c-2.844-7.368-2.946-14.353,2.888-19.742,4.752-4.387,10.1-4.4,14.873-.057,5.87,5.34,5.786,12.332,3,19.72a8.459,8.459,0,0,0-.241,1.961q-.692.825-1.382,1.656A19.641,19.641,0,0,1,303.773,189.083Z" transform="translate(-148.814 -82.08)" fill="#c00762"/>
    <path id="Контур_1307" data-name="Контур 1307" d="M328.254,213.35l-1.613-1.882a28.912,28.912,0,0,1,.007-20.305l1.586-1.846a49.624,49.624,0,0,1,5.622-1.966c5.443-1.217,10.137.338,13.262,6.026a15.812,15.812,0,0,1,.014,15.875c-3.116,5.7-7.8,7.265-13.248,6.056A49,49,0,0,1,328.254,213.35Z" transform="translate(-104.59 -39.96)" fill="#c00762"/>
    <path id="Контур_1308" data-name="Контур 1308" d="M321.073,213.257q1,1.176,1.994,2.353c.364,1.59.733,3.178,1.09,4.771,1.523,6.756.607,12.774-4.506,16.926-4.69,3.8-9.739,3.739-14.34-.218-5.014-4.308-5.814-10.347-4.136-17.054.4-1.587.823-3.164,1.236-4.743q.73-.874,1.461-1.743A19.542,19.542,0,0,1,321.073,213.257Z" transform="translate(-148.799 2.155)" fill="#c00762"/>
    <path id="Контур_1309" data-name="Контур 1309" d="M298.512,211.655l-1.331,1.517c-6.876,2.584-13.8,4.9-18.925-3.807a15.336,15.336,0,0,1-.2-15.813c4.894-8.9,11.825-6.93,18.77-4.479q.932,1.1,1.866,2.192A31.4,31.4,0,0,1,298.512,211.655Z" transform="translate(-193.002 -39.896)" fill="#c00762"/>
    <path id="Контур_1310" data-name="Контур 1310" d="M348.492,216.972c.137,7.494-5.6,14.247-11.98,14.1-6.053-.139-11.447-6.467-11.574-13.577-.137-7.515,5.577-14.239,11.976-14.1C342.97,203.539,348.362,209.857,348.492,216.972Z" transform="translate(-104.489 -11.644)" fill="#c00762"/>
    <path id="Контур_1311" data-name="Контур 1311" d="M288.038,230.876c-6.312.076-11.978-6.7-11.781-14.092.186-7.055,5.573-13.266,11.57-13.34,6.315-.076,11.976,6.7,11.781,14.089C299.422,224.591,294.037,230.8,288.038,230.876Z" transform="translate(-192.533 -11.565)" fill="#c00762"/>
    <path id="Контур_1312" data-name="Контур 1312" d="M307.786,224.824c.253,7.412-5.378,14.25-11.723,14.241-6.006-.011-11.459-6.195-11.7-13.275-.253-7.409,5.383-14.249,11.728-14.241C302.1,211.56,307.545,217.738,307.786,224.824Z" transform="translate(-177.877 2.4)" fill="#c00762"/>
    <path id="Контур_1313" data-name="Контур 1313" d="M336.04,198.531c-6.389-.468-11.681-7.687-11.037-15.053.624-7.132,6.373-12.97,12.342-12.531,6.387.468,11.686,7.7,11.041,15.055C347.761,193.125,342,198.969,336.04,198.531Z" transform="translate(-104.473 -67.598)" fill="#c00762"/>
    <path id="Контур_1314" data-name="Контур 1314" d="M287.522,170.966c5.944-.278,11.574,5.667,12.061,12.741.508,7.336-4.894,14.391-11.243,14.691-6.292.294-12.1-6.3-12.087-13.735C276.262,177.629,281.51,171.249,287.522,170.966Z" transform="translate(-192.53 -67.541)" fill="#c00762"/>
    <path id="Контур_1315" data-name="Контур 1315" d="M340.313,176.675c-.032,7.5-5.883,14.07-12.221,13.729-6.06-.329-11.292-6.761-11.262-13.852.033-7.488,5.89-14.075,12.219-13.735C335.1,163.145,340.343,169.59,340.313,176.675Z" transform="translate(-119.156 -81.585)" fill="#c00762"/>
    <path id="Контур_1316" data-name="Контур 1316" d="M296.108,162.839c6.333.038,11.918,6.895,11.626,14.274-.281,7.066-5.74,13.193-11.728,13.158-6.328-.038-11.918-6.9-11.625-14.274C284.661,168.936,290.125,162.8,296.108,162.839Z" transform="translate(-177.856 -81.527)" fill="#c00762"/>
    <path id="Контур_1317" data-name="Контур 1317" d="M340.313,225.163c.088,7.475-5.672,14.162-12.026,13.961-6.048-.193-11.373-6.527-11.456-13.629-.088-7.5,5.647-14.157,12.027-13.955C334.917,211.73,340.23,218.048,340.313,225.163Z" transform="translate(-119.156 2.377)" fill="#c00762"/>
    <path id="Контур_1318" data-name="Контур 1318" d="M292.839,231.947c.948-7.78,4.7-11.954,11.373-11.875,6.382.076,11.044,6.451,10.232,13.98-.848,7.869-5.042,11.829-11.632,11.265C296.066,244.739,293.036,239.615,292.839,231.947Z" transform="translate(-162.695 17.083)" fill="#c00762"/>
    <path id="Контур_1319" data-name="Контур 1319" d="M344.293,221.3c-6.621-.692-10.5-4.741-10.828-12.643-.308-7.518,4.9-13.514,11.294-12.953,6.686.583,10.469,5.171,10.351,13.011C354.989,216.616,350.9,220.646,344.293,221.3Z" transform="translate(-89.407 -24.96)" fill="#c00762"/>
    <path id="Контур_1320" data-name="Контур 1320" d="M290.026,208.129c-.51,7.8-3.876,12.586-10.677,12.648-6.739.063-10.694-4.422-10.768-12.352s3.755-12.539,10.508-12.657C285.879,195.652,289.367,200.311,290.026,208.129Z" transform="translate(-206.485 -24.792)" fill="#c00762"/>
    <path id="Контур_1321" data-name="Контур 1321" d="M330.913,232.653c-.489,7.72-3.86,12.588-10.582,12.82-6.662.229-10.631-4.15-11.211-12-.552-7.513,4.49-13.7,10.9-13.424C326.741,220.337,330.248,224.838,330.913,232.653Z" transform="translate(-133.37 17.03)" fill="#c00762"/>
    <path id="Контур_1322" data-name="Контур 1322" d="M344.12,205.072c-6.651-.825-10.455-4.98-10.659-12.88-.195-7.521,5.1-13.411,11.493-12.716,6.681.727,10.381,5.427,10.149,13.247C354.867,200.623,350.69,204.539,344.12,205.072Z" transform="translate(-89.402 -52.957)" fill="#c00762"/>
    <path id="Контур_1323" data-name="Контур 1323" d="M279.665,179.458c6.628.964,10.462,5.25,10.2,13.179s-4.351,12.281-11.06,12c-6.76-.278-10.439-5.1-10.223-12.983C268.8,183.665,273.009,179.872,279.665,179.458Z" transform="translate(-206.499 -52.893)" fill="#c00762"/>
    <path id="Контур_1324" data-name="Контур 1324" d="M314.5,167.411c-.707,8.311-4.238,12.978-11.037,12.85-6.771-.128-10.622-4.8-10.536-12.733s4.075-12.433,10.835-12.387C310.628,155.19,313.866,160.149,314.5,167.411Z" transform="translate(-162.555 -94.791)" fill="#c00762"/>
    <path id="Контур_1325" data-name="Контур 1325" d="M330.819,167.884c-.638,7.769-4.105,12.251-10.823,12.529-6.412.267-11.373-5.8-10.851-13.329.545-7.842,4.483-12.169,11.132-11.957C326.994,155.342,330.337,160.162,330.819,167.884Z" transform="translate(-133.335 -94.829)" fill="#c00762"/>
    <path id="Контур_1326" data-name="Контур 1326" d="M287.094,243.576c-5.918-.8-9.861-4.439-9.984-11.4s3.6-11.467,9.484-11.635c5.911-.169,9.748,4.223,9.908,11.137C296.661,238.664,292.787,242.427,287.094,243.576Z" transform="translate(-191.22 17.892)" fill="#c00762"/>
    <path id="Контур_1327" data-name="Контур 1327" d="M311.368,251.791c-5.821-.8-9.792-4.458-9.919-11.45s3.628-11.526,9.537-11.7c5.941-.172,9.8,4.256,9.963,11.2C321.114,246.857,317.235,250.667,311.368,251.791Z" transform="translate(-147.392 31.845)" fill="#c00762"/>
    <path id="Контур_1328" data-name="Контур 1328" d="M352.57,187.961c5.269.994,8.853,4.716,9.173,11.668.287,6.285-5.255,12.42-10.506,11.575-5.772-.929-9.164-5.138-9.236-12.1C341.939,193.173,347.071,187.8,352.57,187.961Z" transform="translate(-67.31 -38.248)" fill="#c00762"/>
    <path id="Контур_1329" data-name="Контур 1329" d="M280.42,199.325c-.953,7.151-4.191,11.616-10.1,11.426-5.863-.188-9.572-4.681-9.426-11.595.146-6.884,3.98-11.213,9.868-11.08C276.692,188.207,279.657,192.931,280.42,199.325Z" transform="translate(-227.39 -38.049)" fill="#c00762"/>
    <path id="Контур_1330" data-name="Контур 1330" d="M311.03,147.363c5.791.8,9.729,4.447,9.836,11.409.107,6.946-3.623,11.456-9.509,11.6-5.914.15-9.741-4.253-9.885-11.164C301.328,152.232,305.177,148.439,311.03,147.363Z" transform="translate(-147.362 -108.193)" fill="#c00762"/>
    <path id="Контур_1331" data-name="Контур 1331" d="M296.625,166.754c-.649,6.767-3.737,11.366-9.637,11.51s-9.718-4.2-9.857-11.088c-.141-6.911,3.572-11.4,9.437-11.581C292.482,155.416,295.716,159.884,296.625,166.754Z" transform="translate(-191.177 -94.017)" fill="#c00762"/>
    <path id="Контур_1332" data-name="Контур 1332" d="M345.523,232.181c-.964,6.889-4.21,11.445-10.184,11.243-5.911-.2-9.676-4.733-9.525-11.712.151-6.941,4.027-11.349,9.968-11.194S344.844,225.344,345.523,232.181Z" transform="translate(-103.493 17.848)" fill="#c00762"/>
    <path id="Контур_1333" data-name="Контур 1333" d="M335.4,155.457c5.821.811,9.79,4.468,9.91,11.461s-3.635,11.524-9.544,11.69c-5.941.166-9.8-4.267-9.956-11.208C325.655,160.383,329.536,156.576,335.4,155.457Z" transform="translate(-103.528 -94.247)" fill="#c00762"/>
    <path id="Контур_1334" data-name="Контур 1334" d="M278.561,212.338c6.087,1.1,9.894,4.9,9.745,11.842-.144,6.889-3.962,11.254-9.845,11.1-5.863-.155-9.553-4.645-9.456-11.565C269.1,216.738,273.118,213.253,278.561,212.338Z" transform="translate(-205.811 3.76)" fill="#c00762"/>
    <path id="Контур_1335" data-name="Контур 1335" d="M343.826,186.825c-5.816-.825-9.785-4.487-9.894-11.483-.107-6.979,3.651-11.518,9.562-11.668,5.941-.153,9.792,4.281,9.938,11.227C353.581,181.921,349.693,185.717,343.826,186.825Z" transform="translate(-88.904 -80.095)" fill="#c00762"/>
    <path id="Контур_1336" data-name="Контур 1336" d="M288.522,174.712c-.672,6.936-3.762,11.537-9.662,11.673s-9.713-4.21-9.85-11.1c-.134-6.914,3.582-11.393,9.444-11.573C284.377,163.531,287.553,168.068,288.522,174.712Z" transform="translate(-205.798 -80.025)" fill="#c00762"/>
    <path id="Контур_1337" data-name="Контур 1337" d="M353.787,224.149c-.948,6.791-4.126,11-10.047,11.341-5.36.316-10.552-6.206-9.817-12.379.809-6.78,4.432-11.072,10.32-10.723C350.089,212.734,353.168,217.358,353.787,224.149Z" transform="translate(-88.972 3.813)" fill="#c00762"/>
    <path id="Контур_1338" data-name="Контур 1338" d="M351.627,172.091c5.77.716,8.934,4.449,8.647,11.23-.294,6.867-3.938,10.3-9.646,9.893-5.367-.381-8.3-4.286-8.227-10.582C342.484,175.753,345.924,172.442,351.627,172.091Z" transform="translate(-66.785 -65.586)" fill="#c00762"/>
    <path id="Контур_1339" data-name="Контур 1339" d="M351.617,225.9c-6.025-.645-9.321-4.155-9.235-10.889.088-6.718,3.415-10.486,9.115-10.4,5.719.084,8.89,4.006,8.869,10.7C360.343,222.15,356.791,225.309,351.617,225.9Z" transform="translate(-66.81 -9.565)" fill="#c00762"/>
    <path id="Контур_1340" data-name="Контур 1340" d="M269.718,225.594c-5.691-.752-8.79-4.471-8.468-11.189.329-6.813,3.952-10.151,9.609-9.708,5.327.419,8.178,4.3,8.076,10.535C278.824,222.073,275.384,225.284,269.718,225.594Z" transform="translate(-226.939 -9.472)" fill="#c00762"/>
    <path id="Контур_1341" data-name="Контур 1341" d="M326.948,147.747c5.71.523,9.018,4.006,8.89,10.821-.127,6.832-3.565,10.413-9.3,10.2-5.348-.2-8.394-3.891-8.478-10.179C317.97,151.772,321.231,148.278,326.948,147.747Z" transform="translate(-117.713 -107.531)" fill="#c00762"/>
    <path id="Контур_1342" data-name="Контур 1342" d="M270.661,193.125c-6.032-.417-9.439-3.725-9.426-10.543.014-6.775,3.3-10.473,9.043-10.4,5.327.065,8.42,3.627,8.649,9.884C279.175,188.894,275.9,192.336,270.661,193.125Z" transform="translate(-226.929 -65.43)" fill="#c00762"/>
    <path id="Контур_1343" data-name="Контур 1343" d="M336.078,239.5c-.679,7.178-3.895,10.859-9.655,10.481-5.844-.384-8.735-4.7-8.357-11.4.357-6.306,3.707-9.691,9.062-9.6C333.043,229.085,335.67,233.316,336.078,239.5Z" transform="translate(-117.723 32.438)" fill="#c00762"/>
    <path id="Контур_1344" data-name="Контур 1344" d="M294.767,250.075c-6.1-.61-9.361-4.164-9.184-10.963.176-6.835,3.667-10.361,9.388-10.092,5.35.251,8.32,4,8.4,10.282C303.458,246.236,299.992,249.446,294.767,250.075Z" transform="translate(-176.09 32.48)" fill="#c00762"/>
    <path id="Контур_1345" data-name="Контур 1345" d="M303.411,158.645c-.64,6.685-3.8,10.326-9.523,9.944-5.8-.387-8.642-4.64-8.267-11.284.357-6.258,3.663-9.607,8.971-9.487C300.414,147.946,303.147,151.987,303.411,158.645Z" transform="translate(-176.065 -107.414)" fill="#c00762"/>
    <path id="Контур_1346" data-name="Контур 1346" d="M358.859,215.894c-5.153-1.176-8.322-4.493-7.884-10.312.429-5.667,3.758-9.19,8.756-8.6,4.469.531,7.318,4.177,7.163,9.522C366.724,212.379,363.331,215.2,358.859,215.894Z" transform="translate(-55.534 -22.808)" fill="#c00762"/>
    <path id="Контур_1347" data-name="Контур 1347" d="M261.361,215.372c-4.8-.583-7.886-3.7-7.775-9.561.1-5.334,3.041-8.768,7.594-8.8,4.973-.027,8,3.578,7.9,9.416C268.994,211.769,266.039,214.735,261.361,215.372Z" transform="translate(-237.015 -22.64)" fill="#c00762"/>
    <path id="Контур_1348" data-name="Контур 1348" d="M317.98,140.081c4.393.346,7.59,3.006,8.021,8.381.475,5.909-2.443,9.808-7.376,10.13-4.975.324-8.16-3.314-8.225-9.187C310.339,144.018,313.288,140.952,317.98,140.081Z" transform="translate(-131.731 -120.74)" fill="#c00762"/>
    <path id="Контур_1349" data-name="Контур 1349" d="M367.042,189.729c-.471,5.637-3.018,9.566-7.972,9.669-4.935.1-8.074-3.608-8.127-9.408-.049-5.345,2.926-8.931,7.39-9.288C363.3,180.305,366.1,183.951,367.042,189.729Z" transform="translate(-55.524 -50.799)" fill="#c00762"/>
    <path id="Контур_1350" data-name="Контур 1350" d="M261.122,180.723c4.335.316,7.5,2.919,7.916,8.289.459,5.865-2.381,9.727-7.3,10.037-4.949.313-8.093-3.251-8.151-9.1C253.532,184.6,256.407,181.532,261.122,180.723Z" transform="translate(-237.016 -50.713)" fill="#c00762"/>
    <path id="Контур_1351" data-name="Контур 1351" d="M310.083,246.638c-.5,5.59-3.058,9.443-7.986,9.481-4.9.035-7.981-3.66-7.974-9.435,0-5.307,2.958-8.831,7.413-9.114C306.465,237.257,309.249,240.84,310.083,246.638Z" transform="translate(-160.891 47.202)" fill="#c00762"/>
    <path id="Контур_1352" data-name="Контур 1352" d="M309.934,149.165c-.355,5.215-2.722,8.915-7.272,9.324-5,.449-8.315-3.02-8.494-8.85-.178-5.854,2.967-9.528,7.965-9.5C306.714,140.163,309.275,143.675,309.934,149.165Z" transform="translate(-160.84 -120.641)" fill="#c00762"/>
    <path id="Контур_1353" data-name="Контур 1353" d="M318.291,256.3c-4.833-.746-8.037-3.864-7.919-9.653.116-5.754,3.352-9.294,8.267-9.089,4.472.188,7.437,3.7,7.529,8.98C326.272,252.348,323.156,255.5,318.291,256.3Z" transform="translate(-131.767 47.207)" fill="#c00762"/>
    <path id="Контур_1354" data-name="Контур 1354" d="M350.233,238.493c-4.65-.447-7.249-3.385-7.038-8.98.195-5.106,2.8-7.916,7.126-7.861,4.8.063,7.291,3.314,7.11,8.869C357.263,235.648,354.588,238.164,350.233,238.493Z" transform="translate(-65.752 19.806)" fill="#c00762"/>
    <path id="Контур_1355" data-name="Контур 1355" d="M341.484,148.534c5.049.291,7.791,2.979,7.747,8.6-.039,5.062-2.469,8.022-6.783,8.142-4.722.133-7.353-2.878-7.365-8.455C335.075,151.674,337.72,149.2,341.484,148.534Z" transform="translate(-87.705 -106.175)" fill="#c00762"/>
    <path id="Контур_1356" data-name="Контур 1356" d="M342.288,229.731c4.365.444,6.952,3.055,7.022,8.188.076,5.593-2.525,8.708-7.3,8.654-4.344-.055-6.85-2.974-6.948-8.076C334.96,232.868,337.656,230.063,342.288,229.731Z" transform="translate(-87.725 33.728)" fill="#c00762"/>
    <path id="Контур_1357" data-name="Контур 1357" d="M349.674,156.634c5.042.286,7.8,3,7.761,8.654-.039,5.1-2.49,8.082-6.834,8.2-4.755.131-7.411-2.9-7.418-8.518C343.176,159.8,345.823,157.277,349.674,156.634Z" transform="translate(-65.752 -92.219)" fill="#c00762"/>
    <path id="Контур_1358" data-name="Контур 1358" d="M284.21,157.013c-.429,5-2.657,8.03-7.017,8-4.8-.038-7.3-3.341-7.01-8.858.262-5.073,3.014-7.744,7.316-7.518C281.859,148.863,283.952,152,284.21,157.013Z" transform="translate(-203.96 -106.025)" fill="#c00762"/>
    <path id="Контур_1359" data-name="Контур 1359" d="M269.323,221.654c4.282.553,6.822,3.249,6.744,8.4-.086,5.7-2.977,8.569-7.689,8.174-4.363-.368-6.593-3.684-6.347-8.765C262.281,224.3,265.007,221.877,269.323,221.654Z" transform="translate(-225.904 19.811)" fill="#c00762"/>
    <path id="Контур_1360" data-name="Контур 1360" d="M340.46,148.122c-.355,4.575-2.4,7.736-6.271,7.976-4.326.267-7.05-2.835-7-7.918.046-4.567,2.62-7.464,6.533-7.5C337.666,140.639,339.781,143.643,340.46,148.122Z" transform="translate(-101.972 -119.713)" fill="#c00762"/>
    <path id="Контур_1361" data-name="Контур 1361" d="M291.66,148.4c-.566,4.466-2.624,7.586-6.493,7.611-4.27.033-6.92-3.156-6.669-8.169.22-4.444,2.837-7.317,6.739-7.134C289.112,140.887,291.136,143.942,291.66,148.4Z" transform="translate(-189.113 -119.68)" fill="#c00762"/>
    <path id="Контур_1362" data-name="Контур 1362" d="M277.14,229.774c4.307.365,6.971,2.919,7.036,8.085.074,5.648-2.631,8.722-7.411,8.507-4.374-.2-6.713-3.341-6.623-8.452C270.234,232.745,272.833,230.169,277.14,229.774Z" transform="translate(-203.999 33.802)" fill="#c00762"/>
    <path id="Контур_1363" data-name="Контур 1363" d="M358.127,229.566c-4.147-.694-6.841-3.338-6.616-8.471.2-4.556,2.724-7.437,6.642-7.368,4.323.076,6.873,3.208,6.69,8.3C364.676,226.615,362.059,229.008,358.127,229.566Z" transform="translate(-54.791 6.15)" fill="#c00762"/>
    <path id="Контур_1364" data-name="Контур 1364" d="M260.141,213.71c4.159.534,6.841,2.922,7,7.428.178,5.016-2.471,8.188-6.746,8.085-3.836-.1-6.264-3.131-6.285-7.679C254.09,216.9,256.823,214.677,260.141,213.71Z" transform="translate(-236.319 6.124)" fill="#c00762"/>
    <path id="Контур_1365" data-name="Контур 1365" d="M269.28,173.306c-4.715-.588-7.286-3.219-7.237-8.338.053-5.639,2.886-8.553,7.576-8.194,4.314.332,6.558,3.573,6.373,8.632C275.8,170.6,272.97,172.824,269.28,173.306Z" transform="translate(-225.865 -92.027)" fill="#c00762"/>
    <path id="Контур_1366" data-name="Контур 1366" d="M357.738,180.758c-4.013-1-6.651-3.752-6.169-8.812.42-4.419,3.028-7.257,6.915-6.908,4.224.378,6.707,3.63,6.266,8.646C364.358,178.136,361.693,180.475,357.738,180.758Z" transform="translate(-54.772 -77.788)" fill="#c00762"/>
    <path id="Контур_1367" data-name="Контур 1367" d="M291.734,246.164c-.7,4.466-2.824,7.469-6.771,7.407-3.908-.065-6.477-2.968-6.5-7.543-.026-5.084,2.708-8.172,7.031-7.878C289.362,238.414,291.4,241.587,291.734,246.164Z" transform="translate(-189.142 48.201)" fill="#c00762"/>
    <path id="Контур_1368" data-name="Контур 1368" d="M333.341,238.015c4.523.754,7.242,3.347,7.063,8.42-.158,4.5-2.675,7.407-6.533,7.388-4.27-.022-6.825-3.14-6.711-8.161C327.263,241.07,330.04,238.9,333.341,238.015Z" transform="translate(-102.028 48.001)" fill="#c00762"/>
    <path id="Контур_1369" data-name="Контур 1369" d="M267.207,172.892c-.728,4.52-2.877,7.562-6.827,7.363-3.888-.193-6.384-3.227-6.231-7.837.153-4.561,2.742-7.486,6.669-7.322S266.769,168.388,267.207,172.892Z" transform="translate(-236.278 -77.65)" fill="#c00762"/>
    <path id="Контур_1370" data-name="Контур 1370" d="M371.748,196.4c-.387,4.493-2.367,7.074-5.992,7.028s-5.809-2.669-5.77-6.925,2.267-6.813,5.893-6.78C369.529,189.755,371.379,192.464,371.748,196.4Z" transform="translate(-43.604 -35.208)" fill="#c00762"/>
    <path id="Контур_1371" data-name="Контур 1371" d="M329.929,252.068c-.132,4.052-1.632,6.385-4.553,6.715-3.331.376-5.54-1.694-5.656-5.71-.116-3.992,1.889-6.225,5.285-6.173C328.049,246.949,329.416,249.356,329.929,252.068Z" transform="translate(-115.739 63.308)" fill="#c00762"/>
    <path id="Контур_1372" data-name="Контур 1372" d="M303.161,253.425c.529-4.779,2.675-7.1,6.289-6.753,3.677.357,5.5,3.284,5.13,7.483-.332,3.741-2.467,5.917-5.737,5.811C305.106,259.848,303.46,257.1,303.161,253.425Z" transform="translate(-145.138 62.858)" fill="#c00762"/>
    <path id="Контур_1373" data-name="Контур 1373" d="M297.368,252.763c-.362,3.75-2.072,6.11-5.42,5.931-2.888-.158-4.7-2.35-4.7-5.756,0-3.9,1.994-6.154,5.315-6.007C295.484,247.061,297,249.329,297.368,252.763Z" transform="translate(-173.645 63.351)" fill="#c00762"/>
    <path id="Контур_1374" data-name="Контур 1374" d="M297.272,139.124c-.394,3.4-1.947,5.726-4.887,5.754-3.366.03-5.353-2.426-5.084-6.35.227-3.352,2.2-5.465,5.183-5.264C295.432,133.466,296.941,135.737,297.272,139.124Z" transform="translate(-173.608 -132.507)" fill="#c00762"/>
    <path id="Контур_1375" data-name="Контур 1375" d="M314.49,139.568c-.475,4.79-2.735,6.925-6.384,6.5-3.3-.387-5.049-2.993-4.847-6.873.232-4.485,2.657-6.568,6.3-6.165C312.884,133.4,314.377,136.079,314.49,139.568Z" transform="translate(-145.013 -132.978)" fill="#c00762"/>
    <path id="Контур_1376" data-name="Контур 1376" d="M329.928,138.91c-.61,4.253-2.469,6.511-5.772,6.089-2.817-.362-4.6-2.63-4.414-6.08.213-3.9,2.325-6.015,5.612-5.658C328.252,133.575,329.555,136.072,329.928,138.91Z" transform="translate(-115.717 -132.56)" fill="#c00762"/>
    <path id="Контур_1377" data-name="Контур 1377" d="M256.664,179.669c-.359,3.4-1.894,5.743-4.831,5.811-3.366.076-5.364-2.355-5.142-6.285.192-3.368,2.151-5.484,5.128-5.329C254.773,174.024,256.291,176.284,256.664,179.669Z" transform="translate(-246.121 -62.541)" fill="#c00762"/>
    <path id="Контур_1378" data-name="Контур 1378" d="M370.642,179.182c-.241,4.346-1.906,6.639-5.285,6.652-2.944.011-4.8-1.952-5.042-5.359-.271-3.85,1.363-6.377,4.752-6.671C368.486,173.51,370.113,175.9,370.642,179.182Z" transform="translate(-43.208 -62.676)" fill="#c00762"/>
    <path id="Контур_1379" data-name="Контур 1379" d="M257.491,196.359c-.234,4.153-2.144,6.579-5.865,6.421-3.292-.142-5.176-2.451-5.19-6.317-.016-4.381,2.1-6.726,5.8-6.59C255.535,190,257.232,192.35,257.491,196.359Z" transform="translate(-246.436 -34.958)" fill="#c00762"/>
    <path id="Контур_1380" data-name="Контур 1380" d="M256.672,212.323c-.447,3.385-2.021,5.683-4.968,5.648-3.361-.041-5.329-2.527-5-6.443.278-3.333,2.286-5.443,5.262-5.166C254.887,206.632,256.41,208.9,256.672,212.323Z" transform="translate(-246.129 -6.578)" fill="#c00762"/>
    <path id="Контур_1381" data-name="Контур 1381" d="M370.614,212.149c-.213,3.853-1.878,6.146-5.258,6.159-2.944.011-4.8-1.95-5.042-5.359-.271-3.848,1.361-6.41,4.752-6.66C368.417,206.039,370.232,208.225,370.614,212.149Z" transform="translate(-43.208 -6.696)" fill="#c00762"/>
  </g>
</svg>
