<svg xmlns="http://www.w3.org/2000/svg" width="109.583" height="22" viewBox="0 0 109.583 22">
  <g id="Сгруппировать_6923" data-name="Сгруппировать 6923" transform="translate(0.237 0.231)">
    <circle id="yellow" cx="11" cy="11" r="11" transform="translate(76.697 -0.231)" fill="#ffea05"/>
    <path id="black" d="M-9095.617-664.411a3.9,3.9,0,0,1-1.2-3.026,3.891,3.891,0,0,1,1.209-3.016,5.112,5.112,0,0,1,6.34,0v-.009a3.9,3.9,0,0,1,1.188,3.026,3.893,3.893,0,0,1-1.2,3.026,5.129,5.129,0,0,1-3.17,1.094A5.132,5.132,0,0,1-9095.617-664.411Zm-83.311.818a4.165,4.165,0,0,1-1.55-1.126l1.231-1.408a3.174,3.174,0,0,0,2.31.892,1.88,1.88,0,0,0,.939-.188.562.562,0,0,0,.339-.516q0-.6-1.315-.723a8.38,8.38,0,0,1-1.239-.2,3.988,3.988,0,0,1-1-.4,1.78,1.78,0,0,1-.724-.76,2.613,2.613,0,0,1-.243-1.2,1.969,1.969,0,0,1,.938-1.783,4.293,4.293,0,0,1,2.338-.61,4.644,4.644,0,0,1,2.922.957l-1.1,1.361a3,3,0,0,0-1.879-.544,1.772,1.772,0,0,0-.7.188.469.469,0,0,0-.311.441.488.488,0,0,0,.3.5,3.692,3.692,0,0,0,.947.207,6.156,6.156,0,0,1,1.174.234,4.447,4.447,0,0,1,1.006.46,2.1,2.1,0,0,1,.751.779,2.327,2.327,0,0,1,.273,1.145,2.176,2.176,0,0,1-.508,1.454,2.822,2.822,0,0,1-1.268.854,5.535,5.535,0,0,1-1.682.263c-.07,0-.141,0-.21,0a5.637,5.637,0,0,1-1.743-.276Zm101.073.021v-7.912h3.8a3.131,3.131,0,0,1,2.332.829,2.83,2.83,0,0,1,.822,2.053,2.838,2.838,0,0,1-.822,2.072,3.2,3.2,0,0,1-2.332.819h-1.586v2.138Zm2.221-4.022h1.584a.863.863,0,0,0,.682-.273,1,1,0,0,0,.243-.7,1.053,1.053,0,0,0-.243-.707.854.854,0,0,0-.682-.292h-1.584Zm-35.239-2.022h-2.3v-1.874h6.832v1.874h-2.324v6.035l-2.211.009Zm-18.645,6.044v-7.912h3.807a3.134,3.134,0,0,1,2.332.829,2.845,2.845,0,0,1,.821,2.053,2.837,2.837,0,0,1-.821,2.072,3.211,3.211,0,0,1-2.332.819h-1.587v2.138Zm2.22-4.022h1.587a.865.865,0,0,0,.682-.273,1.014,1.014,0,0,0,.242-.7,1.053,1.053,0,0,0-.243-.707.854.854,0,0,0-.681-.292h-1.587Zm-14.751,4.022-1.872-2.556h-.775v2.556h-2.19v-7.913h3.836a3.086,3.086,0,0,1,2.247.789,2.6,2.6,0,0,1,.8,1.927,2.546,2.546,0,0,1-.364,1.382,2.818,2.818,0,0,1-1.3,1l2.058,2.688v.132Zm-2.611-4.257h1.676a.755.755,0,0,0,.626-.263.994.994,0,0,0,.215-.649,1.1,1.1,0,0,0-.224-.7.766.766,0,0,0-.675-.273h-1.618Zm-18.767,4.257v-7.919h6.162v1.888h-3.961v1.133h3.764v1.822h-3.764v1.2l4.121-.01v1.888Z" transform="translate(9180.24 678.335)" fill="#fff"/>
    <path id="black-2" data-name="black" d="M-7869.275-663.477a3.886,3.886,0,0,1-1.2-3.026,3.89,3.89,0,0,1,1.208-3.016,5.112,5.112,0,0,1,6.34,0v-.009a3.9,3.9,0,0,1,1.189,3.026,3.9,3.9,0,0,1-1.2,3.026,5.134,5.134,0,0,1-3.17,1.094A5.13,5.13,0,0,1-7869.275-663.477Z" transform="translate(7953.898 677.4)"/>
  </g>
</svg>
