<svg xmlns="http://www.w3.org/2000/svg" width="577.763" height="569.449" viewBox="0 0 577.763 569.449">
  <path id="Контур_7172" data-name="Контур 7172" d="M621.234,553.424c.289-3.553.119-6.944.111-10.334l-.045-1.254a9.693,9.693,0,0,0-.037-1.12l-.171-1.87c-.111-1.246-.208-2.5-.311-3.754-.423-5.089-.839-10.334-1.321-16.254-.237-3.954-.69-7.73-1.172-11.35-.46-3.62-.883-7.055-1.58-10.49-.638-3.427-1.254-6.788-1.884-10.208-.764-3.442-1.55-6.914-2.359-10.534-.608-3.042-1.55-6.38-2.367-9.807-.579-2.27-1.157-4.584-1.773-6.906,1.773.5,3.62-.008,5.341.527a3,3,0,0,0,3.264-1.551c1.253-3.449-.43-7.619-1.655-11.313-.594-1.8-2.515-3.3-3.694-5.022-1.142-1.684-3.553-2.589-3.234-5.267a6.319,6.319,0,0,0-1.558-.8c-1.417-.482-.363.727-.423,1.239-.259,1.617-.23,3.731-1.157,4.54a4.554,4.554,0,0,0-1.321,1.595c-1.157-4.369-1.832-7.477-1.454-8.375.289-.772,1.016-.275,1.424-.727a27.09,27.09,0,0,0-.727-3.012,10.4,10.4,0,0,0-.823-1.61,41.47,41.47,0,0,0-3.316-4.614c-.883-.846-1.439-1.973-2.463-5.416a49.054,49.054,0,0,0-1.966-5.489c-1.165-2.774-2.589-5.883-3.917-8.843a34.816,34.816,0,0,0-3.917-4.651c-.779-.69-.356.757-1.165.03-.371-.327-2.441-3.516-3.731-5.549a24.452,24.452,0,0,1-1.884-3.516c-.015-.638.623-.319.712-.779a8.8,8.8,0,0,0-.63-2.047c-1.313-1.58-2.886-3.516-3.939-4.614-2.315-2.411-3.88-3.909-6.625-6.595-2.834-2.7-5.8-5.5-8.843-8.36a56.194,56.194,0,0,0-4.8-4.1c-1.662-1.321-3.331-2.656-5.022-3.976-1.87-1.484-4.013-3.167-5.653-4.466-1.706-1.254-2.767-2.263-2.322-2.626-2.092-1.9-4.028-3.672-5.853-5.326s-3.472-3.286-5.171-4.57c-3.3-2.745-6.231-5.185-9.058-7.537-2.827-2.455-5.645-4.458-8.68-6.7-1.491-1.128-3.2-2.174-4.963-3.316-1.788-1.091-3.613-2.322-5.712-3.427-1.536-.838-.734-.89-.393-1.068.015,0,.245.082.623.215.386.149.89.327,1.432.527,1.083.415,2.248.964,2.826,1.254,6.276,3,14.97,8.331,17.752,9.48,2.129.757-.126-.831-3.538-2.952-3.435-1.921-7.908-4.407-10.46-5.742-2.648-1.484-5.734-3.234-9.154-4.777-1.7-.786-3.42-1.595-5.2-2.322-1.788-.712-3.6-1.387-5.393-2-3.13-1.039-5.764-1.877-7.982-2.589a266.427,266.427,0,0,1,21.669,15.667l.037.008c-.623-.364-1.217-.749-1.8-1.12a189.811,189.811,0,0,0-25.467-12.567c-2.878-1.091-5.007-2.047-6.988-2.938a81.551,81.551,0,0,0-14.1-3.887A128.645,128.645,0,0,0,436.43,306.1c0,.163-.764.341.089.452,11.38,1.647,25.074,4.792,34.235,8.4,2.648,1.061,5.571,2.24,8.516,3.413,2.871,1.276,5.749,2.522,8.264,3.813,4.555,2.441,5.734,3.947,12.648,7.27a90.177,90.177,0,0,1,10.208,5.816c1.365.92,2.722,1.825,4.251,2.841.675.415,1.4.9,2.173,1.4l.2.141c.764.5,1.58,1.053,2.463,1.654l.074.059q6.02,5.853,11.5,12.166c.638.378,1.261.772,1.892,1.157-.631-.386-1.254-.772-1.892-1.157h0l-.037-.03c-.475-.3-.957-.579-1.439-.875-1.016-.608-2.025-1.194-3.16-1.736-2.285-1.232-4.733-2.522-7.4-3.947-2.648-1.432-5.5-3.041-8.716-4.555-.156-.067-.267-.126-.4-.185a74.571,74.571,0,0,0-7.2-6.209c-2.114-1.61-6.172-5.178-8.665-6.469-2.144-1.113-4.555-2.582-7.329-4.288-.074.037-.193.074-.193.141-1.951-.675-4.154-1.224-5.89-1.788a171.591,171.591,0,0,0-21.157-5.274,8.432,8.432,0,0,1,1.046.824c2,1.825,9.762,5.764,18.382,11.409,6.973,4.458,13.36,9.963,19.7,14.925.23.2.542.46.8.683-.141,0-.23.007-.245.052a2.211,2.211,0,0,0,.1.779,5.922,5.922,0,0,0,.682-.045l-.111-.408a113.331,113.331,0,0,1,8.323,8.019c1.743,1.84,3.375,3.768,5.007,5.712a7.067,7.067,0,0,0-.942,2.448c-.2,1.832-1.239,3.42-1.358,5.467-3.39-3.561-6.936-6.906-10.415-10.771-.527-.223-1.291-.675-1.543-.608-1.676.482-1.921,2.159.3,6.595.7,1.335,1.38,2.93.327,2.322-2.292-1.3-3.783-1.758-4.77-1.677a2.774,2.774,0,0,0,.549-.987c.1-.556-.579-1.387-.913-2.107-.423.252-.883.46-1.268.734-1.543,1.165-3.338,2.2-4.021,4.013-.319.794-2.374.579-3.108-.349a24.267,24.267,0,0,1-1.632-2.544,5.867,5.867,0,0,1,1.647.081c1.239.237,1.521-.734.438-1.862a43.717,43.717,0,0,0-10.356-6.81l-.045-.06c-1.461-1.476-4.5-3.442-6.09-3.4-3.064.074-4.621-1.12-6.283-2.4a14.633,14.633,0,0,0-9.874-3.093,16.9,16.9,0,0,1-3.079-.067,9.288,9.288,0,0,1-1.587-.816,16.044,16.044,0,0,0-6.543-2.863c-.1-.037-.193-.089-.275-.126l-.082.037c-.994-.23-2.025-.423-3.049-.6-.2-1.372.564-2.789-.208-4.162-.482-.935,2.945-1.232,5.549-1.016,4.926.386,6.18-.371,4.8-3.071-.408-.853-1.179-1.4.171-2.025.645-.312,1.179-1.343.95-1.439-1.528-.638-3.724-1.632-4.955-1.484-2.849.334-4.154.356-3.91-1.454-.616-.074-1.869-.089-1.869-.089-.141,1.869-1.35,1.135-3.078.274-1.053-.527-3.464-1.261-3.865-1.1-3.805,1.625-4.05-.2-5.015-1.187-.371-.393.274-1.046-.185-1.387a4.952,4.952,0,0,0-2.559-.386c-.638.089-1.513.742-1.365,1.016.415.7,1.432,1.291,1.944,1.973.126.186-.549.727-.9.749a6.871,6.871,0,0,1-2.648-.208c-.541-.267-.267-.883-.534-1.306a6.319,6.319,0,0,0-1.15-1.105c-.3.275-.764.534-.868.816-.415,1.135-1.179,1.929-4.028,1.855-2.092-.074-5.927,0-5.987-.341-.356-2.04-5.082-.623-6.929-1.528-1.7-.927-2.8-.453-6.157,1.892-.363.267-.913.741-1.113.741-3.294-.126-7.433.683-9.473.037-3.093-1.009-8.39,1.491-10.712.3-5.445,2.381-7.507.445-11.254.66a2.259,2.259,0,0,0-.883.312c-5.326,3.368,11.535,15.69,6.854,17.158-3.887,1.261-12.532-7.026-17.4-3.154a6.051,6.051,0,0,1-3.034.979c.341-.171.66-.356.979-.519,10.119-5.185,5.247-15.221,15.21-18.173a214.9,214.9,0,0,1,55.511-9.132,181.867,181.867,0,0,1,38.382,3c-1.009-.727-2.307-1.454-3.68-2.24-1.966-1.024-4.154-2.01-6.068-2.952-1.387-.653-2.923-1.328-4.288-1.951a144.535,144.535,0,0,0-14.7-2.166c-12.522-1.083-19.955-1.817-29.584-1.869a30.111,30.111,0,0,1-5.326-.178c-1.209-.237,3.672-1.55,9.533-2.048a198.56,198.56,0,0,1,39.718.23c4.392.549,9.213,1.053,13.976,1.884,1.558.267,3.657.4,5.512.72-.7-.245-1.209-.49-2.077-.72-6.528-1.892-13.665-3.553-19.933-4.733-1.506-.289.252-.549.49-.824,3.479.208,7.967.779,10.193,1.143,4.036.794,5.949,1.617,10.118,2.53,6.343,1.654,9.392,2.745,9.384,3.546.008.475.66,1.083,3.4,2.092,1.7.608,4.214,1.387,7.782,2.53-.69-.452-1.4-.942-2.1-1.372-7.374-4.607-14.013-8.331-19.755-11.365-2.478-1.365-4.822-2.493-7.107-3.68-2.322-1.061-4.577-2.181-6.958-3.16a92.884,92.884,0,0,0-16.713-5.2c-3.613-.846-7.285-1.81-4.911-2.122,5.045-.519,1.818-1.217-2.975-1.469a73.4,73.4,0,0,1-8.242-.683,25.963,25.963,0,0,0-5.645-.579c-1.476-.007-3.049-.015-4.577-.015-1.5.037-2.915.081-4.065.081-2.307,0-3.553-.171-2.2-.786a15.63,15.63,0,0,0-3.212.045c-10.044,1.417-13.776,1.484-20.282,2.173a74.938,74.938,0,0,0-8.553,1.676,55.686,55.686,0,0,1-5.66,1.187,8.9,8.9,0,0,0-3.2.059c-1.461.267-3.264.757-5.23,1.306-1.966.571-4.095,1.209-6.194,1.825-1.068.319-2.1.631-3.123.927-.987.349-1.944.683-2.856.994-4.5,1.521-13.153,5.1-10.527,2.9a9.362,9.362,0,0,0-2.085.66c-1.224.467-2.693,1.046-3.568,1.38-1.832.66-3.821,1.461-5.92,2.374a64.807,64.807,0,0,0-6.365,3.079c-4.214,2.329-8.657,4.666-12.477,7.018-5.786,3.568-11.58,6.98-16.877,10.838-2.663,1.9-5.386,3.561-7.834,5.46-2.485,1.892-4.963,3.761-7.5,5.668-2.849,2.077-5.512,4.547-8.227,6.869-2.663,2.359-5.43,4.562-7.708,6.78-4.748,4.473-7.975,6.276-14.147,13.568-4.444,4.925-8.279,8.308-13.442,16.224-.541.823-4.258,5.141-6.513,7.871-1.677,4.095-4.674,7.173-6.884,10.994-3.138,5.141-6.12,10.742-9.05,16.283a74.158,74.158,0,0,0-3.546,7.648c-1.157,2.633-2.263,5.274-3.331,7.96-1.261,3.635-2.4,7.515-3.538,11.261-.645,1.854-1.031,3.746-1.469,5.556-.46,1.8-.905,3.509-1.306,5.133-.438,1.58-.868,3.234-1.187,4.926-.26,1.706-.519,3.427-.786,5.111-.445,3.368-1.09,6.535-1.573,9.11a44.912,44.912,0,0,1-.185,9.532c-.393,3.123-.5,6.239-.593,9.28-.223,10.719,1.818,20.393,3.39,31.624a66.465,66.465,0,0,0,2.166,7.589c.49,1.476,1.016,3.034,1.543,4.584.586,1.543,1.157,3.086,1.743,4.577.794,2.292,1.7,4.844,2.626,7.455.987,2.567,2.01,5.2,2.975,7.67.8,2.01.8,3.768,1.439,5.794,1.179,3.887,2.307,7.893,3.613,11.721,1.38,3.805,2.723,7.514,3.976,10.979,2.834,6.8,5.067,12.893,6.358,16.906a49.06,49.06,0,0,0,7.129,12.693c1.855,2.47,3.42,4.867,5.141,7.055,1.729,2.211,3.4,4.377,5.156,6.617a88.725,88.725,0,0,0,5.987,6.877q1.725,1.758,3.583,3.7c1.254,1.313,2.641,2.611,4.176,3.939,3.59,3.116,8.279,7.923,10.423,9.992,6.9,7.76,21.75,18.264,33.345,25.764A113.161,113.161,0,0,0,302.456,680c2.574,1.217,5.208,2.485,8.012,3.672,2.841,1.12,5.779,2.255,8.835,3.405a262.644,262.644,0,0,0,50.281,12.7c4.406.556,8.768,1.313,13.227,1.669s8.954.772,13.494,1.031q6.821.167,13.7.356c4.8-.074,9.688-.245,14.592-.4,2.886-.052,5.927-.512,8.917-.8,1.55-.156,2.871-.349,4.266-.556l4.08-.594a123.008,123.008,0,0,0,12.6-2.4,248.014,248.014,0,0,1,28.019-6.884,30.072,30.072,0,0,0,3.8-.89,132.591,132.591,0,0,0,13.531-4.577c7.04-3.249-4.94,1.32-2.441-.237.438-.245-3.472.957-4.236,1.009-.735.074-.772-.267.43-.853s5.171-2.136,6.38-2.567c2.04-.668,3.88-1.239,5.846-2a52.636,52.636,0,0,0,6.506-3.19c.846-.423,4.058-2.04,4.978-2.381,8.672-3.3,17.878-7.559,24.888-11.009,3.242-1.513,4.748-2.626,8.635-5.475,8.071-6.342,9.384-8.731,14.273-13.724,4.5-4.637,6.751-7.537,7.07-8.309.26-.8-1.439.519-5.393,3.546-5.3,3.91-5.3,3.45-1.091-1.224,4.31-5.03,9.51-10.215,14.926-16.958,2.522-2.953,4.444-5.734,5.838-7.366,1.424-1.662,2.174-2.381,2.122-1.528-.148,2.455-.074,4.518-.312,7.025a19.415,19.415,0,0,1-1.446,3.234c-.7.49-1.81,1.476-2.011,1.358-1.135-.527-1.988-1.38-3.108-1.914a7.1,7.1,0,0,0-.935.957c-.512.556-1.128,1.239-1.58,1.766a15.373,15.373,0,0,0-1.105,1.513c.163.349.69.267.72.734.171,2.255,3.835.682.69,6.617-2.233,4.154-1.528,5.319-1.039,6.647.386,1.009.46,2.159-1.239,5.156a79.118,79.118,0,0,0-4.043,8.479,63.877,63.877,0,0,0,5.6-4.933c1.454-1.543,2.6-2.938,3.776-4.347a121.652,121.652,0,0,1,9.169-10.237c2.248-3.182,4.518-6.328,6.565-9.71,1.046-1.669,2.085-3.3,3.049-4.985q1.424-2.57,2.819-5.089c.883-1.662,1.031-2.656,1.6-3.62,1.84-3.116,3.049-5.371,3.887-7.144a40.877,40.877,0,0,0,1.58-4.206,72.722,72.722,0,0,1,2.693-7.73,50.655,50.655,0,0,0,3.657-11.647c.408-2.188.46-3.665,1.2-7.389.838-3.561,1.884-8.991,2.552-13.367C621.8,556.251,621.9,552.891,621.234,553.424ZM402.588,504.212c.3-.794.831-.7,1.691-.044.26.223.5.453.764.675-.935.119-1.8.215-2.567.326A7.574,7.574,0,0,1,402.588,504.212Zm39.08,10.022.03-.007-.015.052ZM530.2,380.861c1.862,2.322,3.724,4.614,5.556,6.951,1.387,1.78,2.53,3.3,3.553,4.718a52.4,52.4,0,0,1-2.5,5.052,11.561,11.561,0,0,0-1.662-1.484c-1.268-.772-2.337-.408-2.7-.846-1.105-1.432-2.218-2.834-3.316-4.243.074-.556.126-1.105.215-1.662C529.767,386.565,530.011,383.717,530.2,380.861Zm-13.36-33.13c1.454.972,2.886,1.973,4.347,2.945l5.482,3.783c1.758,1.372,3.457,2.819,5.156,4.236,1.684,1.305,3.272,2.663,4.829,4.058.631.579,1.224,1.172,1.862,1.758.86.809,1.706,1.595,2.507,2.4.868.868,1.684,1.728,2.507,2.582.489.5.986,1.024,1.446,1.528,1.143,1.194,2.218,2.381,3.279,3.561l.045.044c1.78,3.1,3.754,6.417,2.159,5.63-1.55-.742-.082,1.951,2.159,5.7,2.485,4.132,1.276,3.591-2.077.185-2.567-2.581-5.007-5-7.8-8.123.059-.015.156-.037.171-.089a5.935,5.935,0,0,0-.074-1.654c-.786-.252-1.157-.371-1.521-.475l.275.95c-1.884-2.173-3.961-4.688-6.35-7.834a106.07,106.07,0,0,0-7.53-8.754c-.319-.779-.883-1.58-1.306-2.426-.594-1.268-1.951-1.357-2.967-1.751-.386-.378-.749-.742-1.157-1.135a3.211,3.211,0,0,1-.1-.438c0-.1-.26-.2-.616-.312-2.277-2.337-4.673-4.889-7.166-7.47-.49-.5-1-1.017-1.513-1.528C514.2,345.935,515.524,346.825,516.837,347.73Zm-22.878,21.491c.141.482.282.972.482,1.491a22.591,22.591,0,0,1,1.1,6.8c-.319-.349-.638-.683-.883-.972-.215-.275-.445-.534-.682-.816,0-.43-.015-.861,0-1.283.059-.579-1.358-1.662-1.143-2.01A9.657,9.657,0,0,0,493.959,369.221ZM261.507,498.9c-.1-.623-.623-1.016-.7-.779a15.811,15.811,0,0,0-1.076,4.859c.111,2.708.082,3.991-.912,3.85-.045.623-.119,1.751-.119,1.773,1.031.059.549,1.217,0,2.856a11.664,11.664,0,0,0-.727,3.6c.935,3.509-.067,3.761-.608,4.585-.23.327-.586-.252-.779.163a6.84,6.84,0,0,0-.245,2.263c.03.571.393,1.357.534,1.224a18.1,18.1,0,0,0,1.113-1.691c.1-.111.4.5.4.831a10.512,10.512,0,0,1-.163,2.389c-.156.467-.482.2-.734.423a5.23,5.23,0,0,0-.631.994c.156.267.289.7.445.794.6.408,1,1.2,1.024,3.6-.015,1.788.059,5.015-.126,5.037-1.15.119-.312,4.184-.913,5.608a.4.4,0,0,0-.037.148c-1.068-2.641-2.018-5.289-2.886-7.953-2.218-7.055-3.094-10.408-3.843-10.267-.861.186-2.144-.378.148,9.221.7,2.6,1.1,4.518.63,4.406-.386-.141-1.825-2.233-3.917-8.041a3.461,3.461,0,0,1,2.745-5c-.327.134-.312,2.085.245,4.622,1.832,8.739,1.55,9.6.148,8.42-1.395-1.15.134-6-.667-5.682a9.337,9.337,0,0,1-.423-1c-.23-.631-.542-1.5-.89-2.448-.645-1.922,4.221-3.242,3.872-4.689-.549-2.225-6.506-5.764-6.825-8.041-.113-.806-.221-1.577-.352-2.6a22,22,0,0,1-.226-2.862c-.111-4.637-.475-10.757-.542-17.07-.011-2.358-.034-4.744.009-7.4.008-.486.028-1.279.058-2.065.044-3.1.223-6.083.364-8.8a90.532,90.532,0,0,1,3.249-19.05c2.693-9.777,3.768-14.614,7.729-22.566,1.217-2.6,2.3-4.517,3.019-6.224a24.59,24.59,0,0,0,1.484-4.5c.734-3.487,3.294-9.666,9.918-18.294.779-.935,5.274.329,7.047-2.252,1.8-2.559,3.279-4.889,2.633-4.963a49.02,49.02,0,0,1,3.746-5.185c7.989-8.954,21.3-3.281,30.183-11.092a76.963,76.963,0,0,1,7.76-5.994c5.341-3.553,11.387-7.359,17.826-11.038-.111.312-.215.608-.1.727a4.623,4.623,0,0,0,1.521.527c.134-.616.49-1.217.289-1.357a2.54,2.54,0,0,0-1.09-.26c1.743-.994,4.584-17.02,6.372-17.962-.356,1.684,3.457-.312,5.267-.5,2.018-.222,3.368-.089,3.768.519s-11.87,5.43-13.109,7.2c-.779,1.1-4.133.589-4.608,1.494-1.959,4.013-2.072-1.114-3.177,2.6-.363,1.3-2.374,2.47-1.528,3.947,1.944,3.331-.534,6.595-5.935,10.029-3.509,2.248-8.012,3.316-10.9,6.046-4.614,4.273-8.791,4.688-12.915,5.556-2.255.49-4.874.8-6.906,3.316-2.3,2.8-4.147,5.015-6.98,4.941a2.449,2.449,0,0,0-1.647.823c-1.728,4.2-6.32,5.445-8,9.273a2.615,2.615,0,0,1-1.728,1.046,10.528,10.528,0,0,1-3.457-.1c-.987-.223-2-1.157-2.567,1.016-.163.571,1.2,1.254,2.01,1.632.371.163,1.127-.534,1.588-.482,2.529.371,2.745,1.469,2.114,5.082a11.163,11.163,0,0,0,.415,5.1c.178.734,1.165,1.024,1.788,1.513-1.469.46-1.535,1.343-1.105,2.574a3.179,3.179,0,0,1-1.484,4.162c-2.047,1.068-.534,2.618-1.187,3.568a20.86,20.86,0,0,1-2.923,2.975c-.059.045.178.46.148.5-2.3,2.211-1.4,5.245-2.6,7.745-.215.431.482,1.128-.534,1.7-3.175,1.78-4.006,4.406-2.834,7.782.645,1.884.208,2.2-2.2,1.892a22.48,22.48,0,0,1-1.439,3.954c-1.372,2.151,1.751,1.647,1.187,3.531-.326,1.1.408,2.545.779,3.761.564,1.713.823,4.087,1.981,4.874a22.089,22.089,0,0,0-1.016,5.185,9.607,9.607,0,0,1-.964,2.945,9.208,9.208,0,0,0-1.12,2.493c-.26,1.009-.49,2.188-.69,3.5a35.949,35.949,0,0,0-.5,4.325c-.015,1.558-.045,3.22-.074,4.933-.074,1.551-.037,2.953-.022,4.2,0,.653-.052,1.172-.1,1.766l-2.24,1.61c-1,.742-.3.786.252,1.239.638.5,1.447,1.061,1.588,1.765-.015.23-.037.46-.045.682a3.019,3.019,0,0,1-.89,1.105v.022C261.774,499.6,261.633,499.494,261.507,498.9Zm133.715,13.383a.124.124,0,0,0,.03-.082c.134.364.23.72.349,1.076A.817.817,0,0,1,395.221,512.283Zm.824,1.254a17.17,17.17,0,0,1-.564-1.662.59.59,0,0,1,.215-.023c.141.631.26,1.135.334,1.476.022.1.044.163.067.237Zm.3-1.1c-.015-.141-.045-.326-.074-.475l.015.007c.119.044.245.067.378.111.022.126.037.26.052.393l.015.126-.163-.03a.284.284,0,0,0-.178.059A.814.814,0,0,0,396.349,512.439Zm.3,1.268c-.059-.275-.141-.579-.223-.927l.037.023.312.059c.052.3.111.586.148.846C396.831,513.715,396.749,513.707,396.653,513.707ZM408.8,529.8c-.95-.17-1.818.468-2.782.045-.334-.119-1.039.645-1.64.9a2.144,2.144,0,0,1-1.469.067c-.171-.052-.223-.616-.326-.912a16.938,16.938,0,0,1-.987-3.65,10.925,10.925,0,0,1-.059-2.522c.371.43.771.838,1.142,1.268.3.326.586.668.9,1a7.976,7.976,0,0,0,.987.764,14.636,14.636,0,0,0,2.211,1.469c.942.431,1.921.89,2.93,1.358l.72.3C409.91,530.829,409.323,529.923,408.8,529.8Zm-.779-25.289c-.949.1-1.8.2-2.633.3-.163-.237-.326-.475-.519-.72-.319-.356-.334-.46.022-.326a3.628,3.628,0,0,0,.541.208,3.8,3.8,0,0,0,.668.133c-.178-.3-.326-.616-.527-.927-.171-.275-.475-.512-.645-.779a.388.388,0,0,1,.044-.408c.022-.052.252.022.312.1.237.237.43.519.66.772.156.178.349.319.512.475a2.7,2.7,0,0,0-.059-.453,7.527,7.527,0,0,1-.438-1.172,13.053,13.053,0,0,1-.133-2.151c-.008-.445.052-.957.608,0,1.817,1.068,3.286,3.2,4.592,4.926A7.759,7.759,0,0,0,408.025,504.508Zm3.538,1.18-.1-.074a1.169,1.169,0,0,1-.148-.7,4.513,4.513,0,0,1,.289.668C411.638,505.614,411.593,505.688,411.564,505.688Zm41.023,20.853c-.1.111-.163.223-.252.327-.579.378-1.2.749-1.884,1.165a2.59,2.59,0,0,1,.349-.5c-.193-.082-.393-.171-.564-.245-.148-.06-.311-.1-.467-.149l.786-1.6c.364-.7-1.38-.7-.631-1.595.223-.3.252-.534.119-.734-.771.408-1.61.935-2.084.074a.631.631,0,0,0-.527.141c-.742,1.18-1.78.942-2.752,1.209-.645.2-1.565,1.083-1.773.942-1.165-.756-2.159.319-3.2.66a5.358,5.358,0,0,1-1.3.438,2.78,2.78,0,0,0-.534-.326.652.652,0,0,1-.089-.23c-.052-.089-.631.074-.935.067-1.254.007-2.277.89-3.286,1.417-.178.089-.363.148-.556.223-.26-.119-.519-.245-.764-.356a19.064,19.064,0,0,1-1.165-1.521c-.779-1.009-1.55-1.914-2.337-2.8.274-2.092.43-4.807.846-6.966.193-1.224,1.81.942,1.1-1.736-7.952-3.486-12.826-5.853-15.86-7.515a2.478,2.478,0,0,0-.779-.363,12.829,12.829,0,0,0-.868-2.315c-.534-1.009-1.142-2.233-1.825-3.368a15.853,15.853,0,0,0-2.344-3.1,1.859,1.859,0,0,1-.2-.452c.119-.03.2-.133.289-.1,2.277.534,4.384,1.105,5.853,3.346a4.459,4.459,0,0,0,.616.734l.579.809a3.842,3.842,0,0,1,.853,1.78c.037.208.134.371.23.356a2.179,2.179,0,0,0,.386-.134c-.141.163-.282.341-.4.5-.2.311-.089.5-.119.734.378-.3.824-.6,1.143-.89v.015c.037.067.252-.134.282-.223l.059-.134c.163-.193.3-.386.467-.571a.154.154,0,0,1,.111.156c.06.972.378.645.89-.141.4-.623.527-.579.616-.163a17.926,17.926,0,0,0,.245,2.04.586.586,0,0,0,.653.5c.579-.03,1.172.3.838,1.454a.885.885,0,0,0,.111.794c.074.119.475.074.549-.015.964-1.261,2.73-2.055,2.893-3.835.045-.527.534-1.424,1.3-1.439a1.417,1.417,0,0,0,1.476-1.343,3.164,3.164,0,0,1,1.039-2.322c.445-.571.7-.438.994.089.519.853.831,2.018,1.832,2.567a1.112,1.112,0,0,1,.616.668c.586,2.07,1.521,4.073,1.454,6.284A2.905,2.905,0,0,0,436.3,511.8a.9.9,0,0,1,.363.682c.237.957,1.424,1.261,1.743,2.151.015.052.2.074.23.052a1.567,1.567,0,0,1,1.439-.519c.059.541.126,1.1.186,1.662a1.719,1.719,0,0,0-.408.779c-.015.133.282.245.541.289l.015.208c.438,1.58,1.09,3.894,1.595,5.772.059.237.126.445.178.668.059.067.119.141.178.208.1.133.2.252.274.356.163.185.275.275.3.215a1.372,1.372,0,0,0,.022-.608c-.022-.126-.03-.274-.059-.438-.037-.415-.082-.853-.119-1.321-.2-1.8-.393-3.835-.571-5.556.727-.237,1.454-.467,2.181-.682-.007.089-.007.171-.052.185-.571.252-.564.638-.171.935.186.156.823-.052.89.067.133.3-.015.712.067,1.046.022.111.408.237.608.193.423-.074.794-.3,1.224-.393a3.119,3.119,0,0,1,.809.1l-.616.393-.593.4a2.521,2.521,0,0,0,.616.371c.319.074.7,0,.987.1.527.178,1.1.408.586,1.2-.126.2.334.764.2.949-.5.831-.111,1.187.579,1.528a1.077,1.077,0,0,1,.527.423c.044-.015.082-.044.134-.067.764-.378,1.424.245,2.389-.623.5-.46,1.269-.512,1.447.475.067.46,1.261.63,2.01.46.415-.089.816-.141,1.231-.2-.957.712-2.344,1.914-4.54,3.368A.522.522,0,0,1,452.587,526.541Zm3.316,4.718c-.594.237-1.135.452-1.647.623.022-.126.252-.26.356-.312a3.359,3.359,0,0,1,1.157-.312A.814.814,0,0,1,455.9,531.259Zm10.274-3.754c.067,0,.141-.022.193-.022-.964.631-2.01,1.2-2.693,1.587a11.576,11.576,0,0,1-2.314.964c.082-.045.148-.1.23-.141-.045-.074-.126-.193-.171-.185a.207.207,0,1,0-.178.364l-.364.089A11.717,11.717,0,0,1,459,531.533c-.126.03-.786.178-1.306.3a.428.428,0,0,0-.082-.081l-.044.119-.06.007c-.245.022-.475.052-.69.067a.319.319,0,0,0-.045.1h-.015c-.059.26-.171.519-.26.786l-.037-.037c-.045.126-.215.282-.178.364l.082.1c-.119.319-.223.638-.327.949a10.219,10.219,0,0,0-2.4-.423c-.223-.052-.4-.312-.594-.475.26-.1.5-.223.757-.3.156-.044.356.044.519.022.3-.059.838-.059.883-.215.141-.371-.082-.534-.452-.638a1.419,1.419,0,0,0,.2-.037c.356-.045.653-.082.927-.1.1.03.178.074.26.1a2.659,2.659,0,0,0,.586-.081.451.451,0,0,1-.26-.074l.349-.03c.067-.223.141-.437.2-.66a3.2,3.2,0,0,0,1.083-.082.433.433,0,0,0,.126-.809l.074-.03a6.008,6.008,0,0,0,.675-.467c-.3.171-.579.289-.89.43a.9.9,0,0,0-.3-.185c.044-.044.1-.081.148-.134a1.9,1.9,0,0,0-.349-.23c-.015-.007-.089.111-.148.171.074.082.134.156.208.23a1.306,1.306,0,0,1-.408.482,55.747,55.747,0,0,0,1.224-5.734c.245.171.415.349.371.586a.931.931,0,0,0,.378.037,8.943,8.943,0,0,1,3.665-.289c-.185.193-.378.393-.564.564.237-.17.5-.363.727-.549a10.9,10.9,0,0,0,2.515.03c1.031-.156,1.7-.171.579.341-.66.3-1.84.653-.964.905a11.061,11.061,0,0,0,2.322-.133,2.641,2.641,0,0,0,.356-.045c-.045.074-.126.156-.178.23-.156.111-.326.223-.49.341l-.044.03v.007a.393.393,0,0,0-.178-.185c-.267,0-.527.03-1.024.074-.1.067-.408.274-.727.482C465.524,527.4,465.843,527.483,466.177,527.505ZM519.337,582.9a.972.972,0,0,1-.223-.364,5.249,5.249,0,0,0,.593.378l-.156.134Zm2.329,1.61-1.921-1.32c.037-.052.081-.126.126-.178a3.653,3.653,0,0,0,1.617.43l.438.215c.141.074.3.119.423.178Z" transform="matrix(0.899, -0.438, 0.438, 0.899, -289.122, 18.274)" fill="#aec912" fill-rule="evenodd"/>
</svg>
