<svg xmlns="http://www.w3.org/2000/svg" width="30.317" height="31.971" viewBox="0 0 30.317 31.971">
  <path id="viber" d="M40.088,3.151C39.295,2.42,36.086.092,28.93.06c0,0-8.435-.506-12.543,3.265C14.1,5.611,13.3,8.964,13.209,13.116s-.194,11.932,7.305,14.042h.006l-.006,3.222s-.05,1.3.812,1.567c1.036.325,1.648-.668,2.641-1.736.543-.587,1.292-1.449,1.861-2.1a29.013,29.013,0,0,0,9.521-.7c1.036-.337,6.9-1.086,7.848-8.866.986-8.029-.475-13.1-3.109-15.39Zm.868,14.8c-.805,6.493-5.557,6.905-6.431,7.186a26.843,26.843,0,0,1-8.192.7s-3.247,3.915-4.258,4.932c-.331.331-.693.3-.687-.356,0-.431.025-5.351.025-5.351h0c-6.356-1.761-5.981-8.385-5.913-11.85S16.225,6.91,18.16,5C21.638,1.846,28.8,2.314,28.8,2.314c6.05.025,8.947,1.848,9.621,2.46,2.229,1.911,3.365,6.481,2.535,13.18ZM32.277,12.91a.4.4,0,0,1-.805.037,1.931,1.931,0,0,0-2.035-2.117.4.4,0,0,1,.044-.805A2.715,2.715,0,0,1,32.277,12.91Zm1.267.706c.062-2.647-1.592-4.72-4.733-4.951a.4.4,0,0,1,.056-.805c3.621.262,5.551,2.753,5.482,5.775a.4.4,0,0,1-.805-.019Zm2.934.837a.4.4,0,0,1-.805.006C35.636,9.37,32.246,6.6,28.131,6.566a.4.4,0,0,1,0-.805C32.733,5.792,36.435,8.97,36.479,14.452Zm-.706,6.125v.012c-.674,1.186-1.936,2.5-3.234,2.079l-.012-.019a24,24,0,0,1-6.381-3.528A16.323,16.323,0,0,1,23.5,16.475a20.26,20.26,0,0,1-1.923-2.91,18.656,18.656,0,0,1-1.623-3.478c-.418-1.3.887-2.56,2.079-3.234h.012a1.137,1.137,0,0,1,1.492.243s.774.924,1.105,1.38c.312.425.731,1.105.949,1.486a1.3,1.3,0,0,1-.231,1.661l-.749.6a1.1,1.1,0,0,0-.331.874,7.818,7.818,0,0,0,5.263,5.263,1.1,1.1,0,0,0,.874-.331l.6-.749a1.3,1.3,0,0,1,1.661-.231,16.177,16.177,0,0,1,2.86,2.054,1.115,1.115,0,0,1,.237,1.473Z" transform="translate(-13.19 -0.038)" fill="#fff"/>
</svg>
