<svg xmlns="http://www.w3.org/2000/svg" width="16.494" height="9.798" viewBox="0 0 16.494 9.798">
  <path id="Icon_awesome-vk" data-name="Icon awesome-vk" d="M17.426,7.414c.113-.383,0-.664-.545-.664h-1.8a.774.774,0,0,0-.784.511,15.112,15.112,0,0,1-2.217,3.69c-.419.419-.612.554-.842.554-.113,0-.288-.135-.288-.517V7.414c0-.459-.129-.664-.508-.664H7.6a.435.435,0,0,0-.459.413c0,.435.649.536.717,1.761v2.658c0,.582-.1.689-.334.689-.612,0-2.1-2.247-2.982-4.82-.178-.5-.352-.7-.814-.7h-1.8c-.514,0-.619.242-.619.511,0,.478.612,2.851,2.851,5.986a7.03,7.03,0,0,0,5.5,3.3c1.148,0,1.289-.257,1.289-.7,0-2.045-.1-2.238.472-2.238.266,0,.726.135,1.8,1.167,1.225,1.225,1.427,1.773,2.113,1.773h1.8c.514,0,.775-.257.625-.765-.343-1.069-2.661-3.267-2.765-3.414-.266-.343-.19-.5,0-.8,0,0,2.2-3.1,2.431-4.152Z" transform="translate(-1.308 -6.75)" fill="#fff"/>
</svg>
