<svg xmlns="http://www.w3.org/2000/svg" width="27.465" height="27.465" viewBox="0 0 27.465 27.465">
  <path id="whatsapp" d="M23.352,35.991A13.614,13.614,0,0,0,1.931,52.415L0,59.465l7.216-1.894a13.568,13.568,0,0,0,6.5,1.655h.006a13.524,13.524,0,0,0,9.625-23.235ZM13.727,56.933a11.292,11.292,0,0,1-5.763-1.576l-.411-.245L3.274,56.234l1.14-4.175-.27-.429a11.334,11.334,0,1,1,21.022-6.014A11.439,11.439,0,0,1,13.727,56.933Zm6.2-8.473c-.337-.172-2.011-.993-2.324-1.1s-.539-.172-.766.172-.877,1.1-1.079,1.336-.4.257-.736.086A9.257,9.257,0,0,1,10.4,44.905c-.349-.6.349-.558,1-1.858a.63.63,0,0,0-.031-.595c-.086-.172-.766-1.845-1.048-2.526-.276-.662-.558-.57-.766-.582s-.423-.012-.65-.012a1.26,1.26,0,0,0-.907.423,3.821,3.821,0,0,0-1.189,2.838,6.662,6.662,0,0,0,1.386,3.519A15.2,15.2,0,0,0,14,51.25c2.158.932,3,1.012,4.083.852a3.483,3.483,0,0,0,2.293-1.618,2.844,2.844,0,0,0,.2-1.618" transform="translate(0 -32)" fill="#fff"/>
</svg>
