<svg xmlns="http://www.w3.org/2000/svg" width="40.685" height="33.093" viewBox="0 0 40.685 33.093">
  <g id="Сгруппировать_2388" data-name="Сгруппировать 2388" transform="translate(0 0)">
    <path id="Контур_15998" data-name="Контур 15998" d="M941.983,389.392h17.582c1.877,0,2.723.843,2.723,2.717q0,13.8,0,27.594c0,1.88-.883,2.76-2.769,2.761-11.722,0-23.443-.017-35.164.021a2.588,2.588,0,0,1-2.751-2.749c.048-9.218.022-18.437.023-27.655a2.387,2.387,0,0,1,2.714-2.688Q933.161,389.391,941.983,389.392Zm.022,1.448c-5.29,0-10.579.039-15.868-.02a2.527,2.527,0,0,0-2.815,2.851c.074,1.645.016,3.3.016,4.943q0,9.918,0,19.835a2.312,2.312,0,0,0,1.076,2.243,3.812,3.812,0,0,0,1.744.409q15.838.035,31.676.017c.143,0,.285.005.427,0a2.282,2.282,0,0,0,2.341-2.48c0-8.382-.02-16.764.018-25.145a2.5,2.5,0,0,0-2.68-2.67C952.625,390.874,947.315,390.84,942.005,390.84Z" transform="translate(-921.604 -389.392)" fill="#fff"/>
    <path id="Контур_15999" data-name="Контур 15999" d="M952.81,438.5c1.023,1.445,1.043,2.724.086,3.878a2.843,2.843,0,0,1-3.425.745,2.873,2.873,0,0,1-1.609-3.062,2.719,2.719,0,0,1,2.618-2.376.985.985,0,0,0,.944-.568c1.606-2.733,3.244-5.448,4.849-8.182a.917.917,0,0,0,.045-.744,3.033,3.033,0,0,1,.357-3.42,2.846,2.846,0,0,1,3.231-.751,2.954,2.954,0,0,1,1.818,2.908c0,.08,0,.16,0,.3l5.047,2.049c1.223.5,2.449.986,3.665,1.5a.852.852,0,0,0,.883-.078,10.871,10.871,0,0,1,1.458-.564,1.175,1.175,0,0,0,.588-.386c1.262-2.388,2.488-4.8,3.75-7.185.186-.353.055-.544-.134-.8a2.893,2.893,0,0,1,3.156-4.522,2.919,2.919,0,0,1-.349,5.636,1.387,1.387,0,0,0-1.139.892c-1.148,2.287-2.335,4.555-3.519,6.824a.565.565,0,0,0,.039.741,2.818,2.818,0,0,1,.147,3.349,2.907,2.907,0,0,1-3.151,1.211,2.8,2.8,0,0,1-2.095-2.625.7.7,0,0,0-.52-.749q-4.153-1.668-8.286-3.386a1.092,1.092,0,0,0-.955.05,11.846,11.846,0,0,1-1.741.432c-.192.049-.452.109-.539.251C956.275,432.734,954.54,435.625,952.81,438.5Z" transform="translate(-944.616 -413.71)" fill="#fff"/>
  </g>
</svg>
