<svg xmlns="http://www.w3.org/2000/svg" width="40.406" height="40.223" viewBox="0 0 40.406 40.223">
  <g id="Сгруппировать_2387" data-name="Сгруппировать 2387" transform="translate(0 0)">
    <path id="Контур_15982" data-name="Контур 15982" d="M803.658,403.1a6.174,6.174,0,0,1,5.009,1.7q9.212,9.195,18.382,18.431a5.822,5.822,0,0,1,0,8.385q-4.858,4.975-9.792,9.875a6.033,6.033,0,0,1-8.647,0q-9.21-9.1-18.377-18.235a5.646,5.646,0,0,1-1.783-4.639c.284-3.17.57-6.343.971-9.5a5.725,5.725,0,0,1,5.138-5.143C797.788,403.581,801.037,403.343,803.658,403.1Zm.473,2.952c-3.049.3-6.1.578-9.146.924a2.912,2.912,0,0,0-2.565,2.737c-.281,2.741-.526,5.486-.841,8.224a3.989,3.989,0,0,0,1.284,3.517q8.92,8.828,17.791,17.7a2.869,2.869,0,0,0,4.494.051q4.811-4.769,9.581-9.579a3.086,3.086,0,0,0,.01-4.475q-9.039-9.062-18.113-18.089A3.018,3.018,0,0,0,804.131,406.05Z" transform="translate(-788.425 -403.09)" fill="#fff"/>
    <path id="Контур_15983" data-name="Контур 15983" d="M851.386,469.674a5.128,5.128,0,1,1,5.179-5.118A5.1,5.1,0,0,1,851.386,469.674ZM853.4,464.6a2.119,2.119,0,0,0-2.083-2.081,1.976,1.976,0,0,0-2.025,2.021,2.087,2.087,0,0,0,2.068,2.089A2.027,2.027,0,0,0,853.4,464.6Z" transform="translate(-838.014 -451.383)" fill="#fff"/>
  </g>
</svg>
