<svg xmlns="http://www.w3.org/2000/svg" width="39.498" height="52.083" viewBox="0 0 39.498 52.083">
  <g id="Сгруппировать_2389" data-name="Сгруппировать 2389" transform="translate(0 0)">
    <path id="Контур_15975" data-name="Контур 15975" d="M937.545,543.1l-5.332,8.746a3.773,3.773,0,0,1-.55.88c-.545.49-1.207,1.324-1.72,1.256-.62-.082-1.307-.858-1.658-1.5a31.514,31.514,0,0,1-1.833-4.167,1.321,1.321,0,0,0-1.671-.967c-1.678.222-3.364.421-5.052.521-1.776.1-2.474-1.026-1.592-2.6,1.827-3.257,3.722-6.476,5.583-9.713q1.857-3.23-1.515-4.593c-1.956-.793-2.7-2.035-2.063-4a3.311,3.311,0,0,0-.828-3.93c-1.4-1.358-1.346-2.846-.007-4.281a3.182,3.182,0,0,0,.864-3.809c-.758-1.891-.005-3.362,1.938-4.038a2.9,2.9,0,0,0,2.22-2.626c.377-2.549,1.534-3.33,4.07-2.967a2.22,2.22,0,0,0,2.483-1.143c1.53-2.383,2.823-2.71,5.19-1.278a2.412,2.412,0,0,0,2.97-.064c1.852-1.273,3.341-1.1,4.6.733a3.231,3.231,0,0,0,3.753,1.648c1.747-.338,3.028.838,3.25,2.778a3.027,3.027,0,0,0,2.318,2.957c1.9.615,2.515,1.9,1.9,3.806a3.531,3.531,0,0,0,.858,4.077c1.422,1.444,1.336,2.81-.146,4.375a3.009,3.009,0,0,0-.741,3.6c.747,1.941.037,3.229-1.885,4.08-2.427,1.075-2.894,2.563-1.547,4.9,1.8,3.121,3.625,6.232,5.391,9.373,1.012,1.8.337,2.852-1.741,2.717-1.646-.107-3.286-.31-4.922-.526a1.237,1.237,0,0,0-1.56.926,31.861,31.861,0,0,1-1.849,4.161,3.391,3.391,0,0,1-1.637,1.6c-.989.313-1.476-.626-1.92-1.4q-2.463-4.3-4.955-8.575C938.033,543.75,937.813,543.482,937.545,543.1Zm-16.6-22.064a1.929,1.929,0,0,0,.246.441c1.915,1.7,2.725,3.655,1.5,6.141-.37.749.249,1.023.808,1.172a4.369,4.369,0,0,1,3.546,4.4c.045.993.567,1.31,1.456,1.108a3.822,3.822,0,0,1,4.589,2.065c.575,1.047,1.21,1.172,2.172.461a3.807,3.807,0,0,1,4.842-.063c1.036.758,1.571.454,2.107-.54a3.624,3.624,0,0,1,4.338-2.055c1.147.274,1.6-.135,1.685-1.25a4.109,4.109,0,0,1,3.229-4.067c1.249-.318,1.327-.987.9-2.025a3.861,3.861,0,0,1,1.18-4.806c.922-.769.738-1.383-.055-2.122-1.4-1.3-2.028-2.8-.982-4.656.57-1.013.161-1.58-.918-1.884a3.985,3.985,0,0,1-3.228-4.163c0-.916-.476-1.362-1.442-1.131a3.838,3.838,0,0,1-4.681-2.123c-.559-1.048-1.21-1.032-2.092-.4a3.783,3.783,0,0,1-4.828.029c-.989-.732-1.66-.622-2.264.508a3.524,3.524,0,0,1-4.223,2.019c-1.2-.294-1.694.113-1.8,1.289a4.109,4.109,0,0,1-3.323,3.992c-1.084.264-1.309.812-.855,1.791a3.937,3.937,0,0,1-1.1,4.94A10.639,10.639,0,0,0,920.949,521.036Zm16.245,17.774-.219-.226c-.523.28-1.032.593-1.573.835-1.362.609-2.751.492-3.484-.755a3.976,3.976,0,0,0-4.828-2.056,1.981,1.981,0,0,0-1.182.641c-1.184,1.922-2.285,3.9-3.406,5.856-.375.656-.725,1.325-1.121,2.051a2.97,2.97,0,0,0,.558.088c1.253-.123,2.508-.232,3.756-.394,1.8-.232,2.17-.029,2.886,1.642.537,1.253,1.1,2.495,1.769,4.01Zm7.654,11.671c.71-1.566,1.284-2.859,1.88-4.141.745-1.605,1.067-1.739,2.836-1.49,1.424.2,2.86.321,4.549.506-1.69-2.954-3.215-5.624-4.748-8.29-.083-.144-.226-.35-.352-.358a17.547,17.547,0,0,0-3.484-.093c-.493.069-.946.808-1.316,1.317-.99,1.363-2.115,2.309-3.955,1.741-.218-.067-.672.047-.741.2a1.736,1.736,0,0,0-.169,1.164,11.016,11.016,0,0,0,.963,1.694C941.771,545.225,943.232,547.721,944.847,550.481Z" transform="translate(-917.754 -502)" fill="#fff"/>
    <path id="Контур_15976" data-name="Контур 15976" d="M953.091,522.815A12.035,12.035,0,1,1,941.1,534.882,12.111,12.111,0,0,1,953.091,522.815Zm.149,2.59a9.456,9.456,0,1,0,9.372,9.512A9.406,9.406,0,0,0,953.24,525.4Z" transform="translate(-933.289 -515.851)" fill="#fff"/>
  </g>
</svg>
