<svg xmlns="http://www.w3.org/2000/svg" width="42.963" height="41.008" viewBox="0 0 42.963 41.008">
  <g id="Сгруппировать_2384" data-name="Сгруппировать 2384" transform="translate(0 0)">
    <path id="Контур_16000" data-name="Контур 16000" d="M954.161,368.672c-.026.571-.031,1.144-.083,1.712a4.4,4.4,0,0,0,1.226,3.452,16.409,16.409,0,0,1,1.324,1.756,4.033,4.033,0,0,1-.032,5.044,15.037,15.037,0,0,1-1.307,1.684,4.883,4.883,0,0,0-1.2,4.01,12.765,12.765,0,0,1-.027,2.466,3.566,3.566,0,0,1-2.3,3.091c-.973.4-2,.673-3.011.974a4.043,4.043,0,0,0-2.463,1.752c-.333.548-.7,1.076-1.073,1.6-1.675,2.35-3.279,2.986-5.94,1.843a7.756,7.756,0,0,0-6.556.01c-1.691.728-3.483.816-4.93-.671a8.6,8.6,0,0,1-1.462-1.9,5.569,5.569,0,0,0-4.02-2.92,8.781,8.781,0,0,1-2.734-1.084c-1.571-.983-1.864-2.637-1.718-4.3.175-2,.062-3.818-1.492-5.327a8.043,8.043,0,0,1-1.261-1.792,3.882,3.882,0,0,1,.2-4.339c.581-.877,1.25-1.7,1.9-2.531a3.713,3.713,0,0,0,.72-2.517c-.034-1-.061-2.01-.007-3.011a3.991,3.991,0,0,1,3.137-3.731c.851-.278,1.71-.534,2.572-.779a3.549,3.549,0,0,0,2.048-1.531c.48-.726.957-1.457,1.485-2.149a4.1,4.1,0,0,1,5.115-1.558c.589.193,1.183.382,1.752.625a5.123,5.123,0,0,0,4.145-.065,18.805,18.805,0,0,1,2.431-.745,3.624,3.624,0,0,1,3.885,1.308,16.3,16.3,0,0,1,1.652,2.277,4.493,4.493,0,0,0,2.955,2.072c.777.2,1.546.44,2.3.714a3.993,3.993,0,0,1,2.756,4.151q0,.206,0,.413Zm-2.2,1.536c0-1.048.029-1.758-.009-2.466a1.489,1.489,0,0,0-.967-1.454,21.321,21.321,0,0,0-2.337-.8,6.654,6.654,0,0,1-4.374-3.079,20.562,20.562,0,0,0-1.157-1.7,1.966,1.966,0,0,0-2.459-.833,11.574,11.574,0,0,0-1.5.511,7.213,7.213,0,0,1-6.082.074,18.176,18.176,0,0,0-1.958-.655,1.558,1.558,0,0,0-1.758.461,14.051,14.051,0,0,0-1.377,1.791,6.793,6.793,0,0,1-4.273,3.333c-.714.171-1.423.377-2.117.615a1.972,1.972,0,0,0-1.554,2.154,12.792,12.792,0,0,0,.018,1.716,6.471,6.471,0,0,1-1.645,5.267,19.422,19.422,0,0,0-1.283,1.7,2.037,2.037,0,0,0,.086,2.6c.526.694,1.052,1.389,1.586,2.076a5.336,5.336,0,0,1,1.232,3.074c.038.865,0,1.733,0,2.6,0,2.289.27,2.645,2.482,3.265.088.025.181.036.271.053a7.052,7.052,0,0,1,5.19,3.595,12.6,12.6,0,0,0,.98,1.411,1.859,1.859,0,0,0,2.1.815,15.922,15.922,0,0,0,2.1-.674,6.812,6.812,0,0,1,5.682,0,12.5,12.5,0,0,0,1.49.539c1.433.435,1.947.277,2.87-.9a15.1,15.1,0,0,0,.936-1.356,6.263,6.263,0,0,1,3.749-3.039c.777-.2,1.545-.444,2.312-.684A2.118,2.118,0,0,0,952,387.894c.025-.984-.119-1.981,0-2.95a8.466,8.466,0,0,1,.753-2.658,14.6,14.6,0,0,1,1.612-2.219c1.305-1.726,1.289-2.463-.1-4.124-.118-.141-.23-.286-.352-.423C952.471,373.906,951.614,372.094,951.965,370.209Z" transform="translate(-914.535 -357.6)" fill="#fff"/>
    <path id="Контур_16001" data-name="Контур 16001" d="M984.889,433.266a11.471,11.471,0,0,1,8-10.977,17.938,17.938,0,0,1,3.531-.614c.836-.09,1.284.321,1.311.971.028.669-.434,1.118-1.282,1.133a9.615,9.615,0,0,0-4.564,1.259,9.535,9.535,0,0,0,2.255,17.529,9.663,9.663,0,0,0,12.066-7.735,11.6,11.6,0,0,0,.125-1.226c.037-.854.466-1.37,1.145-1.342s1.083.586,1.036,1.44a11.816,11.816,0,0,1-12.371,11.312,11.6,11.6,0,0,1-11.252-11.476C984.887,433.45,984.889,433.358,984.889,433.266Z" transform="translate(-975.211 -412.854)" fill="#fff"/>
    <path id="Контур_16002" data-name="Контур 16002" d="M1049.6,460.51l4.612-6.143c.343-.457.674-.925,1.031-1.372a1.117,1.117,0,0,1,1.564-.325,1.063,1.063,0,0,1,.149,1.578q-3.113,4.185-6.254,8.349a1.048,1.048,0,0,1-1.713.114c-.7-.663-1.371-1.348-2.04-2.038a1,1,0,0,1-.047-1.472,1.016,1.016,0,0,1,1.476-.058C1048.791,459.531,1049.139,459.993,1049.6,460.51Z" transform="translate(-1028.305 -439.428)" fill="#fff"/>
  </g>
</svg>
