<svg xmlns="http://www.w3.org/2000/svg" width="40.643" height="56.158" viewBox="0 0 40.643 56.158">
  <g id="Сгруппировать_2385" data-name="Сгруппировать 2385" transform="translate(0 0)">
    <path id="Контур_15980" data-name="Контур 15980" d="M946.992,549.109c-1.1,2.719-2.2,5.555-3.405,8.344-.741,1.716-2.162,1.868-3.432.478-.037-.042-.07-.088-.107-.13-.766-.891-1.5-1.81-2.317-2.654a1.434,1.434,0,0,0-1.056-.388c-1.5.193-2.98.478-4.469.728-.193.033-.387.064-.582.079-1.559.124-2.3-.932-1.635-2.356.757-1.62,1.59-3.206,2.306-4.843a35.412,35.412,0,0,0,3.006-9.215c.019-.135.02-.271.039-.549-.42,0-.8,0-1.173,0a2.6,2.6,0,0,1-2.82-2.819c-.008-1.036.021-2.073-.052-3.1a1.351,1.351,0,0,0-.513-.906c-.854-.579-1.774-1.062-2.659-1.6a2.641,2.641,0,0,1-1.053-3.926,21.794,21.794,0,0,1,1.211-2.106,1.7,1.7,0,0,0-.021-2.253,19.438,19.438,0,0,1-1.291-2.254,2.571,2.571,0,0,1,.976-3.626c.952-.586,1.941-1.115,2.873-1.732a1.234,1.234,0,0,0,.477-.842c.065-1.088.035-2.182.052-3.274a2.557,2.557,0,0,1,2.611-2.689c1.062-.04,2.128-.042,3.19,0a1.085,1.085,0,0,0,1.124-.661c.5-.934,1.059-1.842,1.618-2.745a2.565,2.565,0,0,1,3.624-.964c.91.491,1.817.992,2.7,1.528a1.121,1.121,0,0,0,1.366.02c.866-.562,1.786-1.042,2.7-1.536a2.593,2.593,0,0,1,3.688.988c.557.9,1.1,1.818,1.614,2.748a1.033,1.033,0,0,0,1.063.62c1.034-.039,2.071-.032,3.106,0a2.559,2.559,0,0,1,2.717,2.747c.018,1.063,0,2.129.081,3.186a1.373,1.373,0,0,0,.517.915c.83.566,1.723,1.038,2.588,1.553a2.643,2.643,0,0,1,1.093,3.975c-.5.9-1.046,1.788-1.5,2.715a1.237,1.237,0,0,0,0,.963c.486.975,1.06,1.9,1.584,2.86a2.581,2.581,0,0,1-.954,3.7c-.924.578-1.9,1.082-2.8,1.69a1.366,1.366,0,0,0-.522.912c-.082,1.058-.064,2.124-.081,3.187a2.549,2.549,0,0,1-2.716,2.736c-.386.008-.772,0-1.33,0,.206,1.046.331,1.982.578,2.884a63.785,63.785,0,0,0,4.7,11.46,3.236,3.236,0,0,1,.389,1.177c.06.941-.731,1.584-1.822,1.438-1.661-.222-3.317-.5-4.965-.807a1.223,1.223,0,0,0-1.359.512c-.7.9-1.471,1.759-2.231,2.619-1.3,1.476-2.743,1.3-3.51-.532-1.088-2.6-2.05-5.251-3.066-7.881Zm-11.062-12.527v.02c.5,0,1.007.006,1.511,0a2.611,2.611,0,0,1,2.546,1.574c.444.871,1.014,1.676,1.475,2.539.349.652.747.712,1.352.343.931-.567,1.9-1.072,2.843-1.618a2.347,2.347,0,0,1,2.54.013c.844.5,1.7.971,2.553,1.451,1.09.614,1.14.6,1.755-.445.511-.868,1.031-1.73,1.535-2.6a2.22,2.22,0,0,1,1.97-1.217c1.147-.026,2.294-.067,3.441-.045.7.013,1.024-.21,1-.962-.031-1.089.041-2.182.037-3.273a2.348,2.348,0,0,1,1.257-2.207c.97-.556,1.919-1.15,2.893-1.7a.763.763,0,0,0,.327-1.233c-.574-.96-1.1-1.948-1.659-2.917a2.347,2.347,0,0,1,.01-2.542c.555-.938,1.057-1.909,1.623-2.84.378-.622.249-1-.382-1.346-.934-.505-1.822-1.094-2.751-1.609a2.424,2.424,0,0,1-1.32-2.341c.013-1.09-.047-2.182-.042-3.272,0-.6-.217-.865-.842-.853-1.091.022-2.183-.018-3.275-.016a2.479,2.479,0,0,1-2.342-1.339c-.505-.9-1.089-1.763-1.567-2.679-.37-.709-.778-.842-1.465-.418-.927.573-1.9,1.079-2.843,1.617a2.258,2.258,0,0,1-2.389,0c-1-.57-2-1.114-3-1.69-.539-.312-.911-.258-1.231.326-.523.956-1.123,1.87-1.654,2.823a2.48,2.48,0,0,1-2.333,1.354c-1.064,0-2.129.052-3.191.014-.751-.028-.985.288-.965,1,.03,1.034-.032,2.071-.01,3.106a2.491,2.491,0,0,1-1.38,2.4c-.95.535-1.871,1.121-2.823,1.653a.726.726,0,0,0-.314,1.167c.55.942,1.049,1.913,1.616,2.844a2.472,2.472,0,0,1,0,2.764c-.53.888-.993,1.817-1.542,2.693-.416.662-.261,1.051.395,1.407.959.519,1.881,1.1,2.823,1.653a2.325,2.325,0,0,1,1.223,2.144c0,1.148.028,2.3.021,3.443,0,.563.238.829.8.818C934.753,536.574,935.342,536.581,935.929,536.581Zm25.7,16.817c-.446-.934-.835-1.7-1.187-2.493-1.7-3.8-3.434-7.594-3.952-11.8-.018-.152-.2-.285-.3-.427-.166.125-.387.217-.489.382-.575.927-1.114,1.875-1.678,2.808a2.609,2.609,0,0,1-3.867,1.024c-.7-.384-1.388-.781-2.234-1.257.132,5.459,1.981,10.217,4.165,15.039.814-.956,1.594-1.763,2.246-2.662a2.969,2.969,0,0,1,3.361-1.252C958.94,553.041,960.219,553.178,961.63,553.4Zm-19.977,3.19c2.133-3.6,4.791-12.33,4.058-14.834-.713.4-1.411.8-2.116,1.182a2.586,2.586,0,0,1-3.744-.986c-.556-.9-1.072-1.833-1.633-2.734a6.107,6.107,0,0,0-.77-.79c-.707,5.5-3,10.165-5.24,14.974,1.445-.23,2.77-.409,4.081-.66a2.783,2.783,0,0,1,3.031,1.079C940.042,554.774,940.86,555.655,941.654,556.589Z" transform="translate(-926.59 -502.717)" fill="#fff"/>
    <path id="Контур_15981" data-name="Контур 15981" d="M943.829,535.041c.256-1.534.557-3.184.784-4.845a1.371,1.371,0,0,0-.326-1c-.986-1.029-2.032-2-3.055-3-.556-.539-1.077-1.113-.821-1.971s.983-1.06,1.766-1.169c1.412-.2,2.828-.372,4.226-.641a1.6,1.6,0,0,0,.985-.705c.709-1.3,1.319-2.65,1.983-3.973a1.725,1.725,0,0,1,1.569-1.2c.83.007,1.229.568,1.552,1.217.647,1.3,1.308,2.594,1.918,3.912a1.185,1.185,0,0,0,1.052.786c1.47.175,2.93.428,4.4.632a1.592,1.592,0,0,1,.938,2.924c-1.034,1.024-2.062,2.054-3.129,3.041a1.3,1.3,0,0,0-.439,1.33c.268,1.4.495,2.806.752,4.208a1.626,1.626,0,0,1-2.547,1.874c-1.314-.683-2.607-1.407-3.942-2.045a1.493,1.493,0,0,0-1.138,0c-1.409.675-2.764,1.464-4.171,2.146A1.523,1.523,0,0,1,943.829,535.041Zm7.1-15.844c-.6,1.207-1.181,2.26-1.647,3.363a2.937,2.937,0,0,1-2.688,1.92c-1.173.106-2.334.337-3.569.522a29.957,29.957,0,0,0,2.272,2.277,3.442,3.442,0,0,1,1.237,4.011,26.277,26.277,0,0,0-.5,3.09c1.194-.625,2.212-1.084,3.153-1.667a3.064,3.064,0,0,1,3.528.016c.98.6,2.036,1.082,3.16,1.669-.243-1.43-.447-2.725-.688-4.012a2.565,2.565,0,0,1,.859-2.559c.959-.873,1.866-1.8,2.912-2.82-1.432-.205-2.644-.4-3.863-.547a2.744,2.744,0,0,1-2.4-1.685C952.165,521.606,951.559,520.475,950.925,519.2Z" transform="translate(-930.607 -506.756)" fill="#fff"/>
  </g>
</svg>
