<svg xmlns="http://www.w3.org/2000/svg" width="33.346" height="52.995" viewBox="0 0 33.346 52.995">
  <g id="Сгруппировать_2386" data-name="Сгруппировать 2386" transform="translate(0)">
    <path id="Контур_16007" data-name="Контур 16007" d="M116.2,21.653l.347-.2,6.991-3.627a1.035,1.035,0,0,0,.558-.919v-9.7h.551a3.6,3.6,0,1,0,0-7.205H98.535a3.6,3.6,0,1,0,0,7.205h.551v9.7a1.035,1.035,0,0,0,.558.919l6.99,3.627.347.2a16.087,16.087,0,1,0,9.219,0Zm-6.128-.6-1.9-1.106V7.205h6.844V19.948l-1.9,1.106q-.75-.07-1.518-.071t-1.518.071Zm11.953-4.778-4.943,2.565V7.205h4.943ZM96.989,3.6A1.541,1.541,0,0,1,98.535,2.07h26.113a1.533,1.533,0,1,1,0,3.065H98.535A1.541,1.541,0,0,1,96.989,3.6Zm4.168,3.6H106.1V18.841l-4.943-2.564Zm10.435,43.72a13.936,13.936,0,1,1,14.017-13.936A13.992,13.992,0,0,1,111.592,50.925Z" transform="translate(-94.919 0)" fill="#fff"/>
    <path id="Контур_16008" data-name="Контур 16008" d="M156.115,246.725a11.452,11.452,0,1,0,11.532,11.452A11.505,11.505,0,0,0,156.115,246.725Zm0,20.833a9.382,9.382,0,1,1,9.462-9.382A9.433,9.433,0,0,1,156.115,267.558Z" transform="translate(-139.442 -221.187)" fill="#fff"/>
    <path id="Контур_16009" data-name="Контур 16009" d="M234.805,311.305h-1.758a1.035,1.035,0,1,0,0,2.07h.723v7.192a1.035,1.035,0,0,0,2.07,0V312.34A1.035,1.035,0,0,0,234.805,311.305Z" transform="translate(-217.822 -279.083)" fill="#fff"/>
  </g>
</svg>
