<svg id="Сгруппировать_2368" data-name="Сгруппировать 2368" xmlns="http://www.w3.org/2000/svg" width="60" height="60" viewBox="0 0 60 60">
  <rect id="Прямоугольник_1413" data-name="Прямоугольник 1413" width="60" height="60" fill="#fff" opacity="0"/>
  <path id="Контур_15992" data-name="Контур 15992" d="M968.973,368.738a21.424,21.424,0,1,1-20.886,23.66A21.322,21.322,0,0,1,968.973,368.738Zm-8.449,6.771c-.78,1.1-1.527,2.15-2.263,3.206a1.054,1.054,0,0,1-1.2.5,3.921,3.921,0,0,0-2.8.406c-.588.268-1.213.456-1.8.724a1.339,1.339,0,0,0-.6.507,17.508,17.508,0,0,0-1.935,5.321,1.646,1.646,0,0,0,.152.983c.669,1.294,1.348,2.586,2.1,3.833.819,1.359,1.508,2.847,2.9,3.755a2.06,2.06,0,0,1,.948,2.917,3.459,3.459,0,0,0-.169.741c-.322,1.466-.585,2.949-1,4.389a1.047,1.047,0,0,0,.28,1.246c5.455,5.259,11.862,7.178,19.252,5.35a19.809,19.809,0,0,0,14.907-20.269c-.012-.222-.056-.441-.085-.662a4.434,4.434,0,0,0-.282,1.113c-.086.535-.27.993-.9,1.065a1.117,1.117,0,0,1-1.222-.812c-.319-.744-.61-1.5-.979-2.221-.354-.69-.794-1.337-1.2-2l-.232.07c.483.966-.071,1.718-.414,2.513-.165.382-.334.763-.511,1.139a3.953,3.953,0,0,0-.577,2.345,4.446,4.446,0,0,1-1.506,3.8,4.529,4.529,0,0,0-1.467,4.419,1.754,1.754,0,0,1-.808,1.939,4.518,4.518,0,0,0-2.024,2.845c-.12.4-.317.77-.448,1.165a1.843,1.843,0,0,1-1.5,1.291,9.372,9.372,0,0,1-2.137.157,1.667,1.667,0,0,1-1.164-.485c-1.147-1.634-2.2-3.43-2.027-5.448a6.039,6.039,0,0,0-.543-3.436,7.967,7.967,0,0,1-.545-1.275,1.366,1.366,0,0,0-1.5-1.029,13.518,13.518,0,0,1-2.944-.327,18.081,18.081,0,0,1-2.426-1.02,2.329,2.329,0,0,1-1.434-1.662c-.244-.916-.5-1.829-.8-2.728a2.474,2.474,0,0,1,.538-2.569c1-1.181,1.963-2.4,2.933-3.607.125-.156.334-.434.284-.512-.533-.818-.115-1.626-.005-2.425.2-1.47.3-1.538,1.8-1.715-.251-.945.34-1.323,1.1-1.6.6-.215,1.186-.462,1.782-.7-.71-1.492-.691-1.579.51-2.594a10.3,10.3,0,0,0,1.1-.949,2.179,2.179,0,0,1,3.115-.5.828.828,0,0,0,1.266-.752,1.436,1.436,0,0,0-1.492-1.458c-.207-.023-.412-.066-.619-.078-1.161-.07-2.322-.132-3.483-.2.809.982.81,1.377-.018,2.175-.617.594-1.231,1.191-1.873,1.757a3.136,3.136,0,0,1-.967.636c-1.045.371-2.111.686-3.173,1.006A1.763,1.763,0,0,1,960.524,375.509Zm13.254,30.239c.976.2,1.475-.306,1.748-1.245a15.419,15.419,0,0,1,.852-2.122,1.713,1.713,0,0,1,.606-.807,2.518,2.518,0,0,0,1.385-3.093,2.9,2.9,0,0,1,.794-2.616c.535-.605.954-1.312,1.49-1.915a3.15,3.15,0,0,0,.751-1.96c.07-.906-.107-1.107-.989-.957a1.411,1.411,0,0,1-1.754-.847c-.1-.232-.241-.446-.344-.677-.513-1.161-1.038-2.318-1.519-3.492-.226-.549-.5-.776-1.092-.489a10.2,10.2,0,0,1-1.171.426c-2.514.865-2.347,1.348-4.86-.851a2.149,2.149,0,0,0-.95-.5c-1.111-.214-2.233-.389-3.358-.509a1.151,1.151,0,0,0-.866.326c-1.1,1.279-2.175,2.584-3.2,3.921a1.467,1.467,0,0,0-.233,1.071,23.125,23.125,0,0,0,.788,2.728,1.334,1.334,0,0,0,.589.7,8.957,8.957,0,0,0,4.756,1.273,4.822,4.822,0,0,1,.761.05,2.215,2.215,0,0,1,1.982,1.5c.434,1.047.912,2.076,1.307,3.136a2.455,2.455,0,0,1,.2,1.4,4.662,4.662,0,0,0,.452,3.525,7.533,7.533,0,0,1,.484,1.224A.994.994,0,0,0,973.779,405.748Zm1.675-34.575a2.215,2.215,0,0,1,.214.709,2.253,2.253,0,0,1-.273,1.144c-1.34,1.64-1.537,1.671-3.5.933-.065-.024-.131-.078-.192-.073-.19.016-.429-.009-.56.094-.651.512-1.274,1.06-1.921,1.607.086.177.153.322.227.463.589,1.137.414,1.618-.752,2.073-.621.243-1.241.488-1.878.738.256.608.409,1.26-.2,1.59a5.618,5.618,0,0,1-1.712.3c-.082.493-.175,1.044-.267,1.6.964.147.987.165,1.47-.455.774-.994,1.535-1.947,2.95-2.054a1.667,1.667,0,0,1,1.458.376,9.6,9.6,0,0,0,1.52,1.176,5.95,5.95,0,0,0,4.238.437c1.143-.167,1.589.237,1.536,1.388a3.324,3.324,0,0,0,.006,1.29c.52,1.3,1.139,2.567,1.717,3.847.534,1.182.529,1.159,1.8.95a.875.875,0,0,0,.784-.641,7.984,7.984,0,0,1,.4-.882,2.553,2.553,0,0,0,.321-2.287.894.894,0,0,1,.486-1.177c.864-.386,2.052-.612,2.655.547.5.964,1.1,1.877,1.673,2.836.185-1.227.376-2.436.54-3.649a1.436,1.436,0,0,0-.093-.67A19.969,19.969,0,0,0,975.453,371.173Zm-21.937,30.9c.4-1.835.731-3.478,1.126-5.106a.727.727,0,0,0-.315-.87,8.913,8.913,0,0,1-2.519-2.808c-.576-1.078-1.241-2.108-1.869-3.158-.083-.139-.184-.268-.384-.557A20.064,20.064,0,0,0,953.516,402.071Zm-.015-23.782c1.146-.43,2.051-1.009,3.12-.658a.655.655,0,0,0,.862-.341q.955-1.6,1.9-3.2a2.429,2.429,0,0,1,2.113-1.1c.75-.052.821.639.932,1.14a6.455,6.455,0,0,0,4.629-2.63,2.524,2.524,0,0,0-2.747-.577c-1.2.473-2.445.839-3.6,1.39A18.991,18.991,0,0,0,953.5,378.289Zm13.91,4.556a5.709,5.709,0,0,1,4.375,2.007c.016.016.033.041.052.044a2.052,2.052,0,0,0,.825.107c1.1-.347,2.181-.749,3.263-1.149.144-.053.251-.206.52-.439a5.885,5.885,0,0,0-.83,0,6.6,6.6,0,0,1-5.908-1.829,1.061,1.061,0,0,0-.661-.157C968.153,381.435,967.891,382.223,967.412,382.845Z" transform="translate(-939.535 -360.301)" fill="#fff"/>
</svg>
