<svg xmlns="http://www.w3.org/2000/svg" width="45.508" height="45.508" viewBox="0 0 45.508 45.508">
  <path id="delivery" d="M50.939,30.02H40.781a2.546,2.546,0,0,0,.249-1.1V13.872h.734a.734.734,0,0,0,.734-.734V10.569A2.572,2.572,0,0,0,39.929,8H21.579a2.572,2.572,0,0,0-2.569,2.569v2.569a.734.734,0,0,0,.734.734h.734V28.919a2.546,2.546,0,0,0,.249,1.1H10.569A2.572,2.572,0,0,0,8,32.589v2.569a.734.734,0,0,0,.734.734h.734V50.939a2.572,2.572,0,0,0,2.569,2.569H27.451a2.572,2.572,0,0,0,2.569-2.569V35.892h1.468V50.939a2.572,2.572,0,0,0,2.569,2.569H49.471a2.572,2.572,0,0,0,2.569-2.569V35.892h.734a.734.734,0,0,0,.734-.734V32.589A2.572,2.572,0,0,0,50.939,30.02ZM20.478,12.4V10.569a1.1,1.1,0,0,1,1.1-1.1h18.35a1.1,1.1,0,0,1,1.1,1.1V12.4Zm12.478,1.468v6.606l-1.762-1.321a.734.734,0,0,0-.881,0l-1.762,1.321V13.872Zm-4.4,37.067a1.1,1.1,0,0,1-1.1,1.1H12.037a1.1,1.1,0,0,1-1.1-1.1V35.892h5.138v8.074a.734.734,0,0,0,1.174.587l2.5-1.872,2.5,1.872a.733.733,0,0,0,1.174-.587V35.892h5.138ZM17.542,42.5V35.892h4.4V42.5l-1.762-1.321a.734.734,0,0,0-.881,0ZM30.02,34.424H9.468V32.589a1.1,1.1,0,0,1,1.1-1.1h18.35a1.1,1.1,0,0,1,1.1,1.1Zm-6.973-4.4a1.1,1.1,0,0,1-1.1-1.1V13.872h5.138v8.074a.734.734,0,0,0,1.174.587l2.5-1.872,2.5,1.872a.733.733,0,0,0,1.174-.587V13.872h5.138V28.919a1.1,1.1,0,0,1-1.1,1.1ZM50.572,50.939a1.1,1.1,0,0,1-1.1,1.1H34.057a1.1,1.1,0,0,1-1.1-1.1V35.892h5.138v8.074a.734.734,0,0,0,1.174.587l2.5-1.872,2.5,1.872a.733.733,0,0,0,1.174-.587V35.892h5.138ZM39.562,42.5V35.892h4.4V42.5L42.2,41.177a.734.734,0,0,0-.881,0ZM52.04,34.424H31.488V32.589a1.1,1.1,0,0,1,1.1-1.1h18.35a1.1,1.1,0,0,1,1.1,1.1Z" transform="translate(-8 -8)" fill="#fff"/>
</svg>
