<svg xmlns="http://www.w3.org/2000/svg" width="105.398" height="105.397" viewBox="0 0 105.398 105.397">
  <path id="Контур_1184" data-name="Контур 1184" d="M680.582,283.572a2.942,2.942,0,1,1,0-4.16A2.941,2.941,0,0,1,680.582,283.572Zm12.439,8.279a2.942,2.942,0,1,0,0,4.16A2.941,2.941,0,0,0,693.021,291.851ZM705.46,304.29a2.942,2.942,0,1,0,0,4.16A2.943,2.943,0,0,0,705.46,304.29Zm12.44,12.439a2.942,2.942,0,1,0,0,4.16A2.943,2.943,0,0,0,717.9,316.729Zm12.439,12.44a2.942,2.942,0,1,0,0,4.16A2.941,2.941,0,0,0,730.339,329.169Zm-62.2-37.318a2.942,2.942,0,1,0,0,4.16A2.941,2.941,0,0,0,668.143,291.851Zm12.439,12.439a2.942,2.942,0,1,0,0,4.16A2.943,2.943,0,0,0,680.582,304.29Zm12.439,12.439a2.942,2.942,0,1,0,0,4.16A2.943,2.943,0,0,0,693.021,316.729Zm12.439,12.44a2.942,2.942,0,1,0,0,4.16A2.941,2.941,0,0,0,705.46,329.169Zm12.44,12.439a2.942,2.942,0,1,0,0,4.16A2.941,2.941,0,0,0,717.9,341.608ZM655.7,304.29a2.942,2.942,0,1,0,0,4.16A2.943,2.943,0,0,0,655.7,304.29Zm12.44,12.439a2.942,2.942,0,1,0,0,4.16A2.943,2.943,0,0,0,668.143,316.729Zm12.439,12.44a2.942,2.942,0,1,0,0,4.16A2.941,2.941,0,0,0,680.582,329.169Zm12.439,12.439a2.942,2.942,0,1,0,0,4.16A2.941,2.941,0,0,0,693.021,341.608Zm12.439,12.439a2.942,2.942,0,1,0,0,4.16A2.941,2.941,0,0,0,705.46,354.047Zm-62.2-37.318a2.942,2.942,0,1,0,0,4.16A2.943,2.943,0,0,0,643.264,316.729Zm12.439,12.44a2.942,2.942,0,1,0,0,4.16A2.941,2.941,0,0,0,655.7,329.169Zm12.44,12.439a2.942,2.942,0,1,0,0,4.16A2.941,2.941,0,0,0,668.143,341.608Zm12.439,12.439a2.942,2.942,0,1,0,0,4.16A2.941,2.941,0,0,0,680.582,354.047Zm12.439,12.439a2.942,2.942,0,1,0,0,4.16A2.943,2.943,0,0,0,693.021,366.486Zm-62.2-37.317a2.942,2.942,0,1,0,0,4.16A2.941,2.941,0,0,0,630.825,329.169Zm12.439,12.439a2.942,2.942,0,1,0,0,4.16A2.941,2.941,0,0,0,643.264,341.608ZM655.7,354.047a2.942,2.942,0,1,0,0,4.16A2.941,2.941,0,0,0,655.7,354.047Zm12.44,12.439a2.942,2.942,0,1,0,0,4.16A2.943,2.943,0,0,0,668.143,366.486Zm12.439,12.44a2.942,2.942,0,1,0,0,4.16A2.941,2.941,0,0,0,680.582,378.926Z" transform="translate(-625.803 -278.55)" fill="#aec912"/>
</svg>
