<svg xmlns="http://www.w3.org/2000/svg" width="136" height="30.415" viewBox="0 0 136 30.415">
  <g id="YouTube_Logo_2017" transform="translate(-1.817 -0.4)">
    <path id="Контур_2116" data-name="Контур 2116" d="M44.287,5.163a5.459,5.459,0,0,0-3.844-3.844C37.073.4,23.509.4,23.509.4S9.945.428,6.575,1.347A5.459,5.459,0,0,0,2.731,5.191C1.712,11.179,1.316,20.3,2.759,26.052A5.459,5.459,0,0,0,6.6,29.9c3.37.919,16.934.919,16.934.919s13.564,0,16.934-.919a5.459,5.459,0,0,0,3.844-3.844C45.39,20.056,45.722,10.937,44.287,5.163Z" fill="red"/>
    <path id="Контур_2117" data-name="Контур 2117" d="M64.2,44.635l11.252-6.518L64.2,31.6Z" transform="translate(-45.008 -22.51)" fill="#fff"/>
    <g id="Сгруппировать_1280" data-name="Сгруппировать 1280" transform="translate(49.496 1.598)">
      <path id="Контур_2118" data-name="Контур 2118" d="M188.291,33.685a4.725,4.725,0,0,1-1.838-2.7,17.76,17.76,0,0,1-.529-4.874V23.352a15.892,15.892,0,0,1,.613-4.93,4.805,4.805,0,0,1,1.95-2.7,6.4,6.4,0,0,1,3.454-.863,5.816,5.816,0,0,1,3.37.863,5.037,5.037,0,0,1,1.866,2.7,16.7,16.7,0,0,1,.585,4.9v2.757a16.49,16.49,0,0,1-.585,4.874,4.894,4.894,0,0,1-1.866,2.7,6.372,6.372,0,0,1-3.482.863A6.22,6.22,0,0,1,188.291,33.685Zm4.818-2.98a8.894,8.894,0,0,0,.362-3.036V21.736a8.633,8.633,0,0,0-.362-2.98,1.285,1.285,0,0,0-1.253-.947,1.254,1.254,0,0,0-1.226.947,8.739,8.739,0,0,0-.362,2.98v5.933A9.851,9.851,0,0,0,190.6,30.7a1.247,1.247,0,0,0,1.253.919A1.292,1.292,0,0,0,193.11,30.7Zm61.053-4.54v.975l.111,2.757a2.771,2.771,0,0,0,.446,1.337,1.529,1.529,0,0,0,2.367-.334,6.42,6.42,0,0,0,.39-2.479l3.7.223a4.535,4.535,0,0,1,.028.668,4.97,4.97,0,0,1-1.448,3.927,5.9,5.9,0,0,1-4.066,1.309c-2.117,0-3.593-.668-4.429-1.978a11.679,11.679,0,0,1-1.281-6.128v-3.37c.095-4.735.927-8.2,5.821-8.217a5.96,5.96,0,0,1,3.37.808,4.373,4.373,0,0,1,1.671,2.507,17.583,17.583,0,0,1,.473,4.707v3.259h-7.158Zm.557-8.022a2.65,2.65,0,0,0-.446,1.309c-.084.613-.111,2.785-.111,2.785V23.6h3.12V22.238c0,1.365-.028-2.145-.111-2.785a2.564,2.564,0,0,0-.446-1.337,1.279,1.279,0,0,0-1-.39A1.3,1.3,0,0,0,254.72,18.143ZM177.874,25.8,173,8.2h4.261s1.991,8.829,2.674,12.979h.111c.774-4.406,2.73-12.979,2.73-12.979h4.261l-4.93,17.575v8.439H177.9V25.8Z" transform="translate(-173 -7.225)" fill="#282828"/>
      <path id="A" d="M281.559,33.4V52.423h-3.342l-.362-2.34h-.084a4.41,4.41,0,0,1-4.094,2.646c-3.278-.008-3.643-2.785-3.677-5.125V33.4h4.289V47.354a4.142,4.142,0,0,0,.279,1.81c.4.774,1.421.577,1.978.195a2.228,2.228,0,0,0,.752-.863V33.4Z" transform="translate(-242.983 -25.406)" fill="#282828"/>
      <path id="Контур_2119" data-name="Контур 2119" d="M320.4,9.129h-4.261V31.717h-4.178V9.129H307.7V5.675h12.673V9.129Zm24.482,6.6a4.909,4.909,0,0,0-1.253-2.618,3.412,3.412,0,0,0-2.4-.808,3.927,3.927,0,0,0-2.2.668,4.586,4.586,0,0,0-1.588,1.755h-.028V4.7H333.3V31.689h3.537l.446-1.81h.084a3.9,3.9,0,0,0,1.476,1.532,4.53,4.53,0,0,0,2.2.557,3.394,3.394,0,0,0,3.2-2.005,14.607,14.607,0,0,0,1.031-6.239V20.715A25.516,25.516,0,0,0,344.883,15.73ZM340.956,23.5a24.424,24.424,0,0,1-.167,3.259,3.4,3.4,0,0,1-.585,1.671,1.347,1.347,0,0,1-1.086.5,1.88,1.88,0,0,1-1.7-1V17.122a2.582,2.582,0,0,1,.752-1.281,1.366,1.366,0,0,1,2.145,0,3.987,3.987,0,0,1,.5,1.727c.084.808.139,1.95.139,3.454Z" transform="translate(-270.183 -4.7)" fill="#282828"/>
    </g>
    <path id="Контур_2120" data-name="Контур 2120" d="M281.559,33.4V52.423h-3.342l-.362-2.34h-.084a4.41,4.41,0,0,1-4.094,2.646c-3.278-.008-3.643-2.785-3.677-5.125V33.4h4.289V47.354a4.142,4.142,0,0,0,.279,1.81c.4.774,1.421.577,1.978.195a2.228,2.228,0,0,0,.752-.863V33.4Z" transform="translate(-171.511 -23.809)" fill="#282828"/>
  </g>
</svg>
