<svg xmlns="http://www.w3.org/2000/svg" width="18.518" height="13.021" viewBox="0 0 18.518 13.021">
  <path id="Icon_awesome-youtube" data-name="Icon awesome-youtube" d="M19.181,6.537a2.327,2.327,0,0,0-1.637-1.648A54.988,54.988,0,0,0,10.309,4.5a54.988,54.988,0,0,0-7.235.389A2.327,2.327,0,0,0,1.437,6.537a24.409,24.409,0,0,0-.387,4.486,24.409,24.409,0,0,0,.387,4.486,2.292,2.292,0,0,0,1.637,1.621,54.988,54.988,0,0,0,7.235.389,54.988,54.988,0,0,0,7.235-.389,2.292,2.292,0,0,0,1.637-1.621,24.409,24.409,0,0,0,.387-4.486,24.409,24.409,0,0,0-.387-4.486ZM8.415,13.777V8.27l4.84,2.753-4.84,2.753Z" transform="translate(-1.05 -4.5)" fill="#fff"/>
</svg>
